<?xml version="1.0" encoding="UTF-8"?>
<svg id="Capa_4" data-name="Capa 4" xmlns="http://www.w3.org/2000/svg" version="1.1" viewBox="0 0 600 321.6">
  <defs>
    <style>
      .cls-1 {
        fill: #39ffe2;
      }

      .cls-1, .cls-2, .cls-3 {
        stroke-width: 0px;
      }

      .cls-2 {
        fill: #3354f2;
      }

      .cls-3 {
        fill: #fff;
      }
    </style>
  </defs>
  <rect class="cls-2" x="-1.3" y="-.8" width="602.6" height="324.5"/>
  <g>
    <path class="cls-1" d="M103.9,172.9h-1.2c-7.6,0-15.5-1.7-15.5-10.2,0-19.7,11-27.2,11-43.8s-1.4-11.8-8.4-11.8-.4-.3-.4-.6,0-.6.5-.6h42.4c10.1,0,21.6,7.5,21.6,18.5s-5.9,13.9-13.7,14.9c11.2,5.9,14,11.6,14,18.4v1c-.3,7.3-4.5,14-13.5,14s-9.3,0-11.1,0c-4.7,0-5.3-.6-11.6-3.2-1.7,3.1-7.4,3.2-14.2,3.2h0ZM123.1,134.7c4.4,0,5.3-6.6,5.3-9.8,0-7.4-3.7-17.2-12.2-17.2s-1,0-1.5.3c3.8,4.8,5.4,10.7,5.4,16.7s-.3,5.8-.9,8.7c.7,1.1,2.7,1.4,3.9,1.4h0ZM123.4,166.6c2.9,0,5.2-2,5.5-6.5v-.6c0-8.7-4.2-18.8-10.7-21.2-1.5,3.8-1.5,7.6-1.5,10.6v.5c0,5.5,1,9.1,1.7,12.6,0,.5.5,2.9.5,3.4,1.6.8,3.1,1.3,4.5,1.3h0Z"/>
    <path class="cls-1" d="M159,163.6c0-1,0-2.2.2-3.5.5-4.2,3-7.5,4.7-11.1,2-4.3,3.4-9.2,3.4-14s-.4-6.9-3-9.9c-1.4-1.6-4.7-1.6-4.7-3.2s0-.4,1-.4c0,0,.9,0,1.6,0h7.6c4,0,6.8,2.5,9.3,5.8,3.3-2.8,8.6-5.2,13.2-5.2s10.9,3.8,10.9,9.8-.4,6.7-3.7,6.7-4-1.6-6.2-1.6-2.3.5-3.6.5c-2.6,0-3.2-1.6-3.2-4.1s.2-1.9.2-2.9c0-1.5-1.2-3.3-3.1-3.3s-4,2.2-4.1,2.3c1.4,3.2,2.2,7.2,2.2,10.7s-1.1,8.2-1.1,12.5,1.6,7.1,1.6,10.8-3.3,9.1-11.1,9.1c-8.8,0-12.1-2.3-12.1-9h0Z"/>
    <path class="cls-1" d="M205.5,123c-.4,0-.6,0-.6-.9s.5-.6.6-.6h9.8c1.1,0,1.6,0,1.8.3,5.6,5.1,8.4,10.2,8.4,17.7v4.9c0,3.2-.2,6.4-.2,9.6s1.6,6.5,1.6,10-2.6,8.3-7.4,8.3h-9c-3.6,0-5.1-3.7-5.1-7.6,0-13.6,6.5-17.9,6.9-30.4,0-4.1-.8-9.9-6.9-11.1h0ZM214.4,105.6c3.9,0,6.5,3.4,6.5,7s-1,3.7-3.1,3.7-2-.5-3.1-.5c-1.7,0-3.1,1.6-4.7,1.6-2.3,0-3.5-3.2-3.5-5.2,0-4.8,3.5-6.6,7.9-6.6h0Z"/>
    <path class="cls-1" d="M248.2,127.2c5.1-4,10-5.7,14.3-5.7,10.3,0,17.8,9,17.8,21.7v1.1c0,2.7-.5,5.3-.5,8.1v.4c0,5.6,3.7,9.5,3.7,13.1,0,5.7-4,6.3-8.5,6.3h-3.4c-7.1,0-10.3-1.3-12.4-8.6-.4-1.4-.5-2.9-.5-4.6,0-8.3,5.4-18.9,5.4-26.9s-2.2-7.3-6.6-7.3-8.1,2.9-8.1,4.1c1.9,3.4,3,8.3,3,13.1s-.3,5.4-.3,8.1c0,4.1,1.2,6.6,1.2,10.7,0,7.3-2.4,11.5-10.3,11.5h-.5c-3.9,0-8.8,0-10.5-4.2-.9-1.8-1.3-3.7-1.3-5.6,0-8.3,6.5-18.1,7.4-29.5v-1.4c0-4.9-2.6-8.5-7-9,0,0-.3,0-.3-.4s0-.6.4-.6h11.2c1.3,0,2.4,1.2,3.1,2l2.7,3.6h0Z"/>
    <path class="cls-1" d="M287.1,143.2c0-11,7.6-21.7,22.3-21.7h1c7.7.3,15.3,2.8,20.7,8.6,3-3.6,4.6-7.4,10.2-7.4s7,5,7,9-3,9.6-8.3,9.6-5-2.7-6.3-4.3c0,4.1-.3,8.2-2.7,14.4-3.5,9-12.9,12.6-22.3,12.6s-11.4-1.8-15.2-4.8c-.8,0-.9,1-.9,2.4,0,5,7.9,7.9,12.2,7.9h.4c11.1,0,19-6.8,29.2-6.8s13.2,2,13.2,10.9-2.9,10.4-9.3,11.8c-1.7-2-3.9-3.3-6.3-3.3-7.1,0-13.6,3.4-21.6,3.4s-23.1-4-23.1-16.8,1.6-9.2,3.9-12c-2.9-4.1-4.2-8.7-4.2-13.4h0ZM308.8,156.9c4.8,0,6.4-10.9,6.4-23.6v-2.1c0-3.2-1.2-6.8-5-6.8s-4.4,3.6-4.4,6.3,0,.9,0,1.3c.6,3.3,1.4,6.3,1.4,11.3s-.3,5.8-.9,8.2c-.3,1.1-.6,2.1-.6,3.2,0,1.6,1.7,2.2,3,2.2h0Z"/>
    <path class="cls-1" d="M357.8,136c1.1-2.9,2.1-6.5,2.1-10.4v-.9c-8.4,0-8.5,0-8.5,0-.3-.3-.4-.6-.4-1s.2-.9.5-1.3h8.6c0-2.1-.5-5.3-1.5-7.4-.4-.8-2.5-5.2-3.2-6.4-.2-.4-.6-1.3-.6-1.9s0-.6.5-.6c1,0,2,0,3,0s2,0,3.1.4c2.5.7,5.2,2.7,6.9,5.7,1.8,3.2,3.9,8.8,4.4,10.4h7.1c.3,0,.5.2.5.9s-.3,1.3-.5,1.5h-6.6c0,.3.2,4,.2,5,0,4.1-.3,9.3-.3,13.7s.2,7.3.9,9.5c.9,2.8,1.5,5.6,1.5,8.3,0,6.1-2.7,11.2-10.9,11.2h-2.5c-2.7,0-4.7,0-6.2-1.1-4.5-2.9-4.6-9.3-4.6-11.3s2.8-14.2,6.4-23.9h0Z"/>
    <path class="cls-1" d="M383.3,123c-.4,0-.5,0-.5-.9s.5-.6.6-.6h9.8c1.1,0,1.6,0,1.8.3,5.6,5.1,8.4,10.2,8.4,17.7v4.9c0,3.2-.2,6.4-.2,9.6s1.6,6.5,1.6,10-2.6,8.3-7.5,8.3h-9c-3.6,0-5.1-3.7-5.1-7.6,0-13.6,6.5-17.9,6.9-30.4,0-4.1-.8-9.9-6.9-11.1h0ZM392.2,105.6c3.9,0,6.5,3.4,6.5,7s-1,3.7-3.1,3.7-2-.5-3.1-.5c-1.7,0-3.1,1.6-4.7,1.6-2.3,0-3.5-3.2-3.5-5.2,0-4.8,3.5-6.6,7.9-6.6h0Z"/>
    <path class="cls-1" d="M432.7,121.7c14.4,0,23.6,13.8,23.6,27.1v.6c-.3,14.7-11,22.6-23.5,22.6h-1.3c-12.6,0-23-7.7-23-22.5s8.4-27.8,24.2-27.8h0ZM432.3,166.2c1.8,0,2.9-1.5,2.9-3.1,0-5.1,0-9.6,1.2-13.4l.4-1.1c1.6-4.4,3.5-9.9,3.5-13.6,0-4.5-2.7-11.1-8-11.1s-4.8,2.2-4.4,4.2c1.1,5.3,1.8,7.3,1.8,13.2v.5c0,5.3-2.7,10.3-2.7,15.6s.7,8.9,5.3,8.9h0Z"/>
    <path class="cls-1" d="M477.5,127.2c5.1-4,10-5.7,14.4-5.7,10.3,0,17.8,9,17.8,21.7v1.1c0,2.7-.5,5.3-.5,8.1v.4c0,5.6,3.7,9.5,3.7,13.1,0,5.7-4,6.3-8.5,6.3h-3.4c-7.1,0-10.3-1.3-12.4-8.6-.4-1.4-.5-2.9-.5-4.6,0-8.3,5.4-18.9,5.4-26.9s-2.2-7.3-6.6-7.3-8.1,2.9-8.1,4.1c1.9,3.4,3,8.3,3,13.1s-.3,5.4-.3,8.1c0,4.1,1.2,6.6,1.2,10.7,0,7.3-2.4,11.5-10.3,11.5h-.5c-3.9,0-8.8,0-10.5-4.2-.9-1.8-1.3-3.7-1.3-5.6,0-8.3,6.5-18.1,7.4-29.5v-1.4c0-4.9-2.6-8.5-7-9,0,0-.3,0-.3-.4s0-.6.4-.6h11.2c1.3,0,2.4,1.2,3.1,2l2.7,3.6h0Z"/>
  </g>
  <g>
    <path class="cls-3" d="M202.3,217.2c-.7.4-1.5.6-2.4.6-1.6,0-2.9-.6-3.9-1.6-1.1-1.1-1.6-2.6-1.6-4.5s.5-3.5,1.6-4.7,2.5-1.8,4.2-1.8,2.7.4,3.7,1.2,1.4,1.7,1.6,2.9h-2.5c-.2-.8-.6-1.4-1.4-1.7-.4-.2-.9-.3-1.4-.3-1,0-1.8.4-2.4,1.1s-.9,1.8-.9,3.3.3,2.5,1,3.1,1.4.9,2.3.9,1.5-.2,2.1-.7.9-1.1,1-1.9h-2.8v-2h5v6.4h-1.6l-.2-1.5c-.5.6-.9,1-1.3,1.2h0Z"/>
    <path class="cls-3" d="M212.9,212.8h-2.6v4.7h-2.4v-11.9h5.9c.8,0,1.5.1,1.9.3s.8.5,1.1.8c.3.3.5.6.6,1s.2.8.2,1.3-.1,1.1-.4,1.7-.8.9-1.4,1.2c.6.2.9.5,1.2.9s.3,1,.3,1.9v.8c0,.6,0,.9,0,1.1,0,.3.2.5.4.7v.3h-2.8c0-.3-.1-.5-.2-.6,0-.3-.1-.7-.1-1v-1.1c0-.8-.2-1.3-.4-1.5s-.8-.4-1.5-.4h0ZM214.4,210.6c.5-.2.8-.7.8-1.4s-.2-1.2-.7-1.5c-.3-.1-.7-.2-1.2-.2h-2.9v3.2h2.8c.6,0,1,0,1.3-.2h0Z"/>
    <path class="cls-3" d="M226.9,215h-4.4l-.8,2.5h-2.6l4.3-11.9h2.8l4.2,11.9h-2.7l-.8-2.5ZM226.1,212.9l-1.5-4.7-1.5,4.7h3Z"/>
    <path class="cls-3" d="M236.9,213.1h-2.5v4.3h-2.5v-11.9h5.2c1.2,0,2.2.3,2.9.9s1.1,1.6,1.1,2.9-.4,2.4-1.1,3-1.7.9-3.1.9h0ZM238.1,210.7c.3-.3.5-.7.5-1.4s-.2-1.1-.5-1.3-.8-.4-1.4-.4h-2.3v3.5h2.3c.6,0,1.1-.1,1.4-.4h0Z"/>
    <path class="cls-3" d="M250.1,217.4v-5.3h-4.7v5.3h-2.5v-11.9h2.5v4.6h4.7v-4.6h2.5v11.9h-2.5Z"/>
    <path class="cls-3" d="M254.7,205.5h2.5v11.9h-2.5v-11.9h0Z"/>
    <path class="cls-3" d="M268,216.6c-.9.8-2,1.2-3.4,1.2s-3.1-.6-4-1.6c-1-1.1-1.5-2.6-1.5-4.6s.6-3.7,1.7-4.8c1-1,2.2-1.5,3.7-1.5s3.5.7,4.4,2c.5.7.8,1.5.8,2.2h-2.5c-.2-.6-.4-1-.6-1.3-.5-.5-1.1-.8-2-.8s-1.6.4-2.1,1.1-.8,1.8-.8,3.1.3,2.4.8,3,1.3,1,2.1,1,1.5-.3,2-.9c.2-.3.5-.8.6-1.4h2.5c-.2,1.3-.8,2.4-1.6,3.2h0Z"/>
    <path class="cls-3" d="M281.3,217.4h-5.1v-11.9h5.1c.7,0,1.4.1,1.9.3.8.3,1.5.8,2,1.5.4.6.7,1.2.9,1.9s.2,1.4.2,2c0,1.6-.3,2.9-1,4-.9,1.5-2.2,2.2-4,2.2h0ZM283.1,208.6c-.4-.6-1.1-1-2.3-1h-2.3v7.8h2.3c1.2,0,2-.6,2.5-1.7.2-.6.4-1.4.4-2.3s-.2-2.1-.6-2.8Z"/>
    <path class="cls-3" d="M296.5,212.2h-5.8v3.1h6.6v2.1h-9.1v-11.9h8.8v2.1h-6.3v2.5h5.8v2.1h0Z"/>
    <path class="cls-3" d="M303.5,215.7c.6,0,1.1,0,1.4-.2.7-.2,1-.7,1-1.4s-.2-.7-.5-.9c-.4-.2-.9-.4-1.6-.6l-1.3-.3c-1.2-.3-2.1-.6-2.6-.9-.8-.6-1.2-1.4-1.2-2.6s.4-2,1.2-2.7,1.9-1.1,3.4-1.1,2.3.3,3.2,1,1.4,1.6,1.4,2.9h-2.4c0-.7-.4-1.2-.9-1.5-.4-.2-.9-.3-1.5-.3s-1.2.1-1.5.4-.6.6-.6,1.1.2.8.6,1c.2.1.8.3,1.6.5l2.1.5c.9.2,1.6.5,2,.9.7.6,1.1,1.4,1.1,2.4s-.4,2-1.2,2.7-2,1.1-3.5,1.1-2.8-.4-3.7-1.1-1.3-1.7-1.3-2.9h2.4c0,.6.2.9.5,1.2.4.5,1.1.7,2.1.7h0Z"/>
    <path class="cls-3" d="M310.1,205.5h2.5v11.9h-2.5v-11.9Z"/>
    <path class="cls-3" d="M322.2,217.2c-.7.4-1.5.6-2.4.6-1.6,0-2.9-.6-3.9-1.6-1-1.1-1.6-2.6-1.6-4.5s.5-3.5,1.6-4.7,2.5-1.8,4.2-1.8,2.7.4,3.7,1.2,1.5,1.7,1.6,2.9h-2.5c-.2-.8-.6-1.4-1.4-1.7-.4-.2-.9-.3-1.4-.3-1,0-1.8.4-2.4,1.1s-.9,1.8-.9,3.3.3,2.5,1,3.1,1.4.9,2.3.9,1.5-.2,2.1-.7.9-1.1,1-1.9h-2.8v-2h5v6.4h-1.6l-.2-1.5c-.5.6-.9,1-1.3,1.2h0Z"/>
    <path class="cls-3" d="M337.5,217.4h-2.5l-4.9-8.5v8.5h-2.3v-11.9h2.6l4.8,8.3v-8.3h2.3v11.9Z"/>
    <path class="cls-3" d="M348.8,215.7c.6,0,1.1,0,1.4-.2.7-.2,1-.7,1-1.4s-.2-.7-.5-.9c-.4-.2-.9-.4-1.6-.6l-1.3-.3c-1.2-.3-2.1-.6-2.6-.9-.8-.6-1.2-1.4-1.2-2.6s.4-2,1.2-2.7,1.9-1.1,3.4-1.1,2.3.3,3.2,1,1.4,1.6,1.4,2.9h-2.4c0-.7-.4-1.2-.9-1.5-.4-.2-.9-.3-1.5-.3s-1.2.1-1.5.4-.6.6-.6,1.1.2.8.6,1c.2.1.8.3,1.6.5l2.1.5c.9.2,1.6.5,2,.9.7.6,1.1,1.4,1.1,2.4s-.4,2-1.2,2.7-2,1.1-3.5,1.1-2.8-.4-3.7-1.1-1.3-1.7-1.3-2.9h2.4c0,.6.2.9.5,1.2.4.5,1.1.7,2.1.7h0Z"/>
    <path class="cls-3" d="M364.2,205.5v2.1h-3.6v9.8h-2.5v-9.8h-3.6v-2.1h9.7Z"/>
    <path class="cls-3" d="M372.7,212.8v-7.4h2.5v7.4c0,1.3-.2,2.3-.6,3-.7,1.3-2.1,1.9-4.2,1.9s-3.5-.6-4.2-1.9c-.4-.7-.6-1.7-.6-3v-7.4h2.5v7.4c0,.8.1,1.4.3,1.8.3.7,1,1,2,1s1.7-.3,2-1c.2-.4.3-1,.3-1.8h0Z"/>
    <path class="cls-3" d="M382.8,217.4h-5.1v-11.9h5.1c.7,0,1.4.1,1.9.3.8.3,1.5.8,2,1.5.4.6.7,1.2.9,1.9s.2,1.4.2,2c0,1.6-.3,2.9-1,4-.9,1.5-2.2,2.2-4,2.2h0ZM384.7,208.6c-.4-.6-1.1-1-2.3-1h-2.3v7.8h2.3c1.2,0,2-.6,2.5-1.7.2-.6.4-1.4.4-2.3s-.2-2.1-.6-2.8Z"/>
    <path class="cls-3" d="M389.5,205.5h2.5v11.9h-2.5v-11.9Z"/>
    <path class="cls-3" d="M399.5,217.8c-1.7,0-3-.5-3.9-1.4-1.2-1.1-1.8-2.8-1.8-4.9s.6-3.8,1.8-4.9c.9-.9,2.2-1.4,3.9-1.4s3,.5,3.9,1.4c1.2,1.1,1.8,2.7,1.8,4.9s-.6,3.8-1.8,4.9c-.9.9-2.2,1.4-3.9,1.4ZM401.9,214.6c.6-.7.9-1.8.9-3.1s-.3-2.4-.9-3.1-1.4-1.1-2.4-1.1-1.8.4-2.4,1.1-.9,1.8-.9,3.1.3,2.4.9,3.1,1.4,1.1,2.4,1.1,1.8-.4,2.4-1.1h0Z"/>
  </g>
</svg>