<?xml version="1.0" encoding="UTF-8"?>
<svg id="Capa_1" data-name="Capa 1" xmlns="http://www.w3.org/2000/svg" xmlns:xlink="http://www.w3.org/1999/xlink" viewBox="0 0 600 321.65">
  <defs>
    <style>
      .cls-1 {
        clip-path: url(#clippath);
      }

      .cls-2 {
        fill: none;
      }

      .cls-2, .cls-3, .cls-4, .cls-5 {
        stroke-width: 0px;
      }

      .cls-6 {
        clip-path: url(#clippath-1);
      }

      .cls-3 {
        fill: #f431c6;
      }

      .cls-4 {
        fill: #ffda3e;
      }

      .cls-5 {
        fill: #fff;
      }
    </style>
    <clipPath id="clippath">
      <rect class="cls-2" width="600" height="321.65"/>
    </clipPath>
    <clipPath id="clippath-1">
      <rect class="cls-2" width="600" height="321.65"/>
    </clipPath>
  </defs>
  <g class="cls-1">
    <rect class="cls-3" width="600" height="321.65"/>
    <g class="cls-6">
      <path class="cls-4" d="M103.95,174.89h-1.2c-7.63,0-15.45-1.66-15.45-10.21.09-19.69,11.04-27.23,11.04-43.79,0-5.7-1.38-11.78-8.37-11.78-.18,0-.37-.28-.37-.55s.09-.55.46-.55h42.41c10.12,0,21.62,7.54,21.62,18.49,0,7.64-5.89,13.89-13.71,14.9,11.22,5.89,13.98,11.59,13.98,18.4v1.01c-.28,7.27-4.51,13.98-13.52,13.98-4.6,0-9.29.09-11.13.09-4.69,0-5.34-.55-11.59-3.22-1.66,3.13-7.36,3.22-14.17,3.22M123.09,136.72c4.42,0,5.34-6.62,5.34-9.75,0-7.45-3.68-17.2-12.24-17.2-.28,0-1.01.09-1.47.28,3.77,4.78,5.43,10.67,5.43,16.65,0,2.94-.28,5.8-.92,8.65.74,1.1,2.67,1.38,3.86,1.38M123.45,168.64c2.94,0,5.24-2.02,5.52-6.53v-.55c0-8.74-4.23-18.77-10.67-21.25-1.47,3.77-1.47,7.64-1.47,10.58v.46c0,5.52,1.01,9.11,1.66,12.6.09.46.46,2.85.46,3.4,1.56.83,3.13,1.29,4.51,1.29"/>
      <path class="cls-4" d="M158.97,165.6c0-1.01,0-2.21.18-3.5.46-4.23,3.04-7.54,4.69-11.13,2.02-4.32,3.4-9.2,3.4-13.98,0-3.49-.37-6.9-3.04-9.93-1.38-1.56-4.69-1.56-4.69-3.22,0-.37.09-.37,1.01-.37,0,0,.92.09,1.56.09h7.64c3.96,0,6.81,2.48,9.29,5.8,3.31-2.76,8.65-5.24,13.15-5.24,5.43,0,10.95,3.77,10.95,9.75,0,2.48-.37,6.71-3.68,6.71-2.21,0-3.96-1.56-6.16-1.56-1.29,0-2.3.46-3.59.46-2.58,0-3.22-1.56-3.22-4.05,0-1.01.18-1.93.18-2.85,0-1.47-1.19-3.31-3.13-3.31-1.47,0-3.96,2.21-4.05,2.3,1.38,3.22,2.21,7.18,2.21,10.67,0,4.14-1.1,8.19-1.1,12.51,0,3.68,1.56,7.08,1.56,10.76,0,4.05-3.31,9.11-11.13,9.11-8.83-.09-12.05-2.3-12.05-9.02"/>
      <path class="cls-4" d="M205.52,125.03c-.37-.09-.55,0-.55-.92,0-.46.46-.55.64-.55h9.84c1.1,0,1.56,0,1.84.28,5.61,5.06,8.37,10.21,8.37,17.66v4.88c0,3.22-.18,6.44-.18,9.57,0,3.59,1.56,6.53,1.56,10.03,0,4.51-2.58,8.28-7.45,8.28h-9.02c-3.59,0-5.06-3.68-5.06-7.63,0-13.62,6.53-17.94,6.9-30.45,0-4.14-.83-9.94-6.9-11.13M214.44,107.64c3.86,0,6.53,3.4,6.53,6.99,0,1.93-1.01,3.68-3.13,3.68-1.1,0-2.02-.46-3.13-.46-1.66,0-3.13,1.56-4.69,1.56-2.3-.09-3.5-3.22-3.5-5.15,0-4.78,3.5-6.62,7.91-6.62"/>
      <path class="cls-4" d="M248.2,129.17c5.15-3.96,10.03-5.7,14.35-5.7,10.3,0,17.75,9.02,17.75,21.71v1.1c-.09,2.67-.46,5.34-.55,8.1v.37c0,5.61,3.68,9.47,3.68,13.06,0,5.7-4.05,6.26-8.46,6.26h-3.4c-7.08,0-10.3-1.29-12.42-8.56-.37-1.38-.55-2.94-.55-4.6,0-8.28,5.43-18.95,5.43-26.86,0-3.96-2.21-7.27-6.62-7.27-1.56,0-8.1,2.94-8.1,4.14,1.93,3.4,3.04,8.28,3.04,13.06,0,2.76-.28,5.43-.28,8.1,0,4.05,1.2,6.62,1.2,10.67,0,7.27-2.39,11.5-10.3,11.5h-.46c-3.86,0-8.83,0-10.49-4.23-.92-1.84-1.29-3.68-1.29-5.61,0-8.28,6.53-18.12,7.36-29.53v-1.38c0-4.88-2.58-8.46-6.99-9.02,0,0-.28,0-.28-.37,0-.09,0-.55.37-.55h11.22c1.29,0,2.39,1.2,3.13,2.02l2.67,3.59Z"/>
      <path class="cls-4" d="M287.12,145.18c0-11.04,7.64-21.71,22.26-21.71h1.01c7.73.28,15.27,2.85,20.7,8.56,3.04-3.59,4.6-7.45,10.21-7.45,4.69,0,6.99,4.97,6.99,9.01,0,4.69-3.04,9.57-8.28,9.57-3.59,0-4.97-2.67-6.26-4.32,0,4.05-.28,8.19-2.67,14.44-3.5,9.02-12.88,12.6-22.26,12.6-5.43,0-11.41-1.84-15.18-4.78-.83,0-.92,1.01-.92,2.39,0,4.97,7.91,7.91,12.24,7.91h.37c11.13,0,19.04-6.81,29.16-6.81,6.81,0,13.25,2.02,13.25,10.95,0,5.24-2.94,10.4-9.29,11.78-1.66-2.02-3.86-3.31-6.26-3.31-7.08,0-13.62,3.4-21.62,3.4-10.86,0-23.09-3.96-23.09-16.84,0-5.06,1.56-9.2,3.86-11.96-2.85-4.05-4.23-8.74-4.23-13.43M308.83,158.89c4.78,0,6.44-10.85,6.44-23.55v-2.12c0-3.22-1.2-6.81-4.97-6.81-3.13,0-4.42,3.59-4.42,6.26,0,.46,0,.92.09,1.29.64,3.31,1.38,6.26,1.38,11.32,0,2.48-.28,5.8-.92,8.19-.28,1.1-.64,2.12-.64,3.22,0,1.56,1.66,2.21,3.04,2.21"/>
      <path class="cls-4" d="M357.78,138c1.1-2.94,2.12-6.53,2.12-10.4v-.92c-8.37,0-8.46-.09-8.46-.09-.28-.28-.37-.55-.37-1.01,0-.64.18-.92.46-1.29h8.56c0-2.12-.55-5.34-1.47-7.45-.37-.83-2.48-5.24-3.22-6.44-.18-.37-.64-1.29-.64-1.93,0-.37.09-.55.55-.55,1.01,0,2.02-.09,3.04-.09s2.02.09,3.13.37c2.48.74,5.24,2.67,6.9,5.7,1.84,3.22,3.86,8.83,4.42,10.4h7.08c.27.09.55.18.55.92s-.28,1.29-.55,1.47h-6.62c0,.27.18,3.96.18,4.97,0,4.05-.28,9.29-.28,13.71,0,3.77.18,7.27.92,9.48.92,2.76,1.47,5.61,1.47,8.28,0,6.07-2.67,11.22-10.86,11.22h-2.48c-2.67,0-4.69-.09-6.16-1.1-4.51-2.94-4.6-9.29-4.6-11.32s2.76-14.17,6.35-23.92"/>
      <path class="cls-4" d="M383.26,125.03c-.37-.09-.55,0-.55-.92,0-.46.46-.55.64-.55h9.84c1.1,0,1.56,0,1.84.28,5.61,5.06,8.37,10.21,8.37,17.66v4.88c0,3.22-.18,6.44-.18,9.57,0,3.59,1.56,6.53,1.56,10.03,0,4.51-2.58,8.28-7.45,8.28h-9.02c-3.59,0-5.06-3.68-5.06-7.63,0-13.62,6.53-17.94,6.9-30.45,0-4.14-.83-9.94-6.9-11.13M392.18,107.64c3.86,0,6.53,3.4,6.53,6.99,0,1.93-1.01,3.68-3.13,3.68-1.1,0-2.02-.46-3.13-.46-1.66,0-3.13,1.56-4.69,1.56-2.3-.09-3.5-3.22-3.5-5.15,0-4.78,3.5-6.62,7.91-6.62"/>
      <path class="cls-4" d="M432.66,123.74c14.44,0,23.64,13.8,23.64,27.14v.55c-.28,14.72-11.04,22.63-23.55,22.63h-1.29c-12.6,0-23-7.73-23-22.54s8.37-27.78,24.2-27.78M432.29,168.18c1.75,0,2.94-1.47,2.94-3.13.09-5.15-.09-9.57,1.2-13.43l.37-1.1c1.56-4.42,3.5-9.94,3.5-13.62-.09-4.51-2.67-11.13-8-11.13-2.02,0-4.78,2.21-4.42,4.23,1.1,5.34,1.75,7.27,1.75,13.16v.46c0,5.34-2.67,10.3-2.67,15.64,0,3.49.74,8.92,5.34,8.92"/>
      <path class="cls-4" d="M477.47,129.17c5.15-3.96,10.03-5.7,14.35-5.7,10.3,0,17.75,9.02,17.75,21.71v1.1c-.09,2.67-.46,5.34-.55,8.1v.37c0,5.61,3.68,9.47,3.68,13.06,0,5.7-4.05,6.26-8.46,6.26h-3.4c-7.08,0-10.3-1.29-12.42-8.56-.37-1.38-.55-2.94-.55-4.6,0-8.28,5.43-18.95,5.43-26.86,0-3.96-2.21-7.27-6.62-7.27-1.56,0-8.1,2.94-8.1,4.14,1.93,3.4,3.04,8.28,3.04,13.06,0,2.76-.28,5.43-.28,8.1,0,4.05,1.2,6.62,1.2,10.67,0,7.27-2.39,11.5-10.3,11.5h-.46c-3.86,0-8.83,0-10.49-4.23-.92-1.84-1.29-3.68-1.29-5.61,0-8.28,6.53-18.12,7.36-29.53v-1.38c0-4.88-2.58-8.46-6.99-9.02,0,0-.28,0-.28-.37,0-.09,0-.55.37-.55h11.22c1.29,0,2.39,1.2,3.13,2.02l2.67,3.59Z"/>
      <g>
        <path class="cls-5" d="M202.3,217.2c-.7.4-1.5.6-2.4.6-1.6,0-2.9-.6-3.9-1.6-1.1-1.1-1.6-2.6-1.6-4.5s.5-3.5,1.6-4.7,2.5-1.8,4.2-1.8,2.7.4,3.7,1.2,1.4,1.7,1.6,2.9h-2.5c-.2-.8-.6-1.4-1.4-1.7-.4-.2-.9-.3-1.4-.3-1,0-1.8.4-2.4,1.1s-.9,1.8-.9,3.3.3,2.5,1,3.1,1.4.9,2.3.9,1.5-.2,2.1-.7.9-1.1,1-1.9h-2.8v-2h5v6.4h-1.6l-.2-1.5c-.5.6-.9,1-1.3,1.2h-.1Z"/>
        <path class="cls-5" d="M212.9,212.8h-2.6v4.7h-2.4v-11.9h5.9c.8,0,1.5.1,1.9.3s.8.5,1.1.8.5.6.6,1,.2.8.2,1.3-.1,1.1-.4,1.7-.8.9-1.4,1.2c.6.2.9.5,1.2.9s.3,1,.3,1.9v1.9c0,.3.2.5.4.7v.3h-2.8c0-.3-.1-.5-.2-.6,0-.3-.1-.7-.1-1v-1.1c0-.8-.2-1.3-.4-1.5s-.8-.4-1.5-.4h0l.2-.2ZM214.4,210.6c.5-.2.8-.7.8-1.4s-.2-1.2-.7-1.5c-.3-.1-.7-.2-1.2-.2h-2.9v3.2h2.8c.6,0,1,0,1.3-.2h0l-.1.1Z"/>
        <path class="cls-5" d="M226.9,215h-4.4l-.8,2.5h-2.6l4.3-11.9h2.8l4.2,11.9h-2.7l-.8-2.5ZM226.1,212.9l-1.5-4.7-1.5,4.7h3Z"/>
        <path class="cls-5" d="M236.9,213.1h-2.5v4.3h-2.5v-11.9h5.2c1.2,0,2.2.3,2.9.9s1.1,1.6,1.1,2.9-.4,2.4-1.1,3-1.7.9-3.1.9h0v-.1ZM238.1,210.7c.3-.3.5-.7.5-1.4s-.2-1.1-.5-1.3-.8-.4-1.4-.4h-2.3v3.5h2.3c.6,0,1.1-.1,1.4-.4h0Z"/>
        <path class="cls-5" d="M250.1,217.4v-5.3h-4.7v5.3h-2.5v-11.9h2.5v4.6h4.7v-4.6h2.5v11.9h-2.5Z"/>
        <path class="cls-5" d="M254.7,205.5h2.5v11.9h-2.5v-11.9h0Z"/>
        <path class="cls-5" d="M268,216.6c-.9.8-2,1.2-3.4,1.2s-3.1-.6-4-1.6c-1-1.1-1.5-2.6-1.5-4.6s.6-3.7,1.7-4.8c1-1,2.2-1.5,3.7-1.5s3.5.7,4.4,2c.5.7.8,1.5.8,2.2h-2.5c-.2-.6-.4-1-.6-1.3-.5-.5-1.1-.8-2-.8s-1.6.4-2.1,1.1-.8,1.8-.8,3.1.3,2.4.8,3,1.3,1,2.1,1,1.5-.3,2-.9c.2-.3.5-.8.6-1.4h2.5c-.2,1.3-.8,2.4-1.6,3.2h0l-.1.1Z"/>
        <path class="cls-5" d="M281.3,217.4h-5.1v-11.9h5.1c.7,0,1.4.1,1.9.3.8.3,1.5.8,2,1.5.4.6.7,1.2.9,1.9s.2,1.4.2,2c0,1.6-.3,2.9-1,4-.9,1.5-2.2,2.2-4,2.2h0ZM283.1,208.6c-.4-.6-1.1-1-2.3-1h-2.3v7.8h2.3c1.2,0,2-.6,2.5-1.7.2-.6.4-1.4.4-2.3s-.2-2.1-.6-2.8Z"/>
        <path class="cls-5" d="M296.5,212.2h-5.8v3.1h6.6v2.1h-9.1v-11.9h8.8v2.1h-6.3v2.5h5.8v2.1h0Z"/>
        <path class="cls-5" d="M303.5,215.7c.6,0,1.1,0,1.4-.2.7-.2,1-.7,1-1.4s-.2-.7-.5-.9c-.4-.2-.9-.4-1.6-.6l-1.3-.3c-1.2-.3-2.1-.6-2.6-.9-.8-.6-1.2-1.4-1.2-2.6s.4-2,1.2-2.7,1.9-1.1,3.4-1.1,2.3.3,3.2,1,1.4,1.6,1.4,2.9h-2.4c0-.7-.4-1.2-.9-1.5-.4-.2-.9-.3-1.5-.3s-1.2.1-1.5.4-.6.6-.6,1.1.2.8.6,1c.2.1.8.3,1.6.5l2.1.5c.9.2,1.6.5,2,.9.7.6,1.1,1.4,1.1,2.4s-.4,2-1.2,2.7-2,1.1-3.5,1.1-2.8-.4-3.7-1.1-1.3-1.7-1.3-2.9h2.4c0,.6.2.9.5,1.2.4.5,1.1.7,2.1.7h0l-.2.1Z"/>
        <path class="cls-5" d="M310.1,205.5h2.5v11.9h-2.5v-11.9Z"/>
        <path class="cls-5" d="M322.2,217.2c-.7.4-1.5.6-2.4.6-1.6,0-2.9-.6-3.9-1.6-1-1.1-1.6-2.6-1.6-4.5s.5-3.5,1.6-4.7,2.5-1.8,4.2-1.8,2.7.4,3.7,1.2,1.5,1.7,1.6,2.9h-2.5c-.2-.8-.6-1.4-1.4-1.7-.4-.2-.9-.3-1.4-.3-1,0-1.8.4-2.4,1.1s-.9,1.8-.9,3.3.3,2.5,1,3.1,1.4.9,2.3.9,1.5-.2,2.1-.7.9-1.1,1-1.9h-2.8v-2h5v6.4h-1.6l-.2-1.5c-.5.6-.9,1-1.3,1.2h-.1Z"/>
        <path class="cls-5" d="M337.5,217.4h-2.5l-4.9-8.5v8.5h-2.3v-11.9h2.6l4.8,8.3v-8.3h2.3v11.9Z"/>
        <path class="cls-5" d="M348.8,215.7c.6,0,1.1,0,1.4-.2.7-.2,1-.7,1-1.4s-.2-.7-.5-.9c-.4-.2-.9-.4-1.6-.6l-1.3-.3c-1.2-.3-2.1-.6-2.6-.9-.8-.6-1.2-1.4-1.2-2.6s.4-2,1.2-2.7,1.9-1.1,3.4-1.1,2.3.3,3.2,1,1.4,1.6,1.4,2.9h-2.4c0-.7-.4-1.2-.9-1.5-.4-.2-.9-.3-1.5-.3s-1.2.1-1.5.4-.6.6-.6,1.1.2.8.6,1c.2.1.8.3,1.6.5l2.1.5c.9.2,1.6.5,2,.9.7.6,1.1,1.4,1.1,2.4s-.4,2-1.2,2.7-2,1.1-3.5,1.1-2.8-.4-3.7-1.1-1.3-1.7-1.3-2.9h2.4c0,.6.2.9.5,1.2.4.5,1.1.7,2.1.7h0l-.2.1Z"/>
        <path class="cls-5" d="M364.2,205.5v2.1h-3.6v9.8h-2.5v-9.8h-3.6v-2.1h9.7Z"/>
        <path class="cls-5" d="M372.7,212.8v-7.4h2.5v7.4c0,1.3-.2,2.3-.6,3-.7,1.3-2.1,1.9-4.2,1.9s-3.5-.6-4.2-1.9c-.4-.7-.6-1.7-.6-3v-7.4h2.5v7.4c0,.8.1,1.4.3,1.8.3.7,1,1,2,1s1.7-.3,2-1c.2-.4.3-1,.3-1.8h0Z"/>
        <path class="cls-5" d="M382.8,217.4h-5.1v-11.9h5.1c.7,0,1.4.1,1.9.3.8.3,1.5.8,2,1.5.4.6.7,1.2.9,1.9s.2,1.4.2,2c0,1.6-.3,2.9-1,4-.9,1.5-2.2,2.2-4,2.2h0ZM384.7,208.6c-.4-.6-1.1-1-2.3-1h-2.3v7.8h2.3c1.2,0,2-.6,2.5-1.7.2-.6.4-1.4.4-2.3s-.2-2.1-.6-2.8Z"/>
        <path class="cls-5" d="M389.5,205.5h2.5v11.9h-2.5v-11.9Z"/>
        <path class="cls-5" d="M399.5,217.8c-1.7,0-3-.5-3.9-1.4-1.2-1.1-1.8-2.8-1.8-4.9s.6-3.8,1.8-4.9c.9-.9,2.2-1.4,3.9-1.4s3,.5,3.9,1.4c1.2,1.1,1.8,2.7,1.8,4.9s-.6,3.8-1.8,4.9c-.9.9-2.2,1.4-3.9,1.4ZM401.9,214.6c.6-.7.9-1.8.9-3.1s-.3-2.4-.9-3.1-1.4-1.1-2.4-1.1-1.8.4-2.4,1.1-.9,1.8-.9,3.1.3,2.4.9,3.1,1.4,1.1,2.4,1.1,1.8-.4,2.4-1.1h0Z"/>
      </g>
    </g>
  </g>
</svg>