<?xml version="1.0" standalone="no"?>
<!DOCTYPE svg PUBLIC "-//W3C//DTD SVG 1.1//EN" "http://www.w3.org/Graphics/SVG/1.1/DTD/svg11.dtd" >
<svg xmlns="http://www.w3.org/2000/svg" xmlns:xlink="http://www.w3.org/1999/xlink" version="1.1">
<metadata>
Created by FontForge 20201107 at Mon Jan 15 04:22:34 2024
 By 
Copyright (c) 2024 by Khurasan. All rights reserved.
</metadata>
<defs>
<font id="Namecat" horiz-adv-x="0" >
  <font-face 
    font-family="Namecat"
    font-weight="400"
    font-stretch="normal"
    units-per-em="1000"
    panose-1="0 0 0 0 0 0 0 0 0 0"
    ascent="800"
    descent="-200"
    x-height="731"
    cap-height="738.5"
    bbox="-35 -155 4667.2 765"
    underline-thickness="0"
    underline-position="0"
    unicode-range="U+000D-E000"
  />
<missing-glyph horiz-adv-x="250" 
 />
    <glyph glyph-name="noname" unicode="NAMECAT" horiz-adv-x="4708" 
d="M100 283q-12 0 -22.5 1t-21.5 6q-7 3 -13 7t-11 9q-7 10 -10 23t-2.5 26.5t4.5 26t11 21.5q8 10 19 14t23 6q15 0 28.5 -3t28.5 -4q4 -1 14 -2t21 -2t21.5 -2.5t14.5 -2.5q13 -7 19 -16q4 -8 6 -20t2 -24t-3 -23.5t-8 -18.5q-8 -9 -18 -15q-6 -3 -20.5 -4t-30.5 -2
t-30.5 -1h-21.5zM106 43q-9 2 -19 4t-17 9q-18 16 -24.5 45.5t4.5 52.5q14 19 38 25q14 3 29 3t29 1q3 1 13 2.5t21.5 3t21.5 2t14 0.5q14 0 23 -11q6 -7 10.5 -17.5t7 -22.5t3 -23.5t-2.5 -19.5q-6 -11 -17 -20q-9 -6 -27 -12t-38.5 -11t-39.5 -8t-29 -3zM90 529
q-8 5 -15.5 11t-12.5 14q-5 11 -5.5 24.5t2.5 27t9.5 25.5t15.5 20q10 8 21.5 9.5t22.5 0.5q14 -3 27.5 -9t27.5 -12q3 0 13 -2.5t21 -5.5t21 -6.5t13 -4.5q5 -2 9 -7.5t5 -10.5q3 -9 3 -21t-2.5 -24t-7 -23t-11.5 -18q-4 -5 -9 -6.5t-10 -4.5q-11 -2 -30 0t-40 5.5
t-39.5 8.5t-28.5 9zM822 1h-15q-28 4 -53.5 16.5t-47.5 31.5q-23 21 -41 49t-31 57q-16 32 -31.5 65t-29.5 68q-3 6 -11 25.5t-17.5 41.5t-18 41.5t-11.5 26.5q-5 12 -12.5 24.5t-15.5 22.5q-8 -56 -8.5 -111.5t1.5 -111.5q1 -42 6.5 -81.5t4.5 -81.5q-2 -17 -4.5 -34
t-13.5 -28q-17 -16 -42.5 -19t-50.5 2q-11 2 -22.5 8t-19.5 15q-7 6 -11 15t-7 18q-3 11 -5 35t-4 54.5t-3 64.5t-2.5 64.5t-2 54.5t-1.5 35q0 34 1.5 66.5t3.5 65.5q1 8 3 31t5 49t5.5 49t4.5 32q5 17 11.5 35t20.5 29q8 7 23.5 10t32.5 2.5t33.5 -3t27.5 -6.5l2 -1
q8 0 14.5 -3.5t14.5 -7.5q23 -11 40 -31t31 -42q26 -46 46 -95t38.5 -99t37.5 -99.5t44 -96.5q0 4 -0.5 20t-1 34.5t-1 34.5t-0.5 22q0 48 2.5 96.5t8.5 97.5q0 5 1.5 19.5t3.5 30t3.5 29.5t3.5 19q2 17 8 33.5t18 27.5q9 9 24 12.5t32.5 4t34 -1.5t27.5 -5q11 -5 22.5 -10
t19.5 -15q7 -7 10 -17.5t3 -19.5q-2 -8 -7 -33l-10.5 -52.5t-11 -52.5t-6.5 -33q-8 -54 -10 -110t0 -112q0 -14 0.5 -28.5t3.5 -31.5q0 -12 2 -38t3 -54t0.5 -53t-5.5 -36t-16.5 -18t-25.5 -11t-29 -4t-27 2zM568 620l-20 28t-24 25q-14 14 -32 22t-35 11q-9 2 -15 -2.5
t-7.5 -10.5t2.5 -11.5t13 -5.5q11 0 20 -4.5t18 -9.5q6 -3 14 -10t16 -15.5t14.5 -17t9.5 -13.5q3 -7 9 -8t11.5 1.5t7.5 8t-2 12.5zM573 552q17 0 19 11t-12 17q-7 4 -12 0t-6.5 -10t1 -12t10.5 -6zM1366 -17q-22 2 -41 16q-5 5 -9.5 13t-5.5 17q-2 15 -3 29.5t-3 29.5
q-37 8 -75.5 7t-77.5 -1q-3 -21 -8 -40.5t-14 -36.5q-7 -14 -16 -20t-24 -9q-16 -5 -34.5 -3t-35.5 8.5t-31 18t-21 26.5q-4 8 -5 17t-1 17q0 11 4.5 35t11.5 54.5t15.5 63.5t16 63.5t13.5 54.5l9 36q9 33 20 64t22 63q4 9 13.5 33.5t21 52t21.5 52t15 32.5q11 17 23.5 33.5
t31.5 22.5q7 1 21 2t29.5 1.5t29.5 0t20 -2.5q17 -3 28.5 -11t20.5 -20q7 -10 16.5 -33t19.5 -52.5t20.5 -62t19.5 -62.5t15.5 -53.5t10.5 -35.5q5 -15 12 -43t14.5 -62.5t14.5 -72t12 -72t6.5 -62.5t-1.5 -44q-3 -25 -20 -39q-8 -7 -24 -12t-34 -8.5t-35.5 -4.5t-28.5 0z
M1295 206q2 -1 2 2.5t-2 4.5q-6 57 -18 110t-27 106q-23 -53 -41 -109t-32 -114q29 5 59 5t59 -5zM1373 565q1 4 -0.5 11.5t-4 16t-5.5 16t-4 11.5q-7 17 -15 34t-19 31q-5 7 -12.5 12t-13.5 1q-9 -5 -9 -14t9 -12q1 -2 4 -6t3 -5q9 -13 15 -27l12 -28q0 -2 1.5 -7.5
t3.5 -11.5t3.5 -11.5t1.5 -7.5q0 -6 4.5 -10t9.5 -4.5t10 2t6 9.5zM1385 501q8 4 6 13t-11 14q-8 4 -14.5 -2.5t-4.5 -15.5q1 -9 9.5 -12.5t14.5 3.5zM2103 54q-4 13 -7 46t-5.5 70.5t-3.5 71t-1 46.5q-14 -36 -28.5 -72t-25.5 -73q-8 -25 -19.5 -47.5t-28.5 -39.5
q-12 -12 -29.5 -19t-36.5 -9t-37.5 0t-32.5 10q-6 4 -11.5 8.5t-11.5 9.5q-5 8 -11 28t-11.5 42.5t-9.5 43t-6 29.5q-18 75 -34 150t-34 150q-9 -62 -10 -124.5t1 -125.5q0 -15 3 -45t5 -63t1.5 -62.5t-7.5 -42.5q-6 -11 -17 -17.5t-24 -10.5q-15 -4 -32 -4t-33 4.5
t-29.5 13t-20.5 21.5q-8 19 -9.5 38.5t-2.5 38.5q-6 63 -8.5 125t-3.5 124q0 14 1 40t3 58t4.5 66.5t6 66t7.5 56.5t9 38q5 9 10 17.5t13 16.5q12 10 32.5 11.5t43.5 -1t45 -7.5t37 -9q34 -10 55 -31q14 -14 21 -32.5t14 -37.5q14 -42 24 -85.5t20 -88.5q2 -7 5.5 -24
t8.5 -39.5t10 -47.5l9.5 -47.5l8 -40t5.5 -24.5q12 27 20.5 55t17.5 57q17 48 31.5 96t30.5 96q3 14 11 41t18.5 56.5t22 54.5t22.5 36q12 9 31 12q32 8 66.5 8.5t65.5 -10.5q9 -4 18.5 -10t15.5 -14q5 -6 6.5 -14.5t1.5 -15.5q0 -9 -4 -32t-9.5 -49t-10.5 -49t-6 -32
q-14 -64 -14.5 -129.5t2.5 -131.5q0 -15 3 -45.5t4.5 -64t1 -64t-7.5 -43.5q-5 -9 -15.5 -16t-21.5 -10q-18 -6 -37.5 -6t-36.5 6t-30 18t-19 30zM1788 657q0 9 -11.5 18.5t-18.5 12.5q-25 16 -56 22q-8 0 -13.5 3t-10.5 1q-12 -3 -12 -15.5t12 -14.5q15 -3 30 -6.5
t29 -11.5q7 -4 13 -8.5t9 -9.5q8 -8 18.5 -4.5t10.5 13.5zM1810 603q9 11 2.5 20t-20.5 2q-7 -3 -6.5 -9t4 -11t9.5 -6.5t11 4.5zM2456 1q-18 1 -37 2t-35 10q-14 7 -23.5 22.5t-12.5 29.5q-2 10 -4 34t-3.5 54.5t-3 65t-3 65t-2.5 55.5t-2 36q0 14 1 40t3.5 58t5.5 66.5
t7 65.5t9 56t10 38q4 10 9.5 17.5t16.5 12.5q10 8 22 9t23 2q90 5 177.5 -2.5t175.5 -15.5q7 0 13 -2.5t11 -5.5q5 -6 8.5 -13.5t4.5 -15.5q3 -11 2.5 -24.5t-3.5 -27.5t-8.5 -26t-13.5 -19q-12 -8 -21 -11q-14 -2 -49 -1t-74 3.5t-74 5.5t-49 5q-8 -38 -14.5 -77t-10.5 -80
q12 0 39.5 -1t57.5 -3t56.5 -5t37.5 -7q19 -5 22 -22v-17t-0.5 -23t-2 -22.5t-3.5 -15.5q-6 -16 -19 -26q-12 -7 -38.5 -9t-55.5 -1t-56 3t-42 4q2 -32 3.5 -63.5t3.5 -62.5q38 -4 75 -2l74 4q22 0 42 2.5t42 1.5q11 -2 23 -6t19 -14q10 -12 12 -29t1 -31q0 -15 -2.5 -30
t-11.5 -27q-11 -12 -33 -19q-23 -6 -48 -6q-63 -5 -126 -6t-126 1zM2737 110q12 6 9.5 18t-14.5 12q-3 0 -11 -0.5t-17.5 -0.5t-17.5 -0.5t-11 -0.5q-8 0 -24.5 0.5t-23.5 -4.5q-8 -7 -4 -17t17 -10h19.5t28.5 0.5t29 1t20 1.5zM2749 681q8 5 6 14t-10 11q-3 2 -7 2.5
t-6 0.5q-5 0 -18.5 1t-29 2t-29 1.5t-19.5 -1.5q-13 -2 -11.5 -14t12.5 -14q3 0 12 -0.5t19 -1t19.5 -1t12.5 -0.5q4 0 11 -1t14.5 -1.5t14 0t9.5 2.5zM2781 118q4 10 -3 17t-16 4q-10 -4 -9 -15t10 -15q6 -2 11 0.5t7 8.5zM2797 680q3 11 -5.5 17t-17.5 -1q-5 -3 -6 -10
t3 -11q6 -8 15.5 -6t10.5 11zM2946 32q-29 20 -53 47t-38 60q-16 35 -22.5 72.5t-10.5 75.5q-5 51 -2 104.5t14 106.5q8 43 24 86t46 78q17 19 38 34.5t44 25.5q61 26 131 26t129 -27q53 -26 85 -75t33 -107q2 -18 -3 -37t-14 -33q-10 -16 -27 -25q-12 -6 -26 -8t-27.5 -0.5
t-25.5 7t-19 15.5q-11 14 -15 32t-9 35q-6 14 -15 26.5t-20 21.5q-28 23 -63 17q-8 -3 -14.5 -7t-13.5 -7q-16 -13 -29.5 -29.5t-18.5 -35.5q-11 -28 -13.5 -57.5t-2.5 -58.5q0 -30 1 -59t6 -59q5 -28 15.5 -55t31.5 -47q8 -10 20 -16.5t23 -4.5q17 0 30 9.5t21 21.5
q14 19 23 38t22 38q15 21 37 28.5t43.5 2.5t39 -21.5t24.5 -41.5q6 -26 7 -52.5t-8 -51.5q-8 -23 -24.5 -45.5t-36.5 -36.5q-32 -25 -72 -38.5t-82 -16.5q-47 -4 -94.5 7.5t-88.5 36.5zM3256 687q-3 6 -11.5 12t-19 11t-20.5 9t-16 5q-6 2 -22.5 3t-22.5 1q-6 -2 -9 -6.5
t-2.5 -10t4.5 -9.5t11 -4q8 0 16.5 -0.5t17.5 -3.5q14 -2 26 -10t26 -15q4 -6 10.5 -6t11 3.5t5.5 9t-5 11.5zM3292 639q7 7 3 16t-13 9q-11 -2 -15 -9t0 -15q3 -7 11.5 -7t13.5 6zM3778 -17q-10 1 -21 5t-19 11q-13 12 -15 30q-3 15 -3.5 29.5t-1.5 29.5q-38 8 -76.5 7
t-76.5 -1q-4 -21 -9.5 -40.5t-14.5 -36.5q-8 -14 -16.5 -20t-21.5 -9q-17 -5 -35.5 -3t-36 8.5t-31.5 18t-21 26.5q-4 8 -4.5 17t-0.5 17q0 11 4.5 35t11.5 54.5t15.5 63.5t16.5 63.5t14 54.5l9 36q9 33 19 64t21 63q3 9 13 33.5t21.5 52t22 52t15.5 32.5q11 17 24.5 33.5
t31.5 22.5q7 1 20.5 2t29 1.5t29 0t20.5 -2.5q17 -3 28.5 -11t19.5 -20q6 -10 15 -33t19.5 -52.5t20.5 -62t19.5 -62.5t17 -53.5t11.5 -35.5q4 -15 11 -43t14.5 -62.5t14.5 -72t12 -72t7 -62.5t0 -44q-3 -11 -8 -21.5t-14 -17.5q-8 -7 -24 -12t-34.5 -8.5t-36 -4.5t-27.5 0z
M3708 206q2 -1 2 2.5t-2 4.5q-6 57 -18.5 110t-26.5 106q-23 -53 -41 -109t-32 -114q29 5 59 5t59 -5zM3785 565q0 4 -1.5 11.5t-4 16t-5 16t-3.5 11.5q-11 36 -34 65q-5 7 -12.5 12t-13.5 1q-10 -5 -10 -14t10 -12q1 -2 4 -6t4 -5q8 -13 14 -27t11 -28q1 -5 6 -19.5
t5 -18.5q1 -6 5.5 -10t9.5 -4.5t9.5 2t5.5 9.5zM3797 501q7 4 6 13t-9 14q-8 4 -15.5 -2.5t-6.5 -15.5q3 -9 11 -12.5t14 3.5zM4104 -5q-11 3 -21.5 8t-18.5 13q-13 8 -18 26q-4 11 -7 35t-5 53.5t-3.5 62.5t-2.5 63t-2 54t-2 37q-1 55 3.5 110t9.5 109q-15 -1 -29.5 -2.5
t-29.5 1.5q-14 1 -26.5 8.5t-19.5 21.5q-6 11 -8.5 25.5t-1 29t6.5 27.5t13 22q13 14 30 20t36 9q27 6 53.5 8.5t54.5 2.5q11 0 42 0.5t66 0t66 -1.5t43 -2q9 -1 19.5 -2.5t18.5 -5.5q16 -8 27 -29q5 -10 7 -24.5t1 -29.5t-5 -29t-10 -22q-9 -13 -25.5 -17.5t-30.5 -6.5
q-6 0 -21 1t-31.5 2.5t-31.5 3t-20 2.5q-5 -27 -11 -52.5t-9 -52.5q-8 -59 -8.5 -117.5t1.5 -117.5q0 -14 2.5 -44t4 -63t1 -62.5t-6.5 -41.5q-5 -12 -17 -20t-26 -11.5t-29.5 -4t-28.5 2.5zM4342 712q-5 3 -11.5 3.5t-11.5 1.5q-13 4 -25.5 4.5t-24.5 0.5q-8 0 -12 -4.5
t-4 -10.5t4 -10.5t12 -4.5q11 0 21.5 -0.5t21.5 -3.5q1 -1 8.5 -2t9.5 -1q6 -3 11.5 -0.5t7.5 7.5t1 11t-8 9zM4379 664q5 6 5.5 11.5t-2.5 9.5t-8.5 5t-12.5 -2t-6.5 -9t4.5 -11t10 -7t10 3zM4459 506q-7 3 -13 6t-11 9q-6 7 -10 17.5t-6 22.5t-2 23t3 19q2 3 4 7t7 6
q3 3 11 7t17.5 7t18 5.5t12.5 3.5q15 4 28.5 8.5t27.5 9.5q11 4 26 3.5t26 -6.5q14 -11 21.5 -28.5t8.5 -34.5q2 -11 0 -23.5t-9 -21.5q-8 -10 -21.5 -16t-25.5 -8q-7 -2 -23 -5t-33.5 -6t-33.5 -4.5t-23 -0.5zM4572 43q-26 3 -52.5 9.5t-51.5 15.5q-9 3 -19.5 9t-14.5 17
q-7 11 -6 26.5t6 29.5q3 12 10.5 23t17.5 15q5 2 15 2t21 -0.5t21 -2t15 -2.5q3 -1 12 -1.5t19 -1t18.5 -1t11.5 -1.5q11 -4 22.5 -10.5t16.5 -15.5q9 -17 7.5 -37.5t-9.5 -37.5q-7 -19 -23 -26q-16 -10 -37 -10zM4483 290q-11 5 -21 19q-4 7 -5.5 18.5t-1.5 23.5t2 23t7 18
q1 3 4.5 5.5t6.5 5.5q4 3 13 4.5t19 3t19.5 2.5t14.5 1q13 2 27.5 4.5t28.5 4.5q12 2 26 -2t23 -12q14 -13 18 -31t3 -35q-2 -9 -5 -19t-8 -18q-11 -13 -27 -18q-11 -3 -31 -4.5t-42 -1.5t-41.5 2t-29.5 6z" />
    <glyph glyph-name=".notdef" horiz-adv-x="250" 
 />
    <glyph glyph-name=".null" 
 />
    <glyph glyph-name="nonmarkingreturn" unicode="&#xd;" horiz-adv-x="250" 
 />
    <glyph glyph-name="controlLF" 
 />
    <glyph glyph-name="controlLF" 
 />
    <glyph glyph-name="space" unicode=" " horiz-adv-x="250" 
 />
    <glyph glyph-name="exclam" unicode="!" horiz-adv-x="244" 
d="M190 183q-6 -9 -17.5 -14t-25 -8t-27.5 -3t-24 2q-24 5 -40 19q-11 11 -16 30q-3 14 -6 50.5t-5 77.5t-3 77.5t-1 51.5q0 12 2 42.5t5.5 64.5t7.5 64.5t7 42.5q4 14 10 27.5t18 21.5t26.5 8.5t28.5 -0.5q12 0 27 -2t29 -6.5t25 -11.5t15 -18q3 -8 1.5 -16.5t-3.5 -16.5
q-1 -6 -5 -23t-8.5 -37t-8.5 -37t-5 -23q-8 -49 -9.5 -98.5t0.5 -99.5q1 -12 4 -35.5t4.5 -49t1 -48t-7.5 -32.5zM166 671q7 -5 14.5 -2.5t9.5 10.5t-5 17.5t-13 14.5q-5 4 -19.5 8t-20.5 4t-10 -3t-5.5 -8t0.5 -9.5t7 -7.5q3 -2 15 -4t15 -4q4 -3 6 -8t6 -8zM171 646
q-2 -8 3.5 -11.5t12 -3t11.5 4t3 11.5q-3 15 -14.5 14.5t-15.5 -15.5zM138 -18q-17 -1 -33 -0.5t-31 5.5q-10 2 -19.5 6.5t-16.5 12.5q-6 7 -8.5 16t-2.5 17v1q-3 25 7 45q4 9 12 15.5t17 10.5q10 3 26 5t33.5 2t33.5 -2.5t25 -7.5q13 -8 18 -20q5 -10 6.5 -23t-0.5 -25.5
t-7.5 -24t-14.5 -18.5q-10 -8 -22 -11t-23 -4z" />
    <glyph glyph-name="quotedbl" unicode="&#x22;" horiz-adv-x="414" 
d="M152 499q-9 -7 -21 -9t-23 -2q-9 0 -22 -0.5t-26 1t-24 4.5t-15 11q-2 4 -3 12t-1 17t0.5 17.5t0.5 12.5v20v32.5v32.5t-1 20q0 3 -0.5 9t-0.5 13t0.5 12.5t1.5 8.5q5 11 15 14q6 2 19.5 3.5t28.5 2.5t29 1t20 -1q9 -1 18 -3.5t16 -8.5q8 -6 12 -15.5t6 -18.5
q2 -14 2 -27v-27q0 -12 -1.5 -31t-5 -39t-9.5 -37t-16 -25zM367 495q-9 -7 -21 -9t-23 -2q-9 0 -22 -0.5t-26 0.5t-24 4.5t-15 11.5q-2 4 -3 12t-1 17t0.5 17t0.5 12v21v32v32t-1 20q-1 6 -1 22t2 22q4 10 15 14q6 2 19.5 3.5t28.5 2t29 0.5h20q9 -1 18 -4t16 -8
q8 -6 12 -15.5t6 -18.5q2 -14 2 -27v-27q0 -12 -1.5 -31.5t-5 -39.5t-9.5 -37t-16 -24zM105 683q2 0 7.5 -1t7.5 -1q7 0 11 5t4 10.5t-4 10.5t-12 5q-3 0 -9 0.5t-12.5 0.5t-12.5 -0.5t-9 -1.5q-11 -5 -8.5 -16.5t14.5 -11.5h23zM320 679q2 -1 7.5 -1.5t7.5 -0.5q7 0 11 5
t4 10.5t-4 10.5t-12 5q-3 0 -9 0.5t-12.5 0.5t-12.5 -0.5t-9 -1.5q-5 -3 -7 -7.5t-1 -9.5t4.5 -8.5t9.5 -3.5q3 0 12 0.5t11 0.5zM143 682q-4 -8 1 -15t13 -7q10 0 14 8.5t-2 16.5q-5 6 -13.5 5.5t-12.5 -8.5zM358 678q-4 -8 1 -15t13 -7q10 0 14 8.5t-2 15.5
q-5 7 -13.5 6.5t-12.5 -8.5z" />
    <glyph glyph-name="quotedbl" unicode="&#x201f;" horiz-adv-x="414" 
d="M152 499q-9 -7 -21 -9t-23 -2q-9 0 -22 -0.5t-26 1t-24 4.5t-15 11q-2 4 -3 12t-1 17t0.5 17.5t0.5 12.5v20v32.5v32.5t-1 20q0 3 -0.5 9t-0.5 13t0.5 12.5t1.5 8.5q5 11 15 14q6 2 19.5 3.5t28.5 2.5t29 1t20 -1q9 -1 18 -3.5t16 -8.5q8 -6 12 -15.5t6 -18.5
q2 -14 2 -27v-27q0 -12 -1.5 -31t-5 -39t-9.5 -37t-16 -25zM367 495q-9 -7 -21 -9t-23 -2q-9 0 -22 -0.5t-26 0.5t-24 4.5t-15 11.5q-2 4 -3 12t-1 17t0.5 17t0.5 12v21v32v32t-1 20q-1 6 -1 22t2 22q4 10 15 14q6 2 19.5 3.5t28.5 2t29 0.5h20q9 -1 18 -4t16 -8
q8 -6 12 -15.5t6 -18.5q2 -14 2 -27v-27q0 -12 -1.5 -31.5t-5 -39.5t-9.5 -37t-16 -24zM105 683q2 0 7.5 -1t7.5 -1q7 0 11 5t4 10.5t-4 10.5t-12 5q-3 0 -9 0.5t-12.5 0.5t-12.5 -0.5t-9 -1.5q-11 -5 -8.5 -16.5t14.5 -11.5h23zM320 679q2 -1 7.5 -1.5t7.5 -0.5q7 0 11 5
t4 10.5t-4 10.5t-12 5q-3 0 -9 0.5t-12.5 0.5t-12.5 -0.5t-9 -1.5q-5 -3 -7 -7.5t-1 -9.5t4.5 -8.5t9.5 -3.5q3 0 12 0.5t11 0.5zM143 682q-4 -8 1 -15t13 -7q10 0 14 8.5t-2 16.5q-5 6 -13.5 5.5t-12.5 -8.5zM358 678q-4 -8 1 -15t13 -7q10 0 14 8.5t-2 15.5
q-5 7 -13.5 6.5t-12.5 -8.5z" />
    <glyph glyph-name="quotedbl" unicode="&#x201e;" horiz-adv-x="414" 
d="M152 499q-9 -7 -21 -9t-23 -2q-9 0 -22 -0.5t-26 1t-24 4.5t-15 11q-2 4 -3 12t-1 17t0.5 17.5t0.5 12.5v20v32.5v32.5t-1 20q0 3 -0.5 9t-0.5 13t0.5 12.5t1.5 8.5q5 11 15 14q6 2 19.5 3.5t28.5 2.5t29 1t20 -1q9 -1 18 -3.5t16 -8.5q8 -6 12 -15.5t6 -18.5
q2 -14 2 -27v-27q0 -12 -1.5 -31t-5 -39t-9.5 -37t-16 -25zM367 495q-9 -7 -21 -9t-23 -2q-9 0 -22 -0.5t-26 0.5t-24 4.5t-15 11.5q-2 4 -3 12t-1 17t0.5 17t0.5 12v21v32v32t-1 20q-1 6 -1 22t2 22q4 10 15 14q6 2 19.5 3.5t28.5 2t29 0.5h20q9 -1 18 -4t16 -8
q8 -6 12 -15.5t6 -18.5q2 -14 2 -27v-27q0 -12 -1.5 -31.5t-5 -39.5t-9.5 -37t-16 -24zM105 683q2 0 7.5 -1t7.5 -1q7 0 11 5t4 10.5t-4 10.5t-12 5q-3 0 -9 0.5t-12.5 0.5t-12.5 -0.5t-9 -1.5q-11 -5 -8.5 -16.5t14.5 -11.5h23zM320 679q2 -1 7.5 -1.5t7.5 -0.5q7 0 11 5
t4 10.5t-4 10.5t-12 5q-3 0 -9 0.5t-12.5 0.5t-12.5 -0.5t-9 -1.5q-5 -3 -7 -7.5t-1 -9.5t4.5 -8.5t9.5 -3.5q3 0 12 0.5t11 0.5zM143 682q-4 -8 1 -15t13 -7q10 0 14 8.5t-2 16.5q-5 6 -13.5 5.5t-12.5 -8.5zM358 678q-4 -8 1 -15t13 -7q10 0 14 8.5t-2 15.5
q-5 7 -13.5 6.5t-12.5 -8.5z" />
    <glyph glyph-name="quotedbl" unicode="&#xbb;" horiz-adv-x="414" 
d="M152 499q-9 -7 -21 -9t-23 -2q-9 0 -22 -0.5t-26 1t-24 4.5t-15 11q-2 4 -3 12t-1 17t0.5 17.5t0.5 12.5v20v32.5v32.5t-1 20q0 3 -0.5 9t-0.5 13t0.5 12.5t1.5 8.5q5 11 15 14q6 2 19.5 3.5t28.5 2.5t29 1t20 -1q9 -1 18 -3.5t16 -8.5q8 -6 12 -15.5t6 -18.5
q2 -14 2 -27v-27q0 -12 -1.5 -31t-5 -39t-9.5 -37t-16 -25zM367 495q-9 -7 -21 -9t-23 -2q-9 0 -22 -0.5t-26 0.5t-24 4.5t-15 11.5q-2 4 -3 12t-1 17t0.5 17t0.5 12v21v32v32t-1 20q-1 6 -1 22t2 22q4 10 15 14q6 2 19.5 3.5t28.5 2t29 0.5h20q9 -1 18 -4t16 -8
q8 -6 12 -15.5t6 -18.5q2 -14 2 -27v-27q0 -12 -1.5 -31.5t-5 -39.5t-9.5 -37t-16 -24zM105 683q2 0 7.5 -1t7.5 -1q7 0 11 5t4 10.5t-4 10.5t-12 5q-3 0 -9 0.5t-12.5 0.5t-12.5 -0.5t-9 -1.5q-11 -5 -8.5 -16.5t14.5 -11.5h23zM320 679q2 -1 7.5 -1.5t7.5 -0.5q7 0 11 5
t4 10.5t-4 10.5t-12 5q-3 0 -9 0.5t-12.5 0.5t-12.5 -0.5t-9 -1.5q-5 -3 -7 -7.5t-1 -9.5t4.5 -8.5t9.5 -3.5q3 0 12 0.5t11 0.5zM143 682q-4 -8 1 -15t13 -7q10 0 14 8.5t-2 16.5q-5 6 -13.5 5.5t-12.5 -8.5zM358 678q-4 -8 1 -15t13 -7q10 0 14 8.5t-2 15.5
q-5 7 -13.5 6.5t-12.5 -8.5z" />
    <glyph glyph-name="quotedbl" unicode="&#xab;" horiz-adv-x="414" 
d="M152 499q-9 -7 -21 -9t-23 -2q-9 0 -22 -0.5t-26 1t-24 4.5t-15 11q-2 4 -3 12t-1 17t0.5 17.5t0.5 12.5v20v32.5v32.5t-1 20q0 3 -0.5 9t-0.5 13t0.5 12.5t1.5 8.5q5 11 15 14q6 2 19.5 3.5t28.5 2.5t29 1t20 -1q9 -1 18 -3.5t16 -8.5q8 -6 12 -15.5t6 -18.5
q2 -14 2 -27v-27q0 -12 -1.5 -31t-5 -39t-9.5 -37t-16 -25zM367 495q-9 -7 -21 -9t-23 -2q-9 0 -22 -0.5t-26 0.5t-24 4.5t-15 11.5q-2 4 -3 12t-1 17t0.5 17t0.5 12v21v32v32t-1 20q-1 6 -1 22t2 22q4 10 15 14q6 2 19.5 3.5t28.5 2t29 0.5h20q9 -1 18 -4t16 -8
q8 -6 12 -15.5t6 -18.5q2 -14 2 -27v-27q0 -12 -1.5 -31.5t-5 -39.5t-9.5 -37t-16 -24zM105 683q2 0 7.5 -1t7.5 -1q7 0 11 5t4 10.5t-4 10.5t-12 5q-3 0 -9 0.5t-12.5 0.5t-12.5 -0.5t-9 -1.5q-11 -5 -8.5 -16.5t14.5 -11.5h23zM320 679q2 -1 7.5 -1.5t7.5 -0.5q7 0 11 5
t4 10.5t-4 10.5t-12 5q-3 0 -9 0.5t-12.5 0.5t-12.5 -0.5t-9 -1.5q-5 -3 -7 -7.5t-1 -9.5t4.5 -8.5t9.5 -3.5q3 0 12 0.5t11 0.5zM143 682q-4 -8 1 -15t13 -7q10 0 14 8.5t-2 16.5q-5 6 -13.5 5.5t-12.5 -8.5zM358 678q-4 -8 1 -15t13 -7q10 0 14 8.5t-2 15.5
q-5 7 -13.5 6.5t-12.5 -8.5z" />
    <glyph glyph-name="numbersign" unicode="#" horiz-adv-x="880" 
d="M234 -14q-15 -3 -34 -0.5t-36.5 8.5t-31.5 16.5t-21 24.5q-5 10 -6.5 22t0 24t4 24t4.5 23q-16 -1 -31.5 -0.5t-30.5 2.5q-14 2 -23 7q-20 12 -29 34q-9 20 -9 43.5t11 41.5q8 12 22 19.5t28 10.5q5 1 20 3t31.5 3.5t31 3t20.5 1.5l18 75q-16 -1 -32 -1t-31 4
q-11 4 -20.5 12t-16.5 19q-12 20 -13.5 47t11.5 47q7 11 18 17.5t23 10.5q6 1 23 3.5t36.5 4.5t36.5 3.5t23 2.5q3 6 10.5 24.5t16.5 39t17 39t11 24.5q9 16 20.5 31t27.5 24q12 7 30.5 6.5t38 -5t38 -12.5t30.5 -15q9 -5 16.5 -12t12.5 -16q8 -11 6 -25q0 -6 -5.5 -19
t-12.5 -27t-13.5 -26t-9.5 -18q50 2 100 0q14 27 27 53.5t27 52.5q8 14 18 27t23 24q8 6 16.5 10.5t18.5 6.5q14 2 28 -2t28 -9q17 -6 32 -13t29 -17q9 -7 17 -15t12 -18q8 -19 -2 -37q-2 -4 -8.5 -15.5t-14 -24t-14.5 -23.5t-10 -15q17 -4 34.5 -9.5t28.5 -18.5
q8 -9 12 -24t5 -32t-1.5 -33.5t-6.5 -27.5q-6 -17 -20 -28q-7 -5 -14.5 -6.5t-15.5 -2.5q-6 0 -22.5 2t-35 4.5t-35.5 4.5t-23 3q-8 -17 -14.5 -34.5t-13.5 -35.5l42 -4t41 -10q11 -4 21.5 -10t16.5 -16q5 -8 7.5 -22t3.5 -29.5t-0.5 -30t-4.5 -23.5q-4 -13 -13 -24t-22 -16
q-9 -3 -29.5 -2t-43 4t-43 6.5t-30.5 5.5q-6 -21 -12.5 -41.5t-14.5 -40.5q-6 -14 -14 -28t-22 -20q-25 -11 -54.5 -6.5t-53.5 18.5q-12 7 -22.5 16.5t-15.5 22.5q-9 22 -3 46.5t13 47.5q-26 0 -50.5 -0.5t-49.5 -1.5q-2 -11 -6.5 -31.5t-10.5 -42.5t-13.5 -41t-15.5 -27
q-14 -13 -36 -16zM433 662q6 -5 12.5 -4t10 5.5t3.5 10.5t-6 11q-11 8 -23 14.5t-26 9.5l-16 4t-15 -2q-6 -3 -7.5 -8.5t0 -10t6.5 -8t11 -1.5q4 1 12.5 -1.5t12.5 -4.5q7 -2 13 -6t12 -9zM452 625q7 -8 17 -4.5t10 14.5q0 12 -12 15q-11 2 -16.5 -7t1.5 -18zM383 388
q-7 -20 -13.5 -39.5t-12.5 -39.5q55 4 111 3q1 3 5 14.5t8 24t8 24t5 15.5q-28 0 -55.5 -0.5t-55.5 -1.5z" />
    <glyph glyph-name="dollar" unicode="$" horiz-adv-x="517" 
d="M281 -32q-13 -1 -32.5 0.5t-26.5 12.5q-2 3 -2.5 10t-0.5 15t1 15t1 11q-33 1 -66 3.5t-65 10.5q-13 3 -25 6.5t-23 10.5q-19 14 -24 39q-5 21 -0.5 43.5t16.5 39.5q5 7 13.5 11t16.5 6q16 4 32 3t32 -3q31 -5 60 -14t60 -11q16 -1 33 2t30.5 10t21.5 18.5t5 28.5
q-2 11 -10 20.5t-17 16.5q-12 8 -26 13.5t-28 9.5q-17 5 -34.5 11.5t-34.5 12.5q-23 9 -46 19t-45 23q-15 10 -28.5 21.5t-24.5 25.5q-18 25 -24 58q-5 28 0 56.5t19 53.5q11 20 27.5 36t36.5 28q27 16 57 24.5t61 12.5l-4 24t0 24q0 13 9 21q8 7 18.5 7.5t20.5 1.5t20 1
t19 -3q8 -3 11.5 -12t4.5 -19.5t0 -22t-1 -20.5q12 0 35 -2.5t48 -6.5t46.5 -10t30.5 -14t14 -19.5t7 -23.5t0.5 -26t-6.5 -27t-13 -23t-19 -14q-14 -5 -28 -5.5t-28 1.5q-21 3 -42 7.5t-41 9.5q-27 7 -57 9.5t-55 -9.5q-20 -10 -29 -30t5 -38q4 -6 15.5 -11.5t24.5 -10
t26 -8.5t20 -6q48 -14 94 -38t84 -56q17 -14 28 -34t16 -41q9 -39 -0.5 -77t-36.5 -68q-26 -29 -63.5 -46t-75.5 -24q2 -12 3.5 -24t-1.5 -23q-4 -13 -12 -17q-6 -4 -13.5 -5t-14.5 -2zM385 636q4 -1 15.5 -4.5t16.5 -2.5q11 2 12.5 11.5t-9.5 14.5q-4 2 -13.5 4t-20.5 4
t-21 3t-14 1q-7 0 -11 -3.5t-5 -8t1.5 -9t9.5 -5.5q10 -2 19.5 -2.5t19.5 -2.5zM441 620q-1 -7 5.5 -10t13.5 -2q9 2 10.5 10.5t-6.5 13.5q-6 5 -13.5 0.5t-9.5 -12.5z" />
    <glyph glyph-name="percent" unicode="%" horiz-adv-x="800" 
d="M249 406q-31 -25 -67.5 -30.5t-70.5 4.5t-62.5 35t-43.5 62q-8 20 -12 41t-3 42q1 32 13.5 64.5t35.5 55.5q25 26 61 41t71 10q41 -6 72 -28.5t49.5 -55t23.5 -71.5t-6 -79q-8 -27 -24 -50.5t-37 -40.5zM321 7q-11 -8 -24.5 -9.5t-27.5 0.5q-19 3 -38 11t-33.5 20.5
t-23 28.5t-6.5 36q1 13 9.5 37t21 53.5t27 61.5t28.5 61t25.5 52.5t17.5 35.5q15 32 32 63t36 62q5 9 20 32t32 49t32.5 48.5t22.5 30.5q11 14 24 26t30 18q14 5 33 2q14 -3 27 -9t25 -13q14 -8 28 -18t25 -23q8 -8 13 -18t5 -21q1 -8 -2 -16.5t-8 -15.5t-21.5 -28t-36 -45
t-36.5 -45t-22 -28q-34 -47 -62 -97t-53 -102q-8 -14 -15 -29t-13 -30q-6 -14 -16.5 -40.5t-23.5 -55t-26.5 -52.5t-25.5 -33zM591 643q5 -4 10.5 -3.5t9.5 4.5t4.5 9.5t-3.5 11.5q-6 7 -17.5 13.5t-24.5 10t-26 5t-22 -0.5q-8 -2 -10.5 -7.5t-1.5 -11t5.5 -9.5t12.5 -2
q9 2 19 0.5t19 -4.5q8 -2 13.5 -6.5t11.5 -9.5zM615 618q0 -9 6.5 -13.5t14.5 -0.5t9 12.5t-6 13.5q-8 6 -16 1.5t-8 -13.5zM125 567q-8 -25 0.5 -42t22.5 -23t29 1.5t20 33.5q4 19 -3.5 37t-26.5 22q-14 2 -25.5 -7t-16.5 -22zM740 31q-31 -24 -67.5 -30t-70.5 4.5t-62 35
t-43 61.5q-17 39 -15 83q1 32 13.5 64.5t35.5 56.5q25 26 61 40.5t71 9.5q41 -6 72 -28.5t49.5 -55t23.5 -71.5t-6 -79q-8 -26 -24 -50t-38 -41zM617 192q-8 -24 0.5 -41.5t22.5 -23.5t29 1.5t20 33.5q4 19 -3.5 37t-26.5 22q-14 2 -25.5 -7t-16.5 -22z" />
    <glyph glyph-name="ampersand" unicode="&#x26;" horiz-adv-x="602" 
d="M323 6q-27 -8 -55 -9t-56 1q-38 2 -76.5 13t-69.5 34q-23 17 -39 42t-23 53q-11 42 -3 87t28 83q11 20 25 37t31 33l28 26t30 24q-14 29 -24 60.5t-14 63.5q-2 24 1 49t14 47q8 17 22 31.5t31 25.5q35 22 71 31q37 8 76.5 5.5t73.5 -18.5q29 -14 53.5 -38t33.5 -54
q13 -40 4.5 -84t-31.5 -78q-18 -28 -41.5 -52t-49.5 -44q-2 -2 -9.5 -8.5t-9.5 -8.5q27 -47 64 -83q14 19 23.5 41t23.5 41q20 25 51.5 24.5t57.5 -19.5q12 -9 21.5 -23t8.5 -29q-1 -11 -5 -21t-9 -20q-11 -23 -27 -44t-35 -40q16 -6 31.5 -12t29.5 -15q8 -5 14.5 -12
t9.5 -16q4 -11 1.5 -24t-9 -26t-15.5 -24.5t-18 -18.5q-14 -11 -31.5 -15.5t-34.5 -2.5q-24 4 -46 16t-42 26q-17 -20 -39 -33.5t-46 -21.5zM394 657q6 -5 12.5 -4t10.5 5.5t4 10.5t-6 11l-10 10t-11 9q-3 2 -14 8.5t-13 8.5q-6 3 -21.5 8t-22.5 5h-15q-8 0 -11.5 -5
t-3.5 -10t3.5 -10t11.5 -5q2 0 7 0.5t7 -0.5q3 -1 14 -4t14 -5q3 -1 8 -4t11 -7t11 -8t7 -6t3.5 -4t3.5 -4zM419 640q-4 -8 2 -15.5t15 -5.5q8 2 11.5 10t-2.5 15q-5 7 -13.5 5.5t-12.5 -9.5zM252 579q-6 -24 2 -50t21 -48q12 11 25 21.5t24 22.5q7 8 12 17t7 19q3 19 -6 35
t-27 19q-19 3 -36 -7t-22 -29zM209 150q10 -3 21 -2t21 3q12 3 23.5 9t21.5 14q-19 20 -35.5 42t-30.5 47q-24 -14 -37 -38q-6 -10 -8.5 -21.5t-0.5 -22t8 -19t17 -12.5z" />
    <glyph glyph-name="quotesingle" unicode="'" horiz-adv-x="200" 
d="M153 512q-11 -9 -26 -10.5t-29 -1.5h-19.5t-22.5 1.5t-20.5 5t-13.5 10.5q-2 4 -3 12t-1 17.5t0.5 18t0.5 12.5v20v31.5v31.5t-1 20l-2 22t3 21q2 6 7 10t10 6q10 3 27 4.5t35.5 1.5t35 -2t25.5 -7q10 -7 16 -17q5 -9 7 -19t3 -21q1 -16 0.5 -40.5t-3.5 -49.5t-9.5 -46
t-19.5 -31zM106 695q2 0 7.5 -0.5t7.5 -0.5q7 0 10.5 4t4 9.5t-2.5 10t-9 6.5q-2 1 -5 0.5t-5 -0.5q-5 1 -18 1.5t-18 -1.5q-11 -5 -9 -17t15 -12q2 0 11 0.5t11 -0.5zM144 695q-4 -8 1 -15t13 -7q10 0 14 8t-2 16q-5 7 -13.5 6.5t-12.5 -8.5z" />
    <glyph glyph-name="quotesingle" unicode="&#x203a;" horiz-adv-x="200" 
d="M153 512q-11 -9 -26 -10.5t-29 -1.5h-19.5t-22.5 1.5t-20.5 5t-13.5 10.5q-2 4 -3 12t-1 17.5t0.5 18t0.5 12.5v20v31.5v31.5t-1 20l-2 22t3 21q2 6 7 10t10 6q10 3 27 4.5t35.5 1.5t35 -2t25.5 -7q10 -7 16 -17q5 -9 7 -19t3 -21q1 -16 0.5 -40.5t-3.5 -49.5t-9.5 -46
t-19.5 -31zM106 695q2 0 7.5 -0.5t7.5 -0.5q7 0 10.5 4t4 9.5t-2.5 10t-9 6.5q-2 1 -5 0.5t-5 -0.5q-5 1 -18 1.5t-18 -1.5q-11 -5 -9 -17t15 -12q2 0 11 0.5t11 -0.5zM144 695q-4 -8 1 -15t13 -7q10 0 14 8t-2 16q-5 7 -13.5 6.5t-12.5 -8.5z" />
    <glyph glyph-name="quotesingle" unicode="&#x2039;" horiz-adv-x="200" 
d="M153 512q-11 -9 -26 -10.5t-29 -1.5h-19.5t-22.5 1.5t-20.5 5t-13.5 10.5q-2 4 -3 12t-1 17.5t0.5 18t0.5 12.5v20v31.5v31.5t-1 20l-2 22t3 21q2 6 7 10t10 6q10 3 27 4.5t35.5 1.5t35 -2t25.5 -7q10 -7 16 -17q5 -9 7 -19t3 -21q1 -16 0.5 -40.5t-3.5 -49.5t-9.5 -46
t-19.5 -31zM106 695q2 0 7.5 -0.5t7.5 -0.5q7 0 10.5 4t4 9.5t-2.5 10t-9 6.5q-2 1 -5 0.5t-5 -0.5q-5 1 -18 1.5t-18 -1.5q-11 -5 -9 -17t15 -12q2 0 11 0.5t11 -0.5zM144 695q-4 -8 1 -15t13 -7q10 0 14 8t-2 16q-5 7 -13.5 6.5t-12.5 -8.5z" />
    <glyph glyph-name="quotesingle" unicode="&#x201b;" horiz-adv-x="200" 
d="M153 512q-11 -9 -26 -10.5t-29 -1.5h-19.5t-22.5 1.5t-20.5 5t-13.5 10.5q-2 4 -3 12t-1 17.5t0.5 18t0.5 12.5v20v31.5v31.5t-1 20l-2 22t3 21q2 6 7 10t10 6q10 3 27 4.5t35.5 1.5t35 -2t25.5 -7q10 -7 16 -17q5 -9 7 -19t3 -21q1 -16 0.5 -40.5t-3.5 -49.5t-9.5 -46
t-19.5 -31zM106 695q2 0 7.5 -0.5t7.5 -0.5q7 0 10.5 4t4 9.5t-2.5 10t-9 6.5q-2 1 -5 0.5t-5 -0.5q-5 1 -18 1.5t-18 -1.5q-11 -5 -9 -17t15 -12q2 0 11 0.5t11 -0.5zM144 695q-4 -8 1 -15t13 -7q10 0 14 8t-2 16q-5 7 -13.5 6.5t-12.5 -8.5z" />
    <glyph glyph-name="quotesingle" unicode="&#x201a;" horiz-adv-x="200" 
d="M153 512q-11 -9 -26 -10.5t-29 -1.5h-19.5t-22.5 1.5t-20.5 5t-13.5 10.5q-2 4 -3 12t-1 17.5t0.5 18t0.5 12.5v20v31.5v31.5t-1 20l-2 22t3 21q2 6 7 10t10 6q10 3 27 4.5t35.5 1.5t35 -2t25.5 -7q10 -7 16 -17q5 -9 7 -19t3 -21q1 -16 0.5 -40.5t-3.5 -49.5t-9.5 -46
t-19.5 -31zM106 695q2 0 7.5 -0.5t7.5 -0.5q7 0 10.5 4t4 9.5t-2.5 10t-9 6.5q-2 1 -5 0.5t-5 -0.5q-5 1 -18 1.5t-18 -1.5q-11 -5 -9 -17t15 -12q2 0 11 0.5t11 -0.5zM144 695q-4 -8 1 -15t13 -7q10 0 14 8t-2 16q-5 7 -13.5 6.5t-12.5 -8.5z" />
    <glyph glyph-name="parenleft" unicode="(" horiz-adv-x="435" 
d="M342 -1q-37 -7 -74.5 0t-72.5 17q-32 9 -59.5 29.5t-47.5 46.5q-32 39 -48 88.5t-22 99.5q-7 59 -0.5 118.5t26.5 115.5q15 43 39 82.5t57 71.5q29 28 65 46.5t75 26.5q10 1 28 3t36.5 3t35.5 -0.5t25 -7.5q9 -6 14.5 -18t7.5 -26t1.5 -28.5t-2.5 -25.5q-3 -15 -10.5 -30
t-20.5 -23q-18 -11 -40.5 -12t-43.5 -7q-26 -8 -50.5 -25.5t-35.5 -42.5q-9 -21 -13 -43t-6 -45q-3 -30 -3.5 -60.5t3.5 -60.5q2 -20 6 -38.5t12 -35.5q16 -32 48 -41q23 -8 47 -7.5t47 -1.5q11 -1 21 -3.5t18 -8.5q11 -8 14.5 -22.5t3.5 -28.5q0 -20 -5 -40.5t-19 -36.5
q-10 -12 -25.5 -19t-31.5 -10zM234 693q-4 -5 -3.5 -10.5t4.5 -9t9.5 -4.5t11.5 4q10 8 22 11t23 8q6 3 12.5 2t12.5 1q11 2 12 12.5t-9 15.5q-6 3 -19 1.5t-19 -3.5q-5 -2 -19.5 -7t-18.5 -7q-2 -2 -9.5 -7t-9.5 -7zM352 703q2 -8 9.5 -10.5t14.5 2.5t6 13t-9 12
q-8 5 -15.5 -1t-5.5 -16z" />
    <glyph glyph-name="parenright" unicode=")" horiz-adv-x="436" 
d="M242 16q-29 -8 -59.5 -14.5t-62.5 -5.5q-20 1 -40 6t-35 18q-17 14 -24 36.5t-8 44.5q-1 12 1 24.5t10 22.5q6 8 15 12t18 6q29 5 58 3.5t55 9.5q22 9 36 28q14 22 19 47.5t7 51.5q2 29 1.5 56.5t-3.5 55.5q-3 21 -7 41.5t-12 40.5q-11 25 -34.5 42.5t-49.5 25.5
q-22 7 -45.5 7.5t-41.5 13.5q-14 9 -21 24.5t-9 31.5q-3 15 -3 31t3.5 30t11.5 24.5t22 13.5t27 3.5t27 -0.5q26 -2 52 -6t51 -12q50 -19 89 -55q33 -30 57 -68.5t41 -80.5q20 -54 28 -113t3 -117q-5 -53 -20.5 -105.5t-47.5 -94.5q-20 -26 -48.5 -47.5t-60.5 -31.5z
M180 673q6 -5 12 -4t9.5 5.5t3.5 10.5t-6 11q-3 2 -12 7.5t-13 7.5q-5 2 -14.5 5t-19 5.5t-19 3.5t-14.5 -2q-10 -5 -9 -15.5t12 -12.5q6 -2 12.5 -1t12.5 -2q11 -5 23 -8t22 -11zM56 700q4 -8 13.5 -8.5t13.5 8.5q3 7 0 13t-10 8q-9 2 -15.5 -5t-1.5 -16z" />
    <glyph glyph-name="asterisk" unicode="*" horiz-adv-x="271" 
d="M191 451q-4 -2 -12 0q-8 3 -15.5 13t-14.5 22t-13 24t-10 19q-2 -3 -7.5 -12t-12 -18.5t-12 -18.5t-7.5 -12q-3 -5 -6.5 -9t-8.5 -7q-6 -3 -13 -1t-14.5 6.5t-14 10.5t-11.5 11t-4.5 12.5t4.5 12.5q2 3 10.5 13.5t18 22.5t17.5 22.5t11 13.5q-10 4 -19 7.5t-18 6.5
q-6 2 -13 4.5t-10 7.5q-4 6 -3.5 14.5t4.5 16.5t10 13.5t13 7.5q14 3 28 -3l28 -12q-1 5 -2.5 16t-2.5 23t-1 23t2 16t7 8t10 4q6 1 14.5 1.5t17.5 -1t16.5 -4t11.5 -7.5q5 -6 5.5 -16.5t-1 -23t-4 -24t-3.5 -18.5q3 2 11.5 5.5t18 7t18 6.5t12.5 3q7 0 12 -3
q7 -4 13.5 -16.5t8.5 -20.5q2 -12 -9 -20q-3 -3 -12.5 -7.5t-20 -9t-20 -8.5t-13.5 -5q3 -4 10 -13t14.5 -19.5t13.5 -20.5t8 -15q3 -9 -2 -18q-2 -4 -6.5 -9t-10 -9.5t-11.5 -8t-10 -4.5z" />
    <glyph glyph-name="plus" unicode="+" horiz-adv-x="396" 
d="M265 127q-7 -8 -19 -11t-26 -3.5t-27.5 1t-23.5 4.5q-19 5 -27 21q-2 4 -3 13.5t-1.5 20t-0.5 20v13.5q-16 1 -31.5 1t-30.5 2q-11 1 -21.5 3.5t-18.5 9.5q-11 7 -15 17q-7 13 -9 30t0.5 33.5t9.5 31.5t19 24q10 8 22.5 10.5t25.5 3.5h24.5t25.5 -1q-1 13 -1.5 25t1.5 25
q1 8 3.5 16.5t7.5 15.5q9 11 24.5 14.5t29.5 4.5q13 0 26 -1t24 -8q7 -4 12 -11t7 -15q4 -13 4.5 -26t0.5 -26q-1 -3 -0.5 -6.5t-1.5 -6.5q20 0 41.5 -1t39.5 -10q11 -6 17.5 -17.5t9.5 -25.5t2.5 -29t-3.5 -27q-2 -10 -6 -19.5t-12 -16.5q-17 -15 -40.5 -18.5t-46.5 -3.5
q1 -13 0.5 -26t-2.5 -26q-2 -15 -10 -25zM225 350q-6 -2 -9 -6.5t-2 -9.5t4.5 -9.5t10.5 -4.5q2 0 14 1t14 1q3 0 8 -0.5t11 -0.5t11.5 0.5t7.5 1.5q9 5 9 14t-9 14q-2 1 -10 1h-11h-10t-14.5 -0.5t-14.5 -1t-10 -0.5zM321 332q0 -10 8 -14t16 2q7 5 6 13.5t-9 12.5
q-8 3 -14.5 -1.5t-6.5 -12.5z" />
    <glyph glyph-name="comma" unicode="," horiz-adv-x="216" 
d="M97 -105q-8 -3 -14 2t-2 13q2 3 6 5t7 4q8 6 13.5 15.5t8.5 20.5q7 21 9 45q-23 -1 -46 1t-41 16q-11 8 -16.5 21t-7.5 26q-2 15 -1.5 30t4.5 29q2 10 6 19t11 17q9 9 21.5 14t25.5 7q7 1 20.5 1.5t28 -0.5t27.5 -3t19 -6q11 -6 16.5 -18t7.5 -24q3 -14 3.5 -27.5
t-1.5 -27.5q0 -6 -1.5 -12t-1.5 -12q-3 -24 -9 -48t-17 -46q-13 -27 -41 -43q-2 -1 -7 -4t-10.5 -6t-10.5 -5.5zM131 135q7 -3 12.5 -0.5t8 7.5t1 11.5t-8.5 9.5q-6 3 -23 4.5t-24 -0.5q-7 -1 -10.5 -5.5t-3.5 -10t4 -10t11 -4.5q8 0 16.5 1t16.5 -3zM157 119q2 -8 8 -9
t12 2t8.5 8.5t-1.5 11.5q-10 11 -20 6t-7 -19z" />
    <glyph glyph-name="hyphen" unicode="-" horiz-adv-x="399" 
d="M323 350q-9 -2 -32 -2.5t-48.5 -0.5t-48.5 1t-32 1h-42.5t-42.5 2q-11 2 -21.5 4.5t-18.5 8.5q-11 9 -15 18q-7 13 -9 29.5t0.5 33t9.5 31.5t19 24q15 11 33 13q28 3 56 1.5t56 -0.5q27 0 54 0.5t53 0.5q17 -1 35 -2.5t32 -10.5q9 -5 15 -14.5t8 -19.5q3 -16 3.5 -32
t-3.5 -31q-2 -10 -6 -19.5t-12 -16.5q-9 -8 -20.5 -12.5t-22.5 -6.5zM224 464q5 -2 17 -0.5t17 1.5q3 0 8.5 -0.5t11.5 -0.5t11.5 0.5t7.5 1.5q9 4 9 13.5t-9 13.5q-2 2 -10 2h-11h-10t-14.5 -0.5t-14.5 -1t-10 -1.5q-11 -2 -12 -12.5t9 -15.5zM323 475q0 -10 8 -14t16 2
q7 5 6 13t-9 12t-14.5 -0.5t-6.5 -12.5z" />
    <glyph glyph-name="period" unicode="." horiz-adv-x="216" 
d="M180 21q-9 -9 -25.5 -14.5t-34.5 -7t-35.5 0.5t-29.5 7q-11 5 -21 14t-15 21q-4 12 -5.5 28t0.5 33t7 32t13 24t21 14t26 7q7 1 20.5 1.5t28 -0.5t27.5 -3t19 -6q10 -6 17 -21q6 -14 8.5 -32t1.5 -36.5t-6.5 -35t-16.5 -26.5zM131 135q7 -3 12.5 -0.5t8 7.5t1 11.5
t-8.5 9.5t-23.5 4.5t-23.5 -0.5q-8 -1 -11.5 -5.5t-3 -10t4 -10t11.5 -4.5t16.5 1t16.5 -3zM157 119q1 -8 7.5 -9t12 2t8.5 8.5t-1 11.5q-10 11 -20.5 6t-6.5 -19z" />
    <glyph glyph-name="slash" unicode="/" horiz-adv-x="484" 
d="M139 7q-11 -8 -24.5 -9.5t-27.5 0.5q-19 3 -38 11t-33.5 20.5t-23 28.5t-6.5 36q1 13 9.5 37t21 53.5t27.5 61.5t28.5 61t25 52.5t17.5 35.5q15 32 32 63t36 62q6 9 20.5 32t31.5 49t32.5 48.5t22.5 30.5q11 14 24 26t30 18q8 3 17 3.5t17 -1.5q14 -3 26.5 -9t24.5 -13
q15 -8 28.5 -18t24.5 -23q8 -8 13 -18t6 -21q0 -18 -11 -32q-5 -7 -21.5 -28t-36 -45t-36 -45t-21.5 -28q-35 -47 -62.5 -97t-53.5 -102q-8 -14 -15 -29t-13 -30q-6 -14 -16.5 -40.5t-23.5 -55t-26.5 -52.5t-25.5 -33zM409 643q5 -4 10.5 -3.5t9.5 4.5t4.5 9.5t-3.5 11.5
q-6 7 -17 13.5t-24 10t-26 5t-23 -0.5q-8 -2 -10.5 -7.5t-1.5 -11t5.5 -9.5t12.5 -2q10 2 19.5 0.5t19.5 -4.5q7 -2 12.5 -6.5t11.5 -9.5zM433 618q0 -9 7 -13.5t15 -0.5q7 4 8 12.5t-5 13.5q-8 6 -16.5 1.5t-8.5 -13.5z" />
    <glyph glyph-name="zero" unicode="0" horiz-adv-x="549" 
d="M296 -12q-32 -5 -65 3t-60 25q-40 24 -69.5 63t-47.5 82q-17 40 -26 84.5t-11.5 89.5t3 89.5t19.5 86.5q16 51 43.5 98t68.5 80q26 21 59.5 34t67.5 13q31 1 61.5 -10.5t56.5 -30.5q33 -25 58 -60t42 -73q16 -41 25.5 -85t11.5 -89t-3.5 -89.5t-18.5 -86.5
q-14 -42 -34.5 -81t-49.5 -71q-26 -27 -59.5 -47t-71.5 -25zM392 624q5 -6 11 -6.5t10.5 3.5t5.5 10.5t-4 12.5q-12 15 -26 28.5t-31 24.5q-4 3 -11 6t-14.5 5.5t-14.5 3t-11 -1.5q-11 -5 -8 -17.5t16 -11.5q8 1 22 -6.5t20 -12.5q11 -8 19 -18zM412 596q-2 -8 1.5 -12.5
t9 -6t11 1t8.5 8.5q4 8 0.5 13t-9.5 6.5t-12.5 -1t-8.5 -9.5zM186 273q5 -20 13.5 -40.5t21.5 -37t29 -26.5t36 -7q10 2 18.5 6.5t16.5 10.5q12 11 21 24.5t16 28.5q13 26 18.5 54.5t6.5 57.5q2 32 -2.5 64.5t-16.5 62.5q-8 20 -19.5 38t-28.5 30q-33 22 -66 1
q-27 -17 -43 -49t-23.5 -70.5t-6.5 -77.5t9 -70z" />
    <glyph glyph-name="one" unicode="1" horiz-adv-x="350" 
d="M251 -4q-16 -5 -33.5 -4.5t-34 5.5t-29.5 15t-19 25q-5 11 -8 35t-5.5 53.5t-3.5 62t-2 62.5t-1.5 54t-0.5 37q-2 59 2 117.5t10 117.5q-19 -7 -38.5 -13t-39.5 -9q-7 -1 -14.5 -1t-15.5 2q-10 3 -16.5 12t-10.5 20.5t-5.5 23.5t-0.5 23q2 14 8 28t17 24q10 8 22.5 12
t25.5 7q40 9 80.5 18.5t81.5 5.5q19 -2 37.5 -3.5t35.5 -8.5q9 -4 17.5 -9.5t14.5 -13.5q9 -12 9 -30q0 -9 -5 -34.5t-11 -54.5t-11.5 -54.5t-6.5 -34.5q-9 -63 -10 -126t1 -126q0 -14 3 -44t5 -62t1.5 -61t-7.5 -42q-5 -11 -17 -18.5t-25 -10.5zM267 592q-2 -10 2 -15.5
t9.5 -6t11 3.5t7.5 14q0 3 0.5 11t1 17t0.5 17v11q0 15 -3 30.5t-13 26.5q-7 8 -16.5 5t-9.5 -14q0 -4 4 -12q2 -3 5 -12t3 -12v-13v-19t-0.5 -19t-1.5 -13zM264 520q5 -5 12.5 -3.5t10.5 8.5q5 9 -1 16.5t-16 5.5q-9 -2 -11.5 -11.5t5.5 -15.5z" />
    <glyph glyph-name="two" unicode="2" horiz-adv-x="517" 
d="M415 -2q-53 -6 -105.5 -4t-106.5 2q-18 0 -42.5 1t-49 5t-44.5 13t-28 24q-8 14 -10 31t-2 33q0 19 3 37t11 35q11 25 30 45.5t39 40.5q38 37 79 69t79 67q26 24 38 58.5t6 69.5q-7 35 -32.5 58t-60.5 17q-13 -3 -25 -11t-17 -21q-4 -9 -3 -19.5t5 -20.5q5 -17 14 -34
t9 -35q1 -17 -8.5 -32.5t-23.5 -24.5q-15 -9 -32.5 -13t-34 -2t-31 10t-23.5 23q-17 25 -25 58.5t-5.5 67.5t14 65t33.5 53q25 25 63 41.5t80.5 23.5t84 3t72.5 -20q37 -20 62 -54q22 -29 35 -63.5t16 -69.5q2 -33 -6.5 -65.5t-24.5 -61.5q-17 -30 -41 -56t-49 -50
q-31 -29 -60 -60.5t-52 -67.5q11 0 41.5 -0.5t64 -1t63.5 -1.5t41 -3q10 -2 19.5 -7.5t15.5 -14.5q14 -20 17 -47.5t-8 -49.5q-10 -17 -24 -25t-29.5 -11t-31.5 -5zM376 625q5 -6 11 -6t10.5 3t6 9t-3.5 12q-6 8 -12 16.5t-14 16.5q-9 8 -20 15t-22 13q-8 4 -21.5 8.5
t-20.5 0.5q-11 -5 -8.5 -16t14.5 -12q5 0 13 -4t16 -8.5t15.5 -9.5t11.5 -8q8 -6 13 -14t11 -16zM417 607q-8 0 -12 -5t-4 -10.5t3.5 -10.5t11.5 -5q7 0 11.5 5t4.5 10.5t-3.5 10.5t-11.5 5z" />
    <glyph glyph-name="three" unicode="3" horiz-adv-x="522" 
d="M321 -14q-29 -3 -57 -3.5t-57 1.5q-32 2 -65 5t-65 11q-21 5 -42 15.5t-33 29.5q-7 10 -8 24.5t2 28.5t9.5 27.5t15.5 22.5q18 19 42 21q4 0 12.5 -1t18.5 -3t18.5 -4t11.5 -3t12.5 -3t21 -4t21 -4t12.5 -2q21 -5 42.5 -7.5t43.5 -0.5q13 2 26 6t23 13q11 11 15.5 28.5
t0.5 32.5q-5 20 -20.5 36.5t-33.5 26.5q-7 4 -14.5 7t-15.5 4q-7 1 -24 2.5t-36.5 4t-37 4.5t-23.5 5q-9 4 -16 12t-10 17q-8 23 -2 48.5t23 42.5q7 6 16 10t19 4q13 0 26 -1.5t27 -1.5q22 -1 43.5 9.5t37.5 27.5q8 8 14.5 18.5t7.5 22.5t-4.5 21.5t-14.5 17t-20 12t-23 6.5
q-20 3 -40.5 2.5t-40.5 -1.5q-9 0 -27.5 -0.5t-38 0t-37 2.5t-25.5 7t-13.5 13t-8.5 17q-4 11 -4.5 25t2.5 27.5t9 25.5t15 19q11 8 23.5 12.5t25.5 6.5q20 3 39 3t39 -1q8 0 17 1.5t17 -0.5q32 5 65.5 3t65.5 -10q27 -7 53 -21.5t44 -36.5q17 -21 27 -47t14 -52
q5 -35 -4.5 -69.5t-29.5 -63.5q-11 -18 -27.5 -32t-35.5 -25q22 -6 43 -16t35 -27q24 -29 33 -62q14 -48 8 -100.5t-32 -94.5q-15 -26 -39 -46.5t-52 -32.5q-14 -7 -29 -9.5t-31 -3.5zM383 646q5 -3 10 -1.5t8 5.5t3.5 8.5t-3.5 9.5q-2 2 -8 7t-8 7q-10 7 -20 11.5t-21 8.5
q-7 2 -23.5 5t-23.5 1q-9 -2 -11.5 -11.5t5.5 -14.5q4 -3 9 -3.5t10 -0.5q13 0 25 -5t23 -10q7 -3 12.5 -8.5t12.5 -8.5zM402 624q2 -9 8 -10.5t12 1t9 8.5t0 13t-8.5 8.5t-10.5 -0.5t-8.5 -7.5t-1.5 -12.5z" />
    <glyph glyph-name="four" unicode="4" horiz-adv-x="635" 
d="M481 -1q-16 -5 -33.5 -4.5t-34 5.5t-29.5 15t-19 25q-6 14 -9.5 49t-5.5 74t-3 74.5t-2 50.5q-9 0 -38.5 -2t-63 -4t-63 -4t-38.5 -2q-17 0 -34 2t-33 8q-24 8 -39 29q-9 11 -14 25t-7 28q-1 12 0.5 49.5t4 80.5t3.5 80.5t0 49.5q-2 17 -3 34.5t4 33.5q3 11 10.5 20
t17.5 14q21 11 46 9q17 0 33.5 -3.5t30.5 -11.5q9 -6 16.5 -14.5t11.5 -19.5q6 -15 7.5 -30.5t1.5 -31.5q1 -29 -1.5 -57.5t-4.5 -57.5q-2 -22 4.5 -45t27.5 -28q29 -6 59 -5t60 0q4 84 15 170q2 22 5.5 43.5t11.5 41.5q5 11 11 20t15 14q12 8 26.5 8.5t28.5 -0.5
q18 -1 37.5 -4t35 -10.5t25.5 -20t9 -30.5q0 -9 -4.5 -33t-10 -51t-11 -50.5t-6.5 -32.5q-3 -17 -4.5 -34t-3.5 -34h19h28t28 -1t18 -3q14 -5 20 -17q5 -9 7 -22.5t1 -27.5t-4 -27.5t-8 -21.5q-10 -16 -27 -23q-20 -8 -42.5 -6.5t-43.5 3.5v-36.5t2 -36.5q1 -13 3.5 -39
t4 -54.5t0.5 -54t-7 -37.5q-6 -11 -17.5 -18.5t-24.5 -10.5zM503 591q-2 -7 1.5 -11.5t9 -6t11 1t7.5 9.5q2 5 3.5 21t2.5 21q2 16 1 32t-6 31q-4 11 -15.5 10t-13.5 -12q-1 -4 2 -16.5t3 -17.5q1 -15 -1 -31t-5 -31zM503 524q11 -2 17 7t-1 18q-6 8 -15.5 5.5t-11.5 -12.5
q-2 -6 1.5 -11t9.5 -7z" />
    <glyph glyph-name="five" unicode="5" horiz-adv-x="570" 
d="M388 8q-70 -25 -146.5 -17.5t-140.5 45.5q-44 26 -72 71q-10 16 -15.5 34.5t-2.5 36.5q4 32 32.5 49.5t60.5 15.5q13 -1 25.5 -6t21.5 -15q1 -2 5 -7.5t7.5 -11.5t7 -11.5t4.5 -7.5q9 -14 19 -26t24 -20t30 -8.5t32 2.5q31 6 59 28.5t39 52.5q9 27 8.5 57t-9.5 56
q-7 20 -19.5 38.5t-30.5 28.5t-39.5 10.5t-41.5 -6.5q-24 -9 -45.5 -23t-44.5 -25q-17 -7 -36 -5t-35 11q-9 5 -16.5 13t-11.5 18q-4 9 -5 18.5t-1 19.5q1 57 9 112.5t18 111.5q2 10 2.5 20t2.5 19t6.5 17.5t11.5 14.5t15.5 9t17.5 5q28 5 56 3.5t57 -2.5q8 0 34 -0.5
t55.5 -0.5t55.5 -0.5t34 -0.5q18 -1 36.5 -3t32.5 -13q11 -9 17 -23.5t7 -28.5q0 -15 -4.5 -30.5t-15.5 -25.5q-14 -12 -32.5 -15t-37.5 -3q-49 -2 -97.5 3.5t-97.5 7.5q-2 -5 -4 -16.5t-4 -25t-3.5 -25.5t-1.5 -16q11 4 22.5 8t22.5 7q43 10 89.5 5t85.5 -26q50 -27 78 -73
q14 -23 21.5 -48.5t10.5 -51.5q9 -66 -7 -135t-57 -122q-19 -24 -44.5 -43.5t-54.5 -30.5zM429 684q2 0 4 -0.5t4 -0.5q12 0 14 12t-8 17q-4 2 -14.5 2.5t-14.5 1.5q-16 1 -31.5 2.5t-29.5 -1.5q-11 -3 -12 -13.5t8 -15.5q7 -3 14 -1q17 3 33 1t33 -4zM461 681q0 -11 10 -14
t17 5q5 7 2.5 14.5t-10.5 9.5t-13.5 -2.5t-5.5 -12.5z" />
    <glyph glyph-name="six" unicode="6" horiz-adv-x="564" 
d="M419 23q-47 -22 -100 -27t-104 4q-55 9 -98 45q-39 32 -63.5 79.5t-33.5 97.5q-8 42 -6.5 83.5t9.5 83.5q12 72 45.5 139t84.5 118q7 7 21 18.5t30 23.5t31 22t24 12q16 4 33 1.5t33 -9.5t28.5 -18.5t18.5 -26.5q12 -28 -4 -52q-14 -20 -35 -33t-38 -29
q-21 -20 -40.5 -43.5t-30.5 -51.5q85 32 172 11q41 -10 78.5 -34.5t60.5 -59.5q14 -22 22 -47.5t10 -51.5q3 -40 -6 -78.5t-28.5 -72.5t-48.5 -61t-65 -43zM149 599q-2 -7 1.5 -12t8 -7t10 0t8.5 8q4 7 10 12.5t11 12.5q6 8 14.5 14t16.5 13q2 2 10.5 6t10.5 6q8 6 5 16
t-14 10q-5 0 -8.5 -2.5t-8.5 -4.5q-3 -2 -6.5 -3t-5.5 -3q-8 -7 -16.5 -13t-15.5 -14q-3 -3 -6 -6.5t-6 -6.5q-4 -4 -11 -12.5t-8 -13.5zM121 561q-6 -8 -2 -16.5t13 -8.5t13.5 7t1.5 15q-4 8 -12.5 9t-13.5 -6zM208 198q14 -21 37 -31.5t48 -10.5t48 11t36 32
q15 23 12 48.5t-22 44.5q-16 16 -35.5 23.5t-40 7.5t-40.5 -8t-35 -24q-18 -20 -20 -45t12 -48z" />
    <glyph glyph-name="seven" unicode="7" horiz-adv-x="554" 
d="M190 -16q-11 -7 -25 -8t-28 1q-18 4 -36 13t-32 22.5t-22.5 30t-7.5 34.5q1 20 8 38l14 36q26 63 54.5 124t57.5 123q21 45 46 87.5t51 84.5q-69 -8 -138 -9q-20 0 -40.5 0.5t-40.5 4.5q-14 3 -28.5 10t-22.5 20q-5 8 -7 22t-2 29t2 28.5t6 22.5q8 20 26 29
q11 5 22.5 6.5t22.5 2.5q7 1 26.5 1h42h42.5h27q63 1 126.5 4.5t126.5 -2.5q22 -2 44 -8.5t39 -20.5q23 -19 27 -49t-11 -55q-29 -46 -64.5 -86t-67.5 -85q-40 -57 -72 -118t-61 -124q-7 -15 -19 -46.5t-26.5 -64.5t-30 -61t-29.5 -37zM441 682q11 -5 18.5 4t-0.5 19
q-3 4 -10.5 5.5t-16 2.5t-17 1t-13.5 1h-12t-19.5 -0.5t-19.5 -1t-12 -0.5q-7 0 -10.5 -4t-4.5 -9.5t2 -10.5t10 -6q3 -1 12 -0.5t18.5 1t18.5 1.5t12 1t9.5 -0.5t13.5 -1t13 -1t8 -1.5zM487 671q7 -14 18 -11t11 19q0 7 -6 9.5t-12 1t-10 -6.5t-1 -12z" />
    <glyph glyph-name="eight" unicode="8" horiz-adv-x="544" 
d="M329 -14q-41 -5 -81.5 -2.5t-79.5 12.5q-26 7 -51 18t-45 30q-20 18 -32.5 42t-18.5 50q-8 31 -4.5 63.5t14.5 61.5q13 36 35 69t54 54q-22 18 -39 37q-20 24 -31.5 55t-11.5 63q-1 36 15.5 72t42.5 61q17 17 37 28.5t42 19.5q37 14 78 15.5t79 -8.5q24 -5 46 -16t42 -25
q28 -20 49 -49.5t29 -62.5q6 -24 6 -49.5t-8 -48.5q-9 -30 -29 -56t-46 -44q26 -17 48 -40.5t36 -51.5q15 -32 21 -67.5t1 -70.5q-6 -34 -25 -64.5t-45 -51.5q-27 -20 -60.5 -30.5t-67.5 -13.5zM374 659q10 -8 19 0t4 19q-2 4 -11.5 10.5t-13.5 8.5q-17 8 -35 14.5t-36 4.5
q-4 -1 -8.5 -2t-6.5 -5q-5 -6 -2.5 -13.5t10.5 -9.5q4 -2 7.5 -0.5t7.5 0.5q30 -3 55 -19q3 -2 5.5 -4t4.5 -4zM397 641q0 -10 8 -14.5t16 1.5q7 5 6.5 14t-8.5 13t-15 -1t-7 -13zM215 510q7 -20 20 -30.5t27 -12.5t27.5 3t22.5 16q19 21 21 49t-20 45q-21 17 -48 16
t-42 -23q-9 -13 -11.5 -30.5t3.5 -32.5zM213 157q20 -19 50 -25.5t56 3.5q14 5 25.5 16.5t14.5 25.5q5 17 -0.5 35t-16.5 31q-12 13 -29.5 26t-35.5 19.5t-35 3.5t-28 -22q-7 -12 -11.5 -27.5t-5.5 -31t3 -30t13 -24.5z" />
    <glyph glyph-name="nine" unicode="9" horiz-adv-x="565" 
d="M325 5q-15 -9 -32 -10.5t-34 2t-32 13t-25 23.5q-7 10 -11 21t-3 22q2 12 8.5 23t15.5 20q14 12 29 22t29 22q22 20 41 44t30 51q-44 -17 -90 -19t-91 11q-29 8 -56.5 23t-48.5 37q-22 23 -36 53t-19 61q-6 40 1.5 80.5t26 76.5t47 65t65.5 47q48 23 102.5 29t107.5 -3
q26 -5 51.5 -17t46.5 -29q39 -32 63.5 -79t33.5 -98q8 -41 6.5 -83t-9.5 -84q-12 -71 -45.5 -138.5t-84.5 -118.5q-20 -20 -41.5 -36.5t-45.5 -30.5zM416 620q7 -8 17 -5t10 14q0 5 -3.5 9.5t-7.5 8.5q-26 29 -62 44q-8 3 -21.5 7t-20.5 -2q-8 -6 -4.5 -16t14.5 -10
q4 0 12 -3.5t16.5 -7.5t16 -8.5t10.5 -7.5q3 -2 12 -11t11 -12zM449 575q7 -5 15 -2t10 11t-4 14t-14 4q-10 -2 -12.5 -11.5t5.5 -15.5zM222 408q31 -17 63 -12t54 23t29.5 45.5t-11.5 56.5q-14 22 -38 32.5t-49.5 9.5t-49 -13.5t-36.5 -35.5q-8 -15 -8.5 -30.5t5 -29.5
t16 -26t25.5 -20z" />
    <glyph glyph-name="colon" unicode=":" horiz-adv-x="236" 
d="M196 363q-9 -9 -25.5 -14t-34.5 -6.5t-35.5 0t-29.5 6.5q-11 5 -21.5 14t-14.5 21t-5.5 28.5t0 33t6.5 31.5t14 24q8 9 21 14t26 7q7 1 20.5 1.5t28 0t27.5 -2.5t19 -6q11 -8 17 -22t8.5 -32t1.5 -36.5t-6.5 -35t-16.5 -26.5zM147 478q7 -3 12.5 -0.5t7.5 7.5t1 11.5
t-8 9.5t-23.5 4t-23.5 0q-8 -1 -11.5 -6t-3 -10t4 -9.5t11.5 -4.5t16.5 0.5t16.5 -2.5zM173 461q1 -7 7.5 -8t12 1.5t8.5 8t-1 11.5q-10 12 -20.5 7t-6.5 -20zM184 21q-9 -9 -25.5 -14.5t-34.5 -7t-35.5 0.5t-29.5 7q-11 5 -21 14t-15 21q-4 12 -5.5 28t0.5 33t7 32t13 24
t21 14t26 7q7 1 20.5 1.5t28 -0.5t27.5 -3t19 -6q10 -6 17 -21q6 -14 8.5 -32t1.5 -36.5t-6.5 -35t-16.5 -26.5zM135 135q7 -3 12.5 -0.5t8 7.5t1 11.5t-8.5 9.5t-23.5 4.5t-23.5 -0.5q-8 -1 -11.5 -5.5t-3 -10t4 -10t11.5 -4.5t16.5 1t16.5 -3zM161 119q1 -8 7.5 -9t12 2
t8.5 8.5t-1 11.5q-10 11 -20.5 6t-6.5 -19z" />
    <glyph glyph-name="semicolon" unicode=";" horiz-adv-x="236" 
d="M197 363q-10 -9 -26 -14t-34 -6.5t-35.5 0t-29.5 6.5t-22 14t-15 21q-4 12 -5.5 28.5t0.5 33t7 31.5t13 24q9 9 21.5 14t25.5 7q7 1 20.5 1.5t28 0t27.5 -2.5t19 -6q12 -8 17 -22q6 -14 8.5 -32t1.5 -36.5t-6.5 -35t-15.5 -26.5zM147 478q7 -3 12.5 -0.5t8 7.5t1 11.5
t-8.5 9.5q-6 3 -23 4t-24 0t-10.5 -6t-3.5 -10t4 -9.5t11 -4.5q8 0 16.5 0.5t16.5 -2.5zM173 461q2 -7 8 -8t12 1.5t8.5 8t-1.5 11.5q-10 12 -20 7t-7 -20zM101 -105q-8 -3 -14 2t-2 13q2 3 6 5t7 4q8 6 13.5 15.5t8.5 20.5q7 21 9 45q-23 -1 -46 1t-41 16q-11 8 -16.5 21
t-7.5 26q-2 15 -1.5 30t4.5 29q2 10 6 19t11 17q9 9 21.5 14t25.5 7q7 1 20.5 1.5t28 -0.5t27.5 -3t19 -6q11 -6 16.5 -18t7.5 -24q3 -14 3.5 -27.5t-1.5 -27.5q0 -6 -1.5 -12t-1.5 -12q-3 -24 -9 -48t-17 -46q-13 -27 -41 -43q-2 -1 -7 -4t-10.5 -6t-10.5 -5.5zM135 135
q7 -3 12.5 -0.5t8 7.5t1 11.5t-8.5 9.5q-6 3 -23 4.5t-24 -0.5q-7 -1 -10.5 -5.5t-3.5 -10t4 -10t11 -4.5q8 0 16.5 1t16.5 -3zM161 119q2 -8 8 -9t12 2t8.5 8.5t-1.5 11.5q-10 11 -20 6t-7 -19z" />
    <glyph glyph-name="less" unicode="&#x3c;" horiz-adv-x="279" 
d="M223 507q-11 -2 -30 -0.5t-40 5t-39.5 8.5t-28.5 10q-8 4 -15.5 10.5t-11.5 14.5q-5 10 -6 23.5t2 27t9.5 25.5t15.5 20q9 7 21 9t23 0q14 -2 27.5 -7.5t27.5 -10.5q4 -1 13.5 -4t20.5 -6t21 -6t13 -4q11 -7 15 -19q3 -9 3 -21t-2.5 -24.5t-7.5 -23.5t-12 -17
q-6 -6 -19 -10zM199 290q-6 -3 -20.5 -4.5t-31 -2t-31 -0.5h-21.5q-11 0 -22 1t-22 5q-7 3 -13 7t-10 10q-8 10 -11 23t-3 26.5t4 26.5t12 22t19.5 13t22.5 5q14 1 28.5 -2t28.5 -5q4 -1 14 -2t21.5 -2t21.5 -2t14 -2q11 -5 19 -16q4 -8 6.5 -20t2 -24.5t-3.5 -24t-8 -19.5
q-9 -9 -17 -13zM235 77q-8 -6 -26.5 -12t-39 -11t-40 -8t-29.5 -3q-9 1 -18.5 3.5t-16.5 8.5q-18 16 -24 45.5t5 51.5q6 10 16 16.5t21 9.5q14 4 29 3.5t29 1.5q4 0 14 1.5t21 3t21 2.5t14 1q14 -2 22 -11q12 -14 18 -40.5t0 -43.5q-5 -11 -16 -19z" />
    <glyph glyph-name="equal" unicode="=" horiz-adv-x="411" 
d="M329 350q-9 -2 -31.5 -2.5t-48 -0.5t-48.5 1t-32 1h-43t-43 2q-10 2 -20.5 4.5t-18.5 8.5q-10 7 -16 18q-7 13 -9 29.5t0.5 33t10 31.5t19.5 24q15 11 32 13q29 3 56.5 1.5t55.5 -0.5q27 0 54 0.5t54 0.5q17 -1 34.5 -2.5t32.5 -10.5q8 -5 14.5 -14.5t8.5 -19.5
q6 -32 0 -63q-2 -10 -6.5 -19.5t-12.5 -16.5q-8 -8 -19.5 -12.5t-23.5 -6.5zM231 464q4 -2 16.5 -0.5t17.5 1.5q3 0 8.5 -0.5t11.5 -0.5t11.5 0.5t7.5 1.5q8 4 8 13.5t-8 13.5q-2 2 -10.5 2h-10.5h-10t-15 -0.5t-14.5 -1t-9.5 -1.5q-11 -2 -12 -12.5t9 -15.5zM329 475
q0 -10 8.5 -14t16.5 2q7 5 6 13t-9 12t-15 -0.5t-7 -12.5zM328 114q-9 -2 -32 -2.5t-48.5 0t-48.5 1.5t-32 1h-42.5t-42.5 2q-11 1 -21.5 4t-18.5 9q-10 7 -15 18q-7 13 -9 29.5t0.5 33t9.5 31.5t19 24q15 11 33 13q28 3 56 1.5t56 -1.5q27 1 54 1.5t53 -0.5q17 0 35 -1.5
t32 -10.5q9 -5 15 -14.5t8 -20.5q3 -15 3.5 -31t-3.5 -31q-2 -10 -6 -19.5t-12 -16.5q-9 -8 -20.5 -12.5t-22.5 -7.5zM232 257q-6 -2 -9 -6.5t-2 -9.5t4.5 -9t10.5 -4q2 0 14 1t14 1q3 0 8 -0.5t11 -0.5t11.5 0.5t7.5 1.5q9 4 9 13.5t-9 13.5q-2 2 -10 1.5t-11 -0.5h-10
h-14.5t-14.5 -0.5t-10 -1.5zM328 239q0 -9 8 -13t16 2q7 5 6 13t-9 12t-14.5 -0.5t-6.5 -13.5z" />
    <glyph glyph-name="greater" unicode="&#x3e;" horiz-adv-x="278" 
d="M170 522q-8 -2 -23.5 -5.5t-33.5 -6t-34 -4t-23 0.5q-14 3 -23 14q-6 7 -10 17.5t-6 22.5t-2 23t3 19q4 9 9 13q3 3 11.5 6.5t18 6.5t18.5 5.5t14 4.5q14 4 27 8.5t27 9.5q13 5 27.5 4.5t25.5 -7.5q14 -9 21.5 -27t9.5 -35q1 -12 -1 -24.5t-10 -21.5q-8 -11 -21 -16
t-25 -8zM224 288q-11 -3 -31 -4.5t-41.5 -1.5t-41 2t-29.5 6q-14 6 -21 19q-4 7 -6 18.5t-2 23.5t2 23t7 18q5 6 11 11q4 3 13 4.5t19 2.5t19 2t14 1q14 2 28.5 4.5t28.5 4.5q13 2 27 -1.5t24 -12.5q13 -11 17 -30t2 -36q-1 -9 -4 -18.5t-8 -17.5q-5 -7 -12.5 -11.5
t-15.5 -6.5zM208 51q-8 -5 -18.5 -7t-20.5 -1q-26 2 -52 9t-52 15q-10 3 -19.5 9t-14.5 16q-7 13 -6 28.5t6 29.5q3 12 10.5 23t18.5 16q4 2 14 1.5t21 -1.5t21 -2.5t15 -2.5q3 0 12 -0.5t19 -1.5t19 -1.5t12 -1.5q11 -3 22 -9.5t17 -16.5q10 -17 8.5 -37t-9.5 -37
q-4 -8 -9.5 -15.5t-13.5 -12.5z" />
    <glyph glyph-name="question" unicode="?" horiz-adv-x="427" 
d="M240 213q-16 -9 -35.5 -10t-37.5 3q-12 3 -23.5 8t-18.5 14q-8 10 -10 26t-0.5 33t6.5 33t11 27q12 22 28 41t35 36q20 19 39 38t30 44q9 23 0 49.5t-32 38.5q-11 6 -26 5t-27 -7q-14 -7 -24.5 -17.5t-20 -22.5t-20 -23.5t-23.5 -18.5q-13 -9 -32 -7q-7 1 -17 4.5
t-19.5 9t-17.5 12.5t-11 13q-6 11 -5 23t3 23q2 14 8 26t13 23q24 38 64.5 64t84.5 36q45 10 93.5 4.5t89.5 -28.5q17 -10 34 -22.5t28 -29.5q17 -26 23.5 -58.5t2.5 -64.5q-4 -29 -16 -57.5t-31 -51.5q-14 -18 -30.5 -33t-31.5 -32q-23 -24 -37 -59q-6 -14 -9.5 -29
t-9.5 -29q-5 -10 -11.5 -19.5t-16.5 -14.5zM324 667q5 -6 11 -6t10.5 4t5.5 10t-4 12q-2 2 -4 3.5t-4 3.5q-10 9 -22.5 14.5t-24.5 11.5q-5 2 -11.5 2t-11.5 2t-15.5 2.5t-15.5 -0.5q-8 -2 -10.5 -7.5t-1.5 -11t5.5 -9.5t12.5 -2q3 1 10 0.5t9 -1.5t8 -1t8 -1q11 -7 24 -11
t21 -15zM352 648q2 -8 10 -10.5t15 3.5q7 5 6 13t-9 12q-9 5 -16.5 -1.5t-5.5 -16.5zM207 -8q-12 -2 -27.5 -1.5t-31 4t-28.5 9.5t-20 16q-5 8 -8 20.5t-3 26t3 26t8 20.5q9 14 25.5 23t33.5 11q28 3 57 -3q12 -2 23.5 -8t19.5 -16t10 -22.5t3 -24.5q0 -14 -3 -29t-11 -26
q-9 -11 -23 -17t-28 -9z" />
    <glyph glyph-name="at" unicode="@" horiz-adv-x="803" 
d="M420 -13q-70 -2 -140 16.5t-128 57.5q-36 25 -66.5 58t-48.5 73q-18 39 -24.5 83t-1.5 87q7 57 32 110.5t61 98.5q48 60 116.5 101t143.5 58q59 14 120.5 15t118.5 -19q55 -20 99 -59t67 -90q18 -40 20 -84q2 -35 -7 -70.5t-26 -67.5q-20 -39 -52.5 -71.5t-72.5 -49.5
q-25 -10 -53 -11t-53 8q-17 5 -33 17t-22 29q-20 -12 -39 -21q-26 -10 -54.5 -11.5t-52.5 9.5q-23 11 -39 34.5t-21 49.5q-3 17 -1 35.5t7 35.5q8 30 23 58.5t38 49.5q54 49 125 45q22 -2 39 -7q13 -5 24.5 -13.5t18.5 -19.5q14 -22 17.5 -47t4.5 -51q7 -12 20.5 -13t26.5 7
q27 16 32.5 48t-9.5 60q-8 16 -21.5 28t-27.5 21q-53 34 -116 36q-42 2 -83 -12.5t-76 -37.5q-31 -21 -57 -49t-43 -60q-17 -35 -23 -75t2 -78q6 -29 21 -55t37 -46q25 -23 57.5 -36.5t66.5 -15.5q51 -5 102.5 3.5t100.5 23.5q19 5 36.5 12.5t36.5 13.5q16 5 33 7t32 -4
q8 -2 14 -7.5t11 -11.5q8 -11 13.5 -25.5t7.5 -29.5t-1 -30t-11 -25q-1 -6 -10.5 -11.5t-14.5 -7.5q-13 -5 -25.5 -8.5t-24.5 -8.5q-60 -21 -122 -35t-125 -15zM605 663q6 -5 12.5 -4t10 5t3 9.5t-6.5 10.5q-2 2 -8 5.5t-12.5 7t-12.5 6t-9 3.5q-39 15 -81 15q-8 0 -14.5 -1
t-13.5 -1q-8 -1 -15.5 -3t-10.5 -9q-5 -9 2.5 -16t16.5 -2q4 1 11.5 2t16 1.5t16.5 0.5h12q22 -4 43.5 -10.5t39.5 -19.5zM649 644q-2 -8 4 -13.5t14 -3.5q9 2 11.5 11t-5.5 14q-6 5 -14 2.5t-10 -10.5zM391 378q2 -10 9.5 -18t17.5 -6q20 3 32 24.5t12 42.5q1 15 -7 28.5
t-24 10.5q-8 -2 -14 -7t-11 -11q-11 -13 -15.5 -30.5t0.5 -33.5z" />
    <glyph glyph-name="A" unicode="A" horiz-adv-x="551" 
d="M472 -13q-15 -3 -33 -4.5t-35 1t-31 9.5t-20 21q-2 4 -3.5 14.5t-3 22t-2.5 21.5t-1 15q-37 8 -75.5 7.5t-76.5 -2.5q-2 -7 -5.5 -20t-8 -27t-10 -26t-10.5 -17q-11 -12 -27 -16t-33 -2.5t-34 7.5t-30 15q-18 13 -26 28q-8 16 -8 31q0 12 4 36.5t11 54.5t15 63t16 63
t14.5 54t9.5 36q17 67 42 131t52 128q8 17 16 34.5t19 33.5q8 10 17.5 18.5t20.5 13.5q7 2 21 3.5t29 2t29 0t21 -1.5q36 -8 53 -37q6 -10 15 -33t19 -52t20.5 -61.5t19.5 -62.5t16 -53.5t11 -34.5q4 -15 11 -43t14.5 -61.5t14 -70.5t11.5 -71t7 -62t0 -44q-2 -11 -6.5 -22
t-12.5 -19q-11 -10 -26.5 -14t-30.5 -7zM382 565q3 -12 15 -12t15 12q1 3 -0.5 9.5t-4 13.5t-4.5 14t-3 10q-2 8 -7.5 21t-12 26.5t-14.5 24t-15 14.5q-7 3 -13 0.5t-8.5 -7.5t-1 -11t8.5 -9q2 -2 6 -8l6 -9q13 -20 20.5 -43t12.5 -46zM399 510q2 -8 8.5 -11.5t13.5 -0.5
q9 5 8.5 14.5t-9.5 14.5q-8 4 -15.5 -2t-5.5 -15zM216 207q30 4 60.5 4t59.5 -6q-5 58 -18.5 114t-29.5 111q-23 -54 -40.5 -110t-31.5 -113z" />
    <glyph glyph-name="B" unicode="B" horiz-adv-x="565" 
d="M204 -6q-30 -4 -62 -3.5t-58 17.5l-1 1q-13 5 -24 15t-16 23q-5 11 -8 34.5t-5.5 53t-3.5 62.5t-2 63t-1.5 54t-0.5 37q-3 66 2 130.5t13 130.5q2 21 5.5 43t11.5 42q5 10 10.5 19t14.5 14q8 5 18.5 6.5t20.5 3.5q104 15 207 -3q29 -5 56.5 -14t51.5 -26q14 -11 26 -23.5
t20 -28.5q10 -17 12.5 -37.5t-0.5 -40.5q-4 -22 -16 -41t-27 -35q-15 -15 -32.5 -27t-36.5 -22q19 -2 37.5 -6t35.5 -11q27 -11 51.5 -29.5t38.5 -44.5q11 -21 17.5 -45t4.5 -47q-3 -35 -17 -68.5t-36 -60.5q-23 -27 -52 -47.5t-61 -35.5q-46 -20 -94.5 -32.5t-99.5 -20.5z
M400 650q9 -9 20 0q6 5 5.5 11.5t-5.5 12.5t-13 11.5t-16 9.5q-28 14 -58 20q-5 1 -10 0t-10 0q-7 1 -11.5 -2t-6 -8t0 -10.5t7.5 -8.5q4 -2 17.5 -1.5t17.5 -1.5q17 -5 33.5 -12.5t28.5 -20.5zM441 643q-8 0 -12 -4.5t-4 -10.5t3.5 -10.5t11.5 -4.5q7 0 11 4.5t4.5 10.5
t-3.5 10.5t-11 4.5zM245 634q-10 -32 -12.5 -64.5t-2.5 -65.5q18 4 36 10t33 17q8 7 15.5 14.5t10.5 17.5q6 17 -2 34.5t-25 26.5q-12 6 -25.5 8t-27.5 2zM209 505v-2v-4q2 -2 1.5 1.5t-0.5 5.5zM225 322q-7 -48 -3.5 -97.5t14.5 -97.5q19 3 44.5 10.5t49.5 18.5t43.5 26
t25.5 33q5 16 3 32.5t-9.5 31t-19.5 26t-28 17.5q-28 11 -59.5 9.5t-60.5 -9.5z" />
    <glyph glyph-name="C" unicode="C" horiz-adv-x="565" 
d="M420 11q-45 -20 -95.5 -23.5t-98.5 7.5q-33 8 -64.5 23t-56.5 38q-19 17 -34 38t-25 44q-20 45 -26.5 94t-8.5 98q-1 51 4 102t18 101q10 37 26 72.5t42 63.5q38 38 89 58q54 20 113.5 21t113.5 -19q24 -9 46.5 -23t40.5 -33q13 -14 22 -31t17 -35q11 -26 13.5 -56.5
t-6.5 -57.5q-8 -29 -32 -45q-15 -10 -34.5 -13t-36.5 2q-10 2 -19 7t-15 13q-12 17 -15.5 37.5t-12.5 39.5q-8 18 -23 33.5t-35 20.5t-38 -0.5t-33.5 -17.5t-26.5 -29t-17 -36q-8 -30 -10.5 -61.5t-2.5 -63.5q0 -34 3 -68t11 -67q4 -15 12 -31.5t19 -30.5t24.5 -23t29.5 -8
q14 1 27 10.5t21 20.5q14 19 23.5 39.5t22.5 38.5q15 21 37 28t44 2t39.5 -20.5t24.5 -40.5q8 -31 5.5 -64t-16.5 -62q-16 -32 -45 -55.5t-61 -37.5zM425 669q4 -6 10 -6t10.5 3.5t6 9.5t-2.5 12q-2 3 -7.5 6.5t-12 7t-12 6.5t-8.5 5q-16 8 -34 11.5t-36 3.5q-8 0 -12 -4.5
t-4 -10.5t4 -10.5t12 -4.5t17 -0.5t17 -2.5q14 -4 26.5 -11t25.5 -15zM465 662q-7 -3 -6.5 -9.5t4.5 -11.5t10 -6.5t11 4.5q10 12 2.5 21t-21.5 2z" />
    <glyph glyph-name="D" unicode="D" horiz-adv-x="589" 
d="M313 13q-39 -12 -79.5 -19.5t-81.5 -5.5q-20 2 -40.5 6.5t-36.5 17.5l-1 1q-10 6 -18 14.5t-13 19.5t-8 34.5t-5.5 53t-3.5 62.5t-2 63t-1.5 54t-0.5 37q-3 66 2 130.5t13 130.5q2 21 5.5 43t11.5 42q5 11 12 21t18 15q7 3 21.5 4.5t31 2.5t31 0.5t22.5 -0.5
q51 -5 102.5 -15t99.5 -30q11 -4 21 -10l20 -12q52 -34 87.5 -82.5t50.5 -108.5q19 -72 12 -149.5t-41 -143.5q-15 -29 -35.5 -55.5t-46.5 -46.5q-32 -26 -70 -43.5t-77 -30.5zM394 641q6 -5 12 -4t9.5 5.5t3.5 10.5t-6 11q-2 2 -11 7.5t-11 7.5q-7 3 -19.5 7.5t-26.5 8
t-27 5t-20 -0.5t-10 -6.5t-2.5 -10t4 -9.5t10.5 -4q10 0 20 -0.5t20 -3.5q14 -5 28.5 -10t25.5 -14zM427 624q0 -15 11 -17.5t18 11.5q3 7 -1 11.5t-10 6t-12 -1t-6 -10.5zM206 150q26 -3 52.5 0t50.5 14q35 16 61 47.5t40 66.5q16 41 17 86.5t-11 87.5q-14 48 -49 83
q-11 12 -26 21t-31 14q-20 7 -42.5 8t-43.5 -3q-1 -4 -3 -15.5t-5 -24.5t-5 -24.5t-3 -15.5q-9 -63 -10 -126t1 -126q0 -5 1 -18.5t2.5 -28.5t2.5 -28.5t1 -17.5z" />
    <glyph glyph-name="E" unicode="E" horiz-adv-x="520" 
d="M399 5q-63 -5 -126 -6.5t-126 2.5l-38 2t-36 10q-14 7 -23 21.5t-12 29.5q-2 11 -4 35t-4 54.5t-3.5 64.5t-2.5 65t-2 55.5t-1 35.5q0 15 0.5 41t2.5 58t5 66.5t7 66t9 56.5t11 38q8 20 24 30q11 6 23 7.5t24 2.5q89 5 177 -2t177 -15q6 -1 11.5 -2.5t10.5 -6.5
q6 -5 9.5 -12.5t5.5 -15.5q3 -11 2.5 -25t-3.5 -28.5t-9 -26.5t-14 -19q-9 -8 -21 -9q-14 -2 -49 -1t-74 3t-74 5t-49 5q-8 -39 -15 -78t-10 -78q12 -1 39 -2t57.5 -3t57.5 -5t38 -7q16 -6 21 -23q1 -6 0.5 -16.5t-1 -22.5t-2 -23t-3.5 -16q-7 -17 -19 -24q-12 -8 -38.5 -10
t-55.5 -1.5t-56 3t-42 3.5q1 -32 3 -63t4 -63q38 -3 75 -1.5t74 3.5q21 1 41.5 3.5t41.5 0.5q12 -1 24 -5.5t20 -14.5q9 -12 11 -28.5t1 -31.5q0 -14 -2.5 -29.5t-11.5 -26.5q-5 -8 -14 -13t-18 -7q-12 -3 -24 -4zM389 682q4 0 11 -1t14.5 -2t14.5 -0.5t10 3.5q7 5 5.5 13.5
t-9.5 11.5q-3 2 -6.5 2h-6.5q-6 0 -19.5 1t-29 2t-29.5 1.5t-19 -0.5q-12 -3 -11 -15t13 -14q3 0 12 -0.5t19 -1t19 -0.5h12zM461 675q6 -8 15.5 -6t11.5 12t-6.5 16t-17.5 0q-5 -4 -6.5 -10.5t3.5 -11.5zM329 107h20h29t29 1t20 3q11 5 9 17t-14 12q-3 0 -11.5 -0.5
t-17.5 -1t-17.5 -1.5t-11.5 -1q-8 0 -24.5 1t-22.5 -4q-8 -7 -3.5 -16.5t15.5 -9.5zM453 109q5 -2 11 0.5t8 7.5q4 10 -3 17t-17 4q-9 -4 -8.5 -15t9.5 -14z" />
    <glyph glyph-name="F" unicode="F" horiz-adv-x="543" 
d="M160 6q-16 -5 -33.5 -4.5t-34 5.5t-29.5 15t-20 25q-5 11 -8 34.5t-5.5 53t-3.5 62.5t-2 63t-1.5 54t-0.5 37q-3 66 2 130.5t13 130.5q2 21 5.5 43t11.5 42q5 11 12 20.5t17 14.5q7 4 25 6.5t37.5 4.5t37 3.5t25.5 1.5q53 2 105.5 3t105.5 -3q20 -2 40.5 -4t39.5 -9
q13 -5 25 -12.5t19 -19.5q4 -8 6 -21.5t1.5 -28t-3 -28t-5.5 -22.5q-5 -9 -12 -17t-17 -12q-11 -5 -23 -5.5t-24 1.5q-14 2 -26.5 4.5t-26.5 4.5q-95 14 -187 5q-7 -33 -13.5 -66.5t-9.5 -67.5q49 3 98 4.5t97 -4.5q11 -2 20.5 -5t17.5 -9q10 -8 15 -20.5t6 -26.5t-2 -28.5
t-8 -26.5q-2 -5 -5.5 -9t-7.5 -8q-11 -8 -33.5 -10.5t-48 -2t-49.5 2.5t-37 3q-17 0 -34 0.5t-34 -0.5q0 -23 0.5 -46t2.5 -46q1 -13 3.5 -39t3.5 -54t0 -53t-7 -37q-5 -11 -16.5 -18.5t-24.5 -10.5zM447 696q7 -5 13 -2.5t9 7.5t1.5 11.5t-8.5 10.5q-3 1 -9.5 2t-14 2
t-14.5 2t-10 1t-10.5 0.5t-15.5 0.5t-15.5 -0.5t-10.5 -1.5q-11 -4 -10 -15t12 -13q5 -2 11 0h11t17 -0.5t17.5 -1t11.5 -1.5q2 0 7.5 -0.5t7.5 -1.5zM482 702q-5 -6 -1.5 -11.5t9 -8.5t11.5 -2t8 9q4 14 -6.5 19t-20.5 -6z" />
    <glyph glyph-name="G" unicode="G" horiz-adv-x="572" 
d="M403 4q-48 -17 -101.5 -18.5t-101.5 14.5q-29 10 -55.5 26t-47.5 38q-25 25 -41 56.5t-26 65.5q-16 54 -18.5 111t2.5 114q5 61 19.5 122.5t49.5 111.5q26 37 68 61t90 34.5t98 6.5t91 -23q41 -18 74 -53q20 -21 33.5 -47.5t18.5 -55.5q7 -39 -5 -78q-6 -17 -18 -29.5
t-27.5 -19t-33 -7t-34.5 6.5q-21 7 -32 29q-7 15 -9.5 31t-9.5 31q-7 16 -18.5 29.5t-26.5 21.5q-18 9 -36.5 7.5t-35 -10.5t-29.5 -24t-21 -33q-11 -26 -14.5 -53.5t-5.5 -55.5q-1 -42 1 -83t12 -81q4 -15 10 -29.5t15 -28.5t22.5 -26t30.5 -14q14 -2 28 5.5t23 18.5
q18 21 26 49.5t6 56.5l-15 -3t-20.5 -3.5t-20.5 -2t-14 1.5q-8 3 -14 9.5t-9 14.5q-6 14 -8 29.5t3 29.5q3 15 14 24q8 7 18.5 9.5t21.5 3.5q17 1 33 -1.5t32 -4.5q6 -1 24 -1t38.5 -0.5t38.5 -1.5t24 -2q12 -3 18.5 -13t10 -24t5 -29t1.5 -27q2 -41 -2.5 -82.5t-19.5 -79.5
q-9 -21 -21 -41t-29 -36q-17 -17 -37.5 -28.5t-42.5 -19.5zM425 670q5 -6 11.5 -6t11 3t6 9t-3.5 12q-4 5 -13.5 11t-20 11t-21 9t-16.5 6q-3 0 -8.5 1t-12.5 1.5t-12.5 0.5h-8.5q-7 -1 -10 -6t-2.5 -10t4.5 -9.5t11 -4.5q8 0 20 -2.5t25 -6t24 -8.5t16 -11zM470 633
q14 -2 19.5 8.5t-7.5 19.5q-6 4 -12 1t-8.5 -9t-1 -12.5t9.5 -7.5z" />
    <glyph glyph-name="H" unicode="H" horiz-adv-x="622" 
d="M161 6q-16 -5 -34 -4.5t-34.5 5.5t-29.5 15t-19 25q-5 12 -8.5 35.5t-5.5 53.5t-3.5 63.5t-2.5 63.5t-1.5 54.5t-0.5 37.5q-3 70 2 139t15 138q3 24 9.5 49.5t23.5 42.5q11 11 28.5 13.5t34.5 1.5t33.5 -3.5t32.5 -8.5q11 -5 20 -11t15 -15q8 -14 6 -30q-1 -20 -5.5 -40
t-9.5 -40q-9 -38 -15 -75.5t-10 -75.5q48 7 96 5t95 -13q2 52 6 104t11 104q4 23 10 46t22 40q12 12 30 14t34 1q18 -1 37.5 -4t35 -10.5t25.5 -20t9 -30.5q0 -9 -5 -34.5t-11 -54.5t-11.5 -54.5t-6.5 -34.5q-9 -63 -10 -126t1 -126q0 -14 3 -44t5 -62t1 -61t-7 -42
q-5 -11 -14.5 -17t-20.5 -11q-14 -5 -31 -6t-33 2t-30 11t-22 20q-9 14 -14 46t-7.5 67.5t-3 68.5t-0.5 50q-45 20 -97 18.5t-100 -13.5q0 -16 3 -50t5.5 -70.5t2 -69.5t-7.5 -47q-5 -12 -17 -19.5t-24 -10.5zM185 621q-2 -6 -0.5 -11t5 -8t8.5 -3.5t10 3.5t7.5 12t3.5 17.5
t1 19t-1 15.5q-2 11 -6.5 22.5t-12.5 19.5t-19.5 11.5t-19.5 -4.5q-7 -8 -1.5 -16.5t16.5 -8.5q12 -12 14 -32t-5 -37zM182 552q8 -3 15 2t6 14q-1 10 -10 13.5t-16 -4.5q-5 -6 -4 -13.5t9 -11.5z" />
    <glyph glyph-name="I" unicode="I" horiz-adv-x="251" 
d="M162 6q-20 -6 -42 -5t-41 10q-13 6 -23 16.5t-14 23.5q-5 15 -6.5 30.5t-3.5 30.5q-4 44 -5.5 87t-1.5 86q0 3 -0.5 13.5t-1 21.5t-1 21.5t-0.5 13.5q-2 40 0 80t5 80q3 32 5.5 62.5t7.5 61.5q2 15 5.5 30t9.5 29q5 10 11 19t16 14q13 7 28 7.5t29 -0.5q18 -1 36.5 -4.5
t33.5 -11t24.5 -19t8.5 -29.5q-1 -20 -5.5 -40t-9.5 -40q-20 -83 -26 -165q-3 -44 -3 -87t1 -87q1 -42 5.5 -82.5t5.5 -82.5q0 -14 -1 -28.5t-8 -26.5q-5 -11 -16.5 -18t-22.5 -11zM185 621q-3 -7 -0.5 -12.5t7.5 -8t11 -1.5t9 8q3 8 4 15.5t3 15.5q5 29 -8 56
q-5 11 -17.5 19.5t-24.5 5.5q-7 -2 -9.5 -6.5t-1.5 -10t5.5 -9t11.5 -3.5q1 0 2.5 -1.5l2.5 -2.5q7 -7 9 -17.5t1 -19.5q0 -4 -1.5 -14.5t-3.5 -13.5zM178 554q7 -5 14.5 -2t9.5 11q2 10 -5 16t-16 1q-8 -4 -9 -12.5t6 -13.5z" />
    <glyph glyph-name="J" unicode="J" horiz-adv-x="523" 
d="M262 -11q-42 -3 -85 2.5t-79 25.5q-50 28 -75 80q-17 37 -21 78t0 82q2 19 7 38t19 33q8 8 20.5 12t24.5 5q24 2 50 -1t44 -19q8 -6 13.5 -14.5t7.5 -18.5q4 -15 -2 -31q-9 -21 -6.5 -47t18.5 -42q17 -18 41 -13t39 24q11 14 18 31.5t10 35.5q12 94 12 188t-19 186
q-3 14 -7.5 27.5t-4.5 27.5q0 21 15 38q8 8 19.5 13.5t22.5 9.5q21 6 42.5 7.5t43.5 -0.5q25 -2 42 -17q8 -7 12 -16.5t7 -19.5q5 -20 5.5 -41.5t2.5 -41.5q6 -69 7.5 -137.5t-2.5 -137.5q-4 -65 -17.5 -129.5t-46.5 -119.5q-14 -23 -33.5 -42t-43.5 -30q-23 -11 -49 -17.5
t-52 -8.5zM407 702q7 -3 12.5 -0.5t7.5 7.5t1 11t-8 9q-5 2 -12.5 3.5t-16.5 1.5t-17 -1t-13 -3q-6 -3 -8 -8.5t-0.5 -10.5t6 -8.5t11.5 -1.5q6 2 19 2.5t18 -1.5zM440 688q4 -8 12.5 -8.5t13.5 6.5q6 8 2 16t-14 8q-8 0 -12.5 -7t-1.5 -15z" />
    <glyph glyph-name="K" unicode="K" horiz-adv-x="549" 
d="M493 2q-12 -6 -26.5 -8t-29.5 -0.5t-28.5 7t-21.5 15.5t-13 21.5t-9 23.5q-8 23 -16 46.5t-20 45.5q-9 16 -24 36t-32.5 37.5t-36.5 29.5t-37 11q1 -45 5.5 -88.5t5.5 -88.5q0 -14 -1 -28.5t-8 -26.5q-5 -11 -16.5 -18t-22.5 -11q-20 -6 -42 -5t-41 10q-13 6 -23 16.5
t-14 23.5q-5 15 -6.5 30.5t-3.5 30.5q-4 44 -5.5 87t-1.5 86q0 3 -0.5 13.5t-1 21.5t-1 21.5t-0.5 13.5q-2 40 0 80t5 80q3 32 5.5 62.5t7.5 61.5q2 15 5.5 30t9.5 29q5 10 11 19t16 14q13 7 28 7.5t29 -0.5q18 -1 36.5 -4.5t33.5 -11t24.5 -19t8.5 -29.5q-1 -20 -5.5 -40
t-9.5 -40q-16 -69 -24 -140q8 3 16 5.5t15 7.5q47 27 81 71.5t54 94.5q6 14 11 27t13 26q10 16 25.5 24.5t33 8.5t34.5 -7t30 -22q13 -14 20 -34t6 -40q-1 -23 -9 -44.5t-21 -39.5q-15 -23 -33.5 -43t-38.5 -38q-45 -42 -96 -71q30 -16 55.5 -38.5t46.5 -48.5q28 -35 49 -75
t32 -83q7 -32 4 -67q-2 -11 -5 -22.5t-9 -21.5q-8 -14 -24 -22zM185 621q-3 -7 -0.5 -12.5t7.5 -8t11 -1.5t9 8q3 8 4 15.5t3 15.5q5 29 -8 56q-5 11 -17.5 19.5t-24.5 5.5q-7 -2 -9.5 -6.5t-1.5 -10t5.5 -9t11.5 -3.5q1 0 2.5 -1.5l2.5 -2.5q7 -7 9 -17.5t1 -19.5
q0 -4 -1.5 -14.5t-3.5 -13.5zM178 554q7 -5 14.5 -2t9.5 11q2 10 -5 16t-16 1q-8 -4 -9 -12.5t6 -13.5z" />
    <glyph glyph-name="L" unicode="L" horiz-adv-x="438" 
d="M305 -11q-52 -1 -106 0q-20 1 -39.5 3t-38.5 7q-14 3 -28 7t-26 12q-17 12 -24 29q-5 11 -8 34.5t-5.5 53t-3.5 62.5t-2 63t-1.5 54t-0.5 37q-3 66 2 130.5t13 130.5q2 21 5.5 43t11.5 42q6 14 17 27q11 11 29 13.5t34 1.5q17 -1 34 -3.5t33 -8.5q10 -5 19.5 -11
t14.5 -15q5 -7 6 -14.5t1 -15.5q-2 -20 -6 -39.5t-9 -39.5q-8 -33 -13.5 -66.5t-9.5 -68.5q-10 -82 -6 -165t10 -166q26 0 52 1.5t52 3.5q17 2 35 3t35 1q9 0 18.5 -1t17.5 -4q22 -8 28 -33.5t1 -48.5q-2 -10 -8 -19.5t-15 -15.5q-8 -5 -16.5 -8t-16.5 -5q-21 -5 -42.5 -7
t-43.5 -4zM185 621q-5 -10 2.5 -18t17.5 -3q5 2 7 7t3 10q5 19 4.5 39t-8.5 37q-5 11 -16 19.5t-23 7.5q-8 -1 -11.5 -5.5t-3 -10t4.5 -10t12 -4.5q5 0 8 -6t5 -11q8 -28 -2 -52zM181 552q8 -3 15 2t7 14q-1 10 -10.5 13.5t-16.5 -4.5q-5 -6 -3.5 -13.5t8.5 -11.5z" />
    <glyph glyph-name="M" unicode="M" horiz-adv-x="804" 
d="M712 3q-16 -4 -33.5 -4t-34 5.5t-29.5 15.5t-19 25q-6 14 -9.5 48t-5.5 72t-3 73t-2 50l-22 -56l-22 -56q-8 -22 -14.5 -44t-17.5 -42q-8 -14 -18 -26.5t-24 -20.5q-15 -9 -34.5 -13.5t-39 -3.5t-37 7.5t-28.5 19.5q-7 7 -13.5 26t-11.5 40.5t-9.5 41t-6.5 29.5
q-17 78 -34 154.5t-35 154.5q-9 -62 -10.5 -125t0.5 -126q0 -14 3 -44t5 -63t1.5 -62.5t-7.5 -42.5q-5 -11 -17 -18.5t-25 -10.5q-16 -5 -33.5 -4.5t-34 5.5t-29.5 15t-19 25q-5 11 -8 35t-5.5 53.5t-3.5 62t-2 62.5t-1.5 54t-0.5 37q-3 66 2 130.5t13 130.5q2 22 5.5 43.5
t11.5 41.5q7 17 17 27q9 9 25.5 12t35.5 3t37 -3t30 -6q17 -4 33.5 -8.5t31.5 -12.5q27 -16 43 -47q8 -16 18.5 -49.5t21.5 -76.5t21.5 -91t19.5 -91.5t16 -78.5t10 -53q5 12 9.5 24t9.5 25q19 54 35.5 107.5t33.5 108.5q5 16 14.5 49.5t21.5 69t25.5 66t25.5 42.5
q5 5 12 7.5t14 4.5q33 9 70 10t69 -12q9 -4 17.5 -9.5t14.5 -13.5q5 -6 7 -14t2 -16q0 -9 -5 -34.5t-11 -55t-11.5 -55t-6.5 -34.5q-9 -63 -10 -125.5t1 -125.5q0 -14 3 -44t5 -62t1 -61t-7 -42q-6 -11 -17.5 -18.5t-24.5 -11.5zM250 649q5 -6 11 -6t10 3.5t5 10t-4 12.5
q-1 2 -5.5 6t-5.5 5q-16 11 -33.5 19t-37.5 11q-5 1 -11 3t-12 1q-12 -3 -12 -15t12 -15q15 -3 30.5 -6.5t29.5 -11.5q7 -4 12.5 -8t10.5 -9zM274 618q-7 -14 2 -21t21 3q6 5 4.5 11t-6.5 10t-11.5 4t-9.5 -7z" />
    <glyph glyph-name="N" unicode="N" horiz-adv-x="688" 
d="M639 32q-5 -11 -16.5 -18.5t-25.5 -11t-29 -4t-27 1.5h-1q-11 -1 -22.5 2t-22.5 6q-22 7 -41.5 19.5t-36.5 28.5q-21 20 -36.5 46t-28.5 53q-26 55 -50.5 110.5t-48.5 112.5q-11 24 -21.5 48t-26.5 44q-7 -57 -7.5 -114t1.5 -114q1 -14 3.5 -43.5t4.5 -61.5t1 -60.5
t-7 -41.5q-5 -11 -16.5 -18.5t-24.5 -10.5q-16 -5 -33.5 -4.5t-34 5.5t-29.5 15t-20 25q-5 11 -8 34.5t-5.5 53t-3.5 62.5t-2 63t-1.5 54t-0.5 37q-3 66 2 130.5t13 130.5q2 21 5.5 43t11.5 42q5 10 11 19.5t16 14.5q8 5 23.5 6.5t32 1t32 -3t24.5 -5.5l1 -1q8 0 15 -3.5
t14 -7.5q26 -14 44.5 -37t32.5 -49q25 -45 44.5 -93t37.5 -96t37 -96t43 -93q-1 25 -1.5 50t-1.5 51q-1 15 -0.5 42t2 60t4.5 69t7 69t8.5 59t10.5 40q5 10 11 19t16 15q12 7 26.5 7.5t28.5 -0.5q18 -1 37 -4t34.5 -10.5t25.5 -20t9 -30.5q0 -9 -5 -34.5t-11 -54.5
t-11 -54.5t-6 -34.5q-10 -63 -11 -125.5t1 -125.5q0 -14 3 -44t5 -62t1.5 -61t-6.5 -42zM260 605q3 -7 9.5 -8t11.5 2t7.5 8.5t-1.5 11.5q-9 15 -20 29.5t-25 25.5q-14 13 -31.5 20.5t-35.5 12.5q-9 2 -14.5 -2.5t-7 -10.5t2.5 -11.5t13 -5.5q6 0 20.5 -6t19.5 -9
q9 -6 16.5 -13t14.5 -14q3 -4 10.5 -15t9.5 -15zM299 581q-7 3 -12 -1t-6.5 -10t1 -12t10.5 -6q15 0 18 11t-11 18z" />
    <glyph glyph-name="O" unicode="O" horiz-adv-x="579" 
d="M351 -3q-42 -14 -83 -11q-38 2 -73 17.5t-64 39.5q-42 36 -70.5 87t-40.5 105q-14 58 -13.5 119t16.5 119q11 39 28 76t42 69q26 34 60.5 61.5t75.5 40.5q69 24 139 1q36 -12 67.5 -36t55.5 -54q29 -37 47.5 -81.5t26.5 -91.5q11 -63 6.5 -127t-26.5 -124
q-14 -38 -35.5 -75t-50.5 -66q-23 -23 -50.5 -41t-57.5 -28zM413 630q4 -5 10 -5.5t10.5 2.5t6 8t-1.5 11q-2 4 -8 11t-13.5 13.5t-14.5 12t-11 7.5q-11 6 -31.5 13t-31.5 2q-10 -5 -9 -15.5t12 -12.5q2 -1 6 -1h6q21 -2 39 -15.5t31 -30.5zM449 617q-8 -2 -9.5 -7.5
t0.5 -11.5t7 -9t12 0t9 8.5t0.5 10.5t-7 8t-12.5 1zM256 166q22 -11 42 -5t36.5 22.5t28.5 39.5t19 47q14 49 13 101.5t-19 100.5q-7 19 -18.5 37.5t-26.5 30.5t-32.5 15.5t-35.5 -5.5q-29 -15 -47 -45.5t-27 -67.5t-10 -76.5t5 -70.5q5 -23 13 -45.5t21 -42.5
q16 -24 38 -36z" />
    <glyph glyph-name="P" unicode="P" horiz-adv-x="543" 
d="M160 6q-16 -5 -33.5 -4.5t-34 5.5t-29.5 15t-20 25q-5 11 -8 34.5t-5.5 53t-3.5 62.5t-2 63t-1.5 54t-0.5 37q-3 66 2 130.5t13 130.5q2 21 5.5 43t11.5 42q5 11 12 21t18 15q14 7 30.5 6.5t32.5 0.5q46 2 92 1.5t91 -6.5q30 -4 59.5 -10.5t55.5 -22.5q25 -14 46 -36
t33 -48q13 -28 18.5 -58.5t1.5 -60.5q-5 -39 -28.5 -74.5t-55.5 -59.5q-35 -27 -76 -45.5t-83 -31.5q-26 -7 -51.5 -11t-51.5 -8q1 -16 1.5 -31.5t2.5 -31.5q1 -12 3 -36.5t3 -50.5t0 -49.5t-7 -34.5q-5 -11 -16.5 -18.5t-24.5 -10.5zM423 655q11 -8 20 1.5t1 20.5
q-2 2 -6.5 6t-10 8t-10.5 7.5t-8 4.5q-38 20 -83 20q-6 0 -13 -0.5t-11 -5.5q-6 -8 -1.5 -16t13.5 -8q14 0 28 -0.5t28 -5.5q2 -1 7 -3l10 -4t9.5 -4.5t6.5 -3.5q5 -4 10 -8.5t10 -8.5zM442 629q5 -7 13.5 -6t12.5 9t-2 15.5t-15 5.5q-8 -2 -11 -10t2 -14zM208 495
q-3 -20 -4.5 -40t-3.5 -40q28 4 56 8.5t55 12.5q17 5 33.5 15.5t27.5 24.5q13 18 12.5 43t-14.5 42q-10 13 -29 20q-26 12 -55 13.5t-58 -0.5q-1 -5 -4 -19t-6.5 -30t-6 -30.5t-3.5 -19.5z" />
    <glyph glyph-name="Q" unicode="Q" horiz-adv-x="583" 
d="M569 -14q0 -24 -12.5 -43t-31 -29t-40.5 -10t-43 13q-24 15 -41 38.5t-30 49.5q-26 -12 -55.5 -17t-58.5 -1q-52 4 -99 36q-27 17 -49.5 41t-39.5 52q-26 42 -41 91t-19 99q-7 78 12 157.5t64 143.5q22 31 50 57t62 43q29 14 61.5 20.5t64.5 3.5q32 -4 62 -17t56 -33
q43 -34 72.5 -83t43.5 -103q16 -60 16.5 -124.5t-16.5 -124.5q-11 -43 -30.5 -84t-48.5 -75q21 -19 46 -37q8 -7 16.5 -13t15.5 -14q13 -16 13 -37zM413 630q4 -5 10 -5.5t10.5 2.5t6 8t-1.5 11q-2 4 -8 11t-13.5 13.5t-14.5 12t-11 7.5q-5 2 -13 5.5t-17 6t-17 4t-13 0.5
q-11 -2 -12 -12.5t9 -15.5q2 -1 9.5 -2t9.5 -1q15 -4 31 -12q11 -6 19 -14.5t16 -18.5zM449 617q-8 -2 -9.5 -7.5t0.5 -11.5t7 -9t12 0t9 8.5t0.5 10.5t-7 8t-12.5 1zM188 273q6 -23 16 -45.5t24 -39.5t32.5 -25t40.5 -1q-10 21 -12 45q0 17 8.5 29t21 16.5t26.5 0.5t24 -18
q24 54 26 117.5t-19 119.5q-9 25 -25.5 49t-42.5 32q-17 6 -33 1t-30 -16.5t-25 -28t-18 -33.5q-20 -48 -23 -100.5t9 -102.5z" />
    <glyph glyph-name="R" unicode="R" horiz-adv-x="554" 
d="M466 -10q-20 -2 -40 2.5t-36 15.5q-10 8 -16.5 19t-10.5 23q-5 20 -8.5 41t-9.5 41q-7 21 -20 39.5t-29 34.5q-20 19 -45 34.5t-52 20.5q1 -45 6 -89t4 -89q-1 -16 -3.5 -33t-14.5 -28q-17 -16 -43 -19.5t-49 1.5q-12 3 -23.5 8.5t-19.5 14.5q-12 12 -17 34q-3 11 -5 35
t-4 54.5t-3.5 64t-2.5 64t-2 54.5t-1 36q-1 33 1 65.5t4 65.5q1 8 3 31.5t5 49.5t5.5 49.5t4.5 31.5q4 17 10 35t20 29q11 10 26 11.5t29 1.5q3 0 15.5 0.5t15.5 0.5q54 2 107 0.5t106 -12.5q35 -7 68.5 -24.5t56.5 -45.5q23 -26 34.5 -60.5t13.5 -69.5q0 -19 -3 -38
t-11 -36q-9 -23 -24.5 -42t-33.5 -36q-23 -20 -49 -35t-54 -27q31 -17 59.5 -38t49.5 -49q17 -22 28 -47.5t16 -51.5q4 -24 4 -48.5t-8 -47.5q-14 -39 -54 -42zM423 655q11 -8 20 1.5t1 20.5q-2 2 -6.5 6t-10 8t-10.5 7.5t-8 4.5q-38 20 -83 20h-9.5t-9.5 -2q-5 -3 -7 -7.5
t-1 -9t5 -8t10 -3.5h18t18 -1q4 0 11.5 -2.5t15.5 -5.5t15.5 -6.5t10.5 -5.5q5 -4 10 -8.5t10 -8.5zM442 629q5 -7 13.5 -6t12.5 9t-2 15.5t-15 5.5q-8 -2 -11 -10t2 -14zM209 501q-4 -22 -5.5 -43.5t-3.5 -42.5q35 5 70 10.5t67 21.5q15 7 26.5 19.5t16.5 27.5t4 30.5
t-10 30.5q-8 13 -22 20.5t-28 11.5q-23 7 -47.5 8t-48.5 -1q-1 -4 -3.5 -17.5t-6 -29t-6 -29t-3.5 -17.5z" />
    <glyph glyph-name="S" unicode="S" horiz-adv-x="504" 
d="M335 4q-38 -11 -78 -12.5t-80 1.5q-30 2 -60 6t-58 15q-19 7 -30 19q-10 11 -14.5 28t-4.5 35t5 36t13 31q7 11 17 15q9 5 19 6.5t20 1.5q31 -1 60.5 -9t58.5 -16q20 -5 41 -7t41 4q25 8 39 29t4 46q-5 12 -15.5 22t-21.5 17q-17 10 -35.5 15.5t-35.5 12.5
q-30 11 -59.5 24.5t-57.5 30.5q-21 13 -40 30t-30 39q-13 24 -18 51t-3 54.5t11 53.5t25 48q12 17 28 30t34 24q23 14 50 22t54 12q42 5 83 3.5t82 -8.5q19 -3 37 -7t36 -11q5 -2 10.5 -5t10.5 -8q11 -11 16.5 -27t5.5 -34.5t-4.5 -36.5t-12.5 -31q-6 -13 -19 -19
q-10 -5 -21.5 -6t-22.5 -1q-31 2 -61 10.5t-61 16.5q-18 4 -37 4.5t-37 -4.5q-11 -4 -20.5 -10.5t-16.5 -15.5q-9 -14 -9 -32.5t12 -29.5q15 -14 35 -20.5t40 -12.5q52 -16 99.5 -43.5t85.5 -65.5q13 -12 21.5 -26.5t14.5 -30.5q18 -52 9 -108q-5 -24 -15.5 -46.5
t-26.5 -41.5q-22 -26 -51.5 -42.5t-61.5 -25.5zM404 664q10 -2 16 6t1 16q-2 5 -6.5 6.5t-9.5 3.5q-5 1 -14 3.5t-19 4.5t-19.5 2.5t-14.5 -0.5q-11 -5 -10 -16t12 -13q4 -1 8 -1h8q12 -2 24 -5.5t24 -6.5zM436 657q-3 -9 5 -14.5t16 -1.5t7.5 13t-7.5 14q-6 5 -12.5 0.5
t-8.5 -11.5z" />
    <glyph glyph-name="T" unicode="T" horiz-adv-x="470" 
d="M237 -4q-16 -4 -33.5 -4t-34 5t-29.5 15t-19 25q-7 18 -11 60.5t-6 90.5t-2.5 91.5t-1.5 62.5q-2 57 1.5 112.5t9.5 112.5q-22 -3 -45 -4t-41 11q-13 8 -20 21.5t-9 29t0.5 32t9.5 30.5q9 17 31.5 27.5t50 15.5t55 7t47.5 2h39h62t62 -0.5t39 -0.5q11 -1 21.5 -2t20.5 -4
q14 -4 25 -14.5t16 -24.5t5.5 -28.5t-1.5 -29.5q-2 -14 -7.5 -29t-16.5 -23q-13 -9 -29 -10.5t-32 -0.5q-4 0 -17 1t-27.5 2.5t-27.5 2.5t-17 1q-1 -5 -4 -18t-6 -28.5t-5.5 -29t-3.5 -17.5q-9 -63 -10 -125.5t1 -125.5q0 -14 3 -44t5 -62t1.5 -61t-7.5 -42
q-6 -12 -17.5 -19t-24.5 -11zM404 685q6 -3 11 -1t7.5 6t2 9.5t-5.5 10.5q-5 4 -15 6.5t-21.5 3.5t-22.5 1.5t-17 0.5q-8 0 -12 -4.5t-4 -10.5t4 -10.5t12 -4.5h21t21 -3q2 -1 9.5 -2t9.5 -2zM428 672q2 -11 12.5 -12.5t15.5 8.5q7 14 -7 21q-8 4 -15.5 -2t-5.5 -15z" />
    <glyph glyph-name="U" unicode="U" horiz-adv-x="596" 
d="M433 21q-42 -16 -87.5 -20t-90.5 1q-29 2 -58 9t-55 21q-47 25 -74 69q-12 19 -19.5 40.5t-11.5 44.5l-1 3q-13 45 -16 90.5t-3 91.5q0 57 3.5 112.5t9.5 111.5q2 23 5.5 46t11.5 45q5 12 13 23t19 16q15 8 33.5 9.5t35.5 0.5q16 -1 32 -3t29 -10q9 -5 15 -14.5t8 -19.5
q5 -16 5 -33t-2 -34q-8 -78 -18.5 -154.5t-11.5 -154.5q0 -16 0.5 -32t3.5 -32q2 -13 6.5 -25.5t12.5 -23.5q10 -14 25 -21q6 -3 16.5 -4.5t22 -2t22.5 -0.5t17 2q22 6 37 26q10 13 14 29t6 32q4 32 2.5 64t-3.5 64q-6 72 -15 144q-2 22 -5.5 43.5t-5.5 44.5q-2 18 -1.5 37
t5.5 36q3 9 9.5 17t15.5 13q10 5 27.5 8t36 3.5t35.5 -2t28 -7.5q11 -6 18.5 -17t12.5 -22q9 -22 12.5 -45.5t5.5 -46.5q6 -58 9.5 -115.5t3.5 -115.5q-1 -44 -4 -88t-15 -86q-1 -1 -1 -4q-5 -24 -13 -47t-22 -43q-17 -24 -40 -43.5t-51 -30.5zM181 609q-2 -7 2 -11.5
t9.5 -6t11 1t7.5 10.5q4 16 2.5 32t-4.5 33q-2 6 -4.5 14.5t-7 16.5t-10 14t-12.5 8q-11 2 -16.5 -8.5t3.5 -18.5q7 -6 12 -16.5t7 -22.5t2 -24.5t-2 -21.5zM176 563q-4 -8 0.5 -15t12.5 -7q10 0 14.5 8t-1.5 16q-5 7 -14 6.5t-12 -8.5z" />
    <glyph glyph-name="V" unicode="V" horiz-adv-x="642" 
d="M360 -10q-35 -8 -72 -3q-17 2 -32.5 5.5t-29.5 12.5q-11 6 -18.5 15.5t-14.5 20.5q-14 23 -26 47t-23 49q-25 57 -47 115.5t-38 118.5q-8 26 -14 52.5t-13 52.5q-8 34 -16.5 67.5t-12.5 68.5q-2 17 -3 34t4 33q5 17 19 26q14 10 29.5 15t32.5 8q15 3 30.5 4t30.5 -3
q9 -2 18 -7t14 -13q7 -9 13.5 -32.5t12 -50t9.5 -51t6 -35.5q10 -58 22 -115t29 -114q10 -35 21.5 -70t31.5 -67q28 36 44 78.5t28 85.5q21 80 31.5 161.5t27.5 162.5q4 15 10 30.5t19 24.5q17 11 37 13t40 0q18 -2 37 -7t31 -18q10 -11 12.5 -32t1 -44.5t-5.5 -46t-7 -37.5
q-20 -118 -57 -231.5t-95 -217.5q-11 -20 -25 -39.5t-31 -34.5q-13 -11 -28.5 -19.5t-32.5 -12.5zM160 600q2 -8 7.5 -10.5t11 -1t9 6t2.5 12.5q-4 14 -7.5 28t-8.5 28q-3 10 -7 19t-10 17q-7 8 -17 4.5t-10 -14.5q0 -5 4 -10t6 -10q7 -17 11.5 -34.5t8.5 -34.5zM181 540
q10 -2 16 5.5t1 16.5t-15.5 8.5t-12.5 -11.5q-3 -15 11 -19z" />
    <glyph glyph-name="W" unicode="W" horiz-adv-x="852" 
d="M301 3q-32 -15 -71 -14.5t-71 16.5q-15 8 -26.5 21t-20.5 28q-16 26 -25.5 55t-17.5 58q-14 52 -21.5 105t-12.5 107q-7 69 -12 137.5t-13 137.5q-2 10 -2.5 21t4.5 20q6 12 19 20t29 12.5t33 6t30 0.5q19 -2 38 -8.5t33 -20.5q10 -9 13.5 -22.5t5.5 -26.5q2 -11 4 -37
t4.5 -59.5t5 -71t4.5 -71t4 -59.5t3 -36q2 -24 4.5 -48.5t12.5 -46.5q2 -5 8.5 -13t11.5 -10q5 -1 10 2.5t7 7.5q8 11 12 23t7 24q5 19 8.5 38t6.5 38q1 8 4 27.5t6.5 44t8 51.5t8.5 51.5t7.5 44t5.5 27.5t5 15.5t8 14.5q5 6 12 9t15 4q2 1 8 1h8q11 3 23.5 1.5t22.5 -8.5
q8 -6 13.5 -20t9 -31t5.5 -33.5t4 -26.5q1 -7 3.5 -23t5.5 -37t7 -45t7 -45t6 -37.5t4 -22.5q3 -17 7.5 -34.5t11.5 -34.5q3 -7 9 -15.5t13 -8.5q8 -1 14 7.5t10 16.5q5 11 7 23t4 23q2 13 4.5 43.5t5 70t5.5 84t6 84t6 70t5 43.5q2 10 6 19.5t12 16.5q11 11 26.5 17.5
t31.5 9.5q13 2 31 1.5t35.5 -4.5t32.5 -11.5t22 -19.5q5 -8 6 -17.5t0 -18.5q-11 -85 -16.5 -168.5t-16.5 -167.5q-5 -50 -14 -98t-23 -96q-10 -29 -22.5 -58.5t-35.5 -51.5q-11 -11 -25 -17.5t-28 -10.5q-27 -7 -56 -5.5t-54 13.5q-23 10 -43 41t-36.5 68.5t-29 75
t-18.5 61.5q-8 -32 -18 -63.5t-23 -62.5q-10 -24 -22 -47.5t-28 -44.5l-16 -16t-18 -13zM169 563q3 -6 8.5 -7.5t10.5 0.5t8 6.5t2 10.5q0 2 -1 9t-1.5 14.5t-1.5 14.5t-1 10q-2 17 -5.5 35t-11.5 34q-2 5 -5 9t-8 6q-6 3 -11 1t-8 -6t-2.5 -9.5t5.5 -9.5q3 -2 5 -11t3 -13
q6 -20 8.5 -41t4.5 -41q0 -8 1 -12zM179 512q5 -4 11.5 -3.5t10.5 5.5q7 9 1.5 18t-16.5 7q-10 -2 -12.5 -11.5t5.5 -15.5z" />
    <glyph glyph-name="X" unicode="X" horiz-adv-x="586" 
d="M470 -18q-17 -8 -38 -8t-37 10q-12 7 -24 22q-8 9 -24 34t-34 54t-33 54.5t-21 35.5q-17 -28 -32.5 -56t-32.5 -56q-11 -16 -21.5 -32t-23.5 -31q-5 -6 -10.5 -11.5t-13.5 -8.5q-15 -6 -31.5 -5t-32 8t-29 18t-21.5 25q-10 16 -12 36q-1 12 2 23t8 22q4 9 15 28.5
t26 44.5t31.5 52t31.5 51t27 43t18 28q-4 8 -12 25.5t-18.5 40.5t-21.5 48.5t-21 48.5t-17.5 41.5t-10.5 26.5q-9 27 -11 54q-1 10 1 20.5t8 18.5q7 9 21.5 18t31 15.5t33 11t27.5 4.5q9 -1 17.5 -2.5t16.5 -6.5q13 -7 21 -22q4 -8 12.5 -32t17.5 -51t16.5 -50.5t10.5 -32.5
q6 7 23 28t36 44t36 43.5t24 27.5q11 11 24 21.5t28 17.5q16 8 34 5q13 -2 24.5 -9.5t22.5 -15.5q14 -11 27 -23t21 -27q7 -11 10 -24.5t0 -25.5q-4 -15 -16 -28q-4 -4 -14.5 -15t-23.5 -25t-28.5 -29t-28.5 -29t-23.5 -25t-14.5 -15q-20 -21 -38 -43.5t-35 -45.5
q2 -5 9.5 -19t16.5 -29.5t16.5 -29.5t10.5 -18q20 -32 40 -62.5t39 -62.5q8 -15 16.5 -31t11.5 -34q2 -12 -2.5 -24t-13 -22.5t-20 -19t-22.5 -12.5zM206 609q8 -7 17 -1.5t7 16.5l-2 4l-2 4q-8 17 -13 36t-18 33l-8.5 8.5t-8.5 7.5q-6 3 -11.5 1t-8.5 -6t-2.5 -10t5.5 -10
q11 -8 17 -20t11 -25q2 -6 7 -20t10 -18zM216 566q5 -8 14 -8t13 8q5 9 -1 16.5t-16 5.5q-7 -2 -10 -8.5t0 -13.5z" />
    <glyph glyph-name="Y" unicode="Y" horiz-adv-x="581" 
d="M254 1q-11 -8 -24 -10.5t-26 -0.5q-17 3 -33 10.5t-28 19.5t-19.5 27t-6.5 32q1 16 13 51t27 73.5t30 73t21 49.5q-23 22 -43 45.5t-39 48.5q-34 44 -67.5 88t-54.5 95q-6 15 -10 31t-1 32q3 17 14 30.5t26.5 22.5t34 13.5t35.5 3.5q11 -1 21.5 -5.5t19.5 -11.5
q14 -12 24.5 -27t19.5 -30q24 -41 48 -80.5t54 -74.5q20 38 41.5 75t43.5 73q11 19 23 37t29 31q20 14 45 17q23 3 46 -2t40.5 -17.5t27 -31t5.5 -42.5q-3 -15 -11 -31q-5 -8 -21 -32t-35 -51t-35.5 -51t-21.5 -32q-36 -57 -65 -117.5t-55 -123.5q-6 -15 -16.5 -45.5
t-23.5 -63.5t-27 -61t-26 -38zM139 626q4 -8 10 -9t11.5 2.5t7 10t-3.5 13.5q-5 5 -8.5 11.5t-8.5 12.5q-1 1 -4 5t-6.5 8.5t-6.5 8.5t-4 5q-3 3 -13 9.5t-15 7.5q-6 2 -11 -1t-7 -8t0 -10.5t8 -8.5q2 -1 8 -4.5t8 -5.5q9 -11 18.5 -22t16.5 -25zM169 600q-3 -7 -0.5 -12.5
t7.5 -8t11.5 -1t9.5 8.5t0.5 12.5t-8 7.5t-11.5 1t-9 -8z" />
    <glyph glyph-name="Z" unicode="Z" horiz-adv-x="591" 
d="M485 9q-17 -1 -50 -3t-73.5 -3.5t-85.5 -3t-85.5 -1t-73 2t-48.5 5.5q-11 2 -20.5 6t-17.5 12q-5 5 -8.5 10.5t-5.5 11.5q-3 11 -3 22.5t2 22.5q4 20 11 39t15 37q45 105 100.5 204.5t121.5 192.5q-33 -2 -66 -4.5t-66 -2.5q-19 0 -38 0.5t-37 5.5q-18 4 -28.5 12.5
t-18.5 25.5q-5 11 -7 25.5t-0.5 29.5t6.5 28.5t14 21.5q8 8 18 11.5t20 5.5q15 2 30.5 1.5t30.5 -1.5q65 -2 129 4t128 9q27 2 53.5 1.5t52.5 -4.5q15 -3 29.5 -7t28.5 -12q8 -5 14.5 -11.5t10.5 -14.5q4 -9 4.5 -21.5t-2 -25t-7.5 -24t-12 -18.5q-6 -7 -11.5 -13t-11.5 -13
q-76 -95 -145.5 -195.5t-120.5 -211.5q13 1 48 4.5t75 7t75 5.5t48 1q17 -2 34 -7t29 -16q11 -10 16 -28q4 -14 4 -30.5t-4.5 -32t-13.5 -28.5t-22 -19q-15 -8 -32 -10zM497 680q6 -3 11 -1t8 6.5t2.5 10t-5.5 9.5q-3 3 -12 7t-13 5q-14 2 -29 3.5t-29 -1.5
q-8 -2 -10.5 -7.5t-1 -11t6 -9.5t11.5 -2q11 2 22.5 1t22.5 -2q5 -1 8.5 -3.5t7.5 -4.5zM522 649q7 -5 15 -2.5t10 10.5t-4.5 14t-14.5 4q-9 -2 -11 -11.5t5 -14.5z" />
    <glyph glyph-name="bracketleft" unicode="[" horiz-adv-x="407" 
d="M382 -10q-8 -5 -25 -6.5t-36 -1.5t-37 1t-27 1q-8 0 -31 0.5t-49.5 1t-50 1t-30.5 0.5q-14 1 -27.5 3t-24.5 9q-7 4 -11.5 12t-6.5 16v15t1 23.5t1.5 23.5t0.5 15q0 17 1 59.5t2 97.5t2 116.5t1.5 116.5t1 97.5t0.5 59.5v2q-3 12 -2 25t7 24q6 12 22 19q10 5 34 7.5t51 4
t52 2t36 0.5h30t41 -0.5t40 -3t28 -7.5q13 -8 16 -23q3 -10 4.5 -25t0.5 -31t-4.5 -30t-9.5 -22q-11 -14 -31 -17.5t-38 -4.5h-23h-36.5t-36.5 0.5t-22 0.5q-6 -112 -7 -222.5t4 -222.5q35 2 69 2.5t69 -1.5q15 -1 31 -2t27 -12q12 -11 14.5 -28.5t1.5 -33.5
q-1 -13 -6.5 -34t-16.5 -28zM288 690q2 0 8 -0.5t13 -0.5t13.5 -0.5t8.5 -0.5q7 0 11 4.5t4 10.5t-4 10.5t-12 4.5q-2 0 -9 0.5t-14.5 0.5t-14.5 0.5t-9 0.5h-16t-15 -3q-6 -5 -5.5 -13.5t8.5 -12.5q8 -3 16.5 -2t16.5 1zM354 682q2 -8 10 -11t14 2q8 6 5.5 15.5t-11.5 11.5
q-8 2 -14 -4t-4 -14z" />
    <glyph glyph-name="backslash" unicode="\" horiz-adv-x="483" 
d="M490 56q-8 -14 -22.5 -26t-32 -20t-36 -11t-34.5 0q-10 1 -22 10t-27 37.5t-30 62t-27.5 64t-18.5 44.5q-29 60 -60.5 117.5t-70.5 111.5q-6 8 -23.5 29.5t-37.5 46t-37 46.5t-22 31q-9 18 -5 34t17 30t31 26t36 21q14 8 30.5 14t32.5 3q20 -4 35 -18t28 -29q6 -7 21 -29
t31.5 -47t31 -47.5t19.5 -30.5q18 -30 36 -60.5t33 -62.5q5 -12 16 -35t25 -52t29 -61.5t27.5 -61.5t21.5 -53t11 -36t1 -24.5t-7 -23.5zM54 665q-4 -6 -3.5 -11.5t4.5 -9.5t9.5 -4.5t10.5 3.5q6 5 11.5 9.5t13.5 6.5q9 3 18.5 4.5t19.5 -0.5q7 -2 12 2t6 9.5t-2 11t-10 7.5
q-10 2 -23 0.5t-26 -5t-24 -10t-17 -13.5zM21 618q0 -10 8.5 -14t16.5 2q6 5 5 13.5t-9 12.5t-14.5 -1t-6.5 -13z" />
    <glyph glyph-name="bracketright" unicode="]" horiz-adv-x="408" 
d="M126 -17q-21 -1 -41.5 -0.5t-41.5 2.5q-6 1 -12.5 3t-10.5 7q-11 11 -14 27t-4 31t1 31t12 27q8 10 22 12.5t27 3.5q38 3 75.5 2.5t75.5 -2.5q5 112 4 222.5t-7 222.5q-26 0 -52.5 -0.5t-52.5 -0.5q-14 0 -28 1t-28 5q-16 3 -25 14q-8 10 -12 24q-2 10 -3 24.5t-0.5 29.5
t4 28.5t10.5 20.5q7 9 21 12q13 3 44.5 4t67 1t67.5 -1t45 -1q17 -1 35 -2.5t35 -7.5q19 -7 26 -21q6 -11 6.5 -24t-1.5 -25v-1v-51.5t1 -84t2 -100t1.5 -100t1.5 -84t1 -51.5v-19.5v-31t0.5 -31.5t0.5 -19q0 -17 3 -33.5t-4 -31.5q-5 -11 -18 -17t-26 -8q-11 -2 -40.5 -3
t-63 -2t-63.5 -1.5t-41 -0.5zM277 690q3 0 13 -2t13 -2q12 0 14 12t-8 17q-3 1 -6 1t-6 1q-17 3 -35.5 5t-35.5 -2q-8 -2 -10 -7.5t-0.5 -10.5t6.5 -9t13 -2q19 4 42 -1zM324 678q-2 -11 7 -17t17 1q6 5 6 12t-6 12t-14 2.5t-10 -10.5z" />
    <glyph glyph-name="asciicircum" unicode="^" horiz-adv-x="397" 
d="M100 440q-9 -2 -20.5 1t-22.5 8t-21 12t-16 14q-9 12 -10 24q-2 15 8 37.5t24.5 46t29 44.5t23.5 33q2 3 9.5 15t10.5 15q8 15 19.5 28t27.5 19q23 8 48 4t45 -19q8 -6 23 -25t30.5 -41t28.5 -42.5t19 -29.5q10 -15 18.5 -31.5t12.5 -34.5q2 -10 0 -21.5t-9 -19.5
q-5 -7 -15.5 -14t-22.5 -12t-24 -7.5t-21 -0.5q-15 2 -27 12.5t-20 23.5q-3 5 -10.5 20t-16 32.5t-16 32.5l-10.5 21l-24 -52t-26 -52q-8 -13 -19 -25.5t-26 -15.5zM255 631q11 -8 20 1t1 20l-3 3t-2 3q-5 7 -10.5 17.5t-12 20t-13.5 15t-16 3.5q-10 -2 -11.5 -12.5
t8.5 -15.5q3 -2 6.5 -6.5t7.5 -10.5t6.5 -11.5t4.5 -8.5q7 -12 14 -18zM294 602q-7 -3 -7 -9.5t4 -11.5t10 -6.5t11 4.5q10 12 3 20.5t-21 2.5z" />
    <glyph glyph-name="underscore" unicode="_" horiz-adv-x="402" 
d="M389 -141q-19 -8 -40 -11t-41 -3h-27.5t-44 0.5t-52.5 1t-52.5 1t-44 0.5t-27.5 1q-16 1 -31.5 2.5t-29.5 9.5q-10 5 -17.5 13.5t-11.5 18.5q-5 14 -5 30t5 31t14 27.5t23 20.5q13 7 27.5 8.5t28.5 2.5q29 1 57.5 0t57.5 -1q7 0 29.5 0.5t47.5 0.5h47h30q17 -2 33.5 -3
t31.5 -9q22 -12 28 -34q6 -21 4.5 -44.5t-14.5 -42.5q-9 -13 -26 -21zM233 -9q-8 -1 -12 -5.5t-3.5 -10t5 -10t12.5 -4.5q4 0 18 1t17 1q4 0 12 -0.5t16.5 0t15.5 2t10 4.5q8 8 1.5 16.5t-17.5 7.5q-19 -1 -37.5 -0.5t-37.5 -1.5zM352 -33q5 -9 16.5 -9t16.5 9q5 8 -1 14.5
t-16 6.5q-9 0 -15 -6.5t-1 -14.5z" />
    <glyph glyph-name="grave" unicode="`" horiz-adv-x="244" 
d="M222 555q-7 -9 -17 -16.5t-21.5 -12t-24 -5t-22.5 4.5q-7 3 -13 8.5t-11 10.5q-2 2 -5 6t-5 5q-21 16 -39.5 34.5t-32.5 41.5q-8 14 -15 29.5t-6 32.5q1 12 7 23t16 19t22 13.5t24 6.5q6 0 12.5 -0.5t12.5 -2.5q11 -5 19.5 -13t16.5 -16q3 -4 13.5 -16t21.5 -25.5
t21.5 -26t13.5 -16.5q8 -10 15 -21t9 -24q2 -10 -2 -20.5t-10 -19.5z" />
    <glyph glyph-name="a" unicode="a" horiz-adv-x="553" 
d="M528 7q-8 -7 -24.5 -12t-34.5 -8t-35.5 -4.5t-27.5 0.5q-11 2 -21.5 5t-18.5 11q-13 11 -16 29q-2 15 -3 29.5t-3 29.5q-37 8 -75.5 7t-76.5 -2q-5 -20 -10 -39.5t-14 -36.5q-7 -13 -15.5 -19.5t-22.5 -9.5q-17 -4 -35.5 -2.5t-36 8.5t-31.5 18.5t-21 26.5q-4 8 -5 16.5
t-1 16.5q0 12 4.5 36t11.5 54.5t15.5 64t16.5 63.5t14 54l9 36q17 63 42 127q3 9 13 33.5t21.5 52.5t22 52t15.5 33q10 17 23 33t32 21q6 2 20 3t29.5 1.5t29.5 0t20 -1.5q32 -6 49 -32q7 -10 16 -33t19 -52.5t20.5 -62t19.5 -62.5t16 -53.5t11 -35.5q5 -16 12 -43.5
t14.5 -62t14.5 -72t12 -71.5t7 -62.5t-1 -44.5q-2 -11 -7 -22t-14 -18zM383 568q1 -7 5 -10.5t9 -4.5t9.5 2t6.5 10q1 4 -1 11.5t-4.5 15.5l-5 16t-3.5 12q-12 35 -34 66q-5 7 -12.5 11.5t-14.5 0.5q-9 -4 -9 -13t9 -14q2 -1 4.5 -5t3.5 -6q9 -12 15 -26t11 -28
q1 -4 6 -18.5t5 -19.5zM400 510q2 -9 10 -12.5t15 2.5q7 5 5.5 13.5t-9.5 13.5q-8 4 -15.5 -2t-5.5 -15zM217 207q29 4 59.5 4t59.5 -5q1 -1 1 2.5t-1 5.5q-7 55 -19 108.5t-28 107.5q-23 -54 -40.5 -110t-31.5 -113z" />
    <glyph glyph-name="b" unicode="b" horiz-adv-x="563" 
d="M202 -6q-29 -4 -61.5 -3.5t-57.5 17.5l-2 1q-8 4 -16 8.5t-13 12.5q-6 6 -9.5 14.5t-5.5 16.5q-3 11 -5 35t-4 54.5t-3.5 64t-2.5 64t-2 54.5t-1 36q-1 33 1 65.5t4 65.5q1 8 3 31.5t5 49.5t5.5 49.5t4.5 31.5q4 17 10 35t20 29q10 9 23.5 11t26.5 4q39 5 78.5 5.5
t78.5 -3.5q34 -3 67.5 -10t62.5 -23q20 -11 38 -27t29 -36q19 -33 14 -71q-2 -19 -10 -36.5t-19 -32.5q-17 -20 -39 -36.5t-45 -28.5q19 -2 37.5 -6t35.5 -11q23 -10 44.5 -24.5t36.5 -34.5q17 -22 24.5 -49.5t6.5 -54.5q-1 -36 -16 -70t-37 -62q-23 -27 -52 -47.5
t-61 -35.5q-46 -20 -94.5 -32.5t-99.5 -20.5zM384 663q7 -3 11.5 -10t12.5 -7q11 0 14 10.5t-5 17.5q-7 5 -13.5 10.5t-14.5 10.5q-28 14 -58 20q-5 1 -10 0t-10 0q-7 1 -11.5 -2t-6 -8t0 -10.5t7.5 -8.5q5 -2 12 -0.5t13 -0.5q5 -1 10.5 -2t10.5 -3q2 0 7.5 -2.5t11.5 -5.5
l11 -5.5zM435 643q-7 -2 -10.5 -6.5t-3 -10t4.5 -9.5t12 -4t11.5 5t2.5 11t-5.5 10.5t-11.5 3.5zM243 634q-10 -32 -12.5 -64.5t-2.5 -65.5q23 5 46 14.5t39 27.5q9 10 11.5 22t-1 23t-12 20.5t-20.5 14.5q-11 5 -23.5 6.5t-24.5 1.5zM207 505v-2v-4q2 -2 1.5 1.5t-0.5 5.5z
M223 322q-7 -48 -3.5 -97.5t14.5 -97.5q19 3 44.5 10.5t49.5 18.5t43.5 26t25.5 33q7 23 -2 51.5t-29 43.5q-13 10 -28.5 14.5t-32.5 6.5q-20 2 -41 -1t-41 -8z" />
    <glyph glyph-name="c" unicode="c" horiz-adv-x="564" 
d="M319 -12q-47 -4 -95 7t-88 37q-29 19 -53 46.5t-38 59.5q-15 35 -22 72.5t-10 75.5q-9 105 11 211q9 45 25 88t45 77q17 20 39 34.5t45 25.5q60 26 129.5 26t128.5 -27q54 -25 86 -74t34 -108q1 -18 -3.5 -36.5t-14.5 -33.5q-12 -17 -27 -25q-12 -6 -26 -8t-28 -0.5
t-26.5 7t-19.5 16.5q-11 14 -14 31.5t-9 34.5q-9 30 -35 49q-13 11 -29 15t-33 0q-15 -4 -28 -14q-17 -11 -30 -27.5t-19 -36.5q-10 -28 -12.5 -57.5t-3.5 -59.5q0 -29 1 -58.5t6 -58.5q5 -28 15.5 -55.5t30.5 -47.5q9 -9 21 -16t25 -6q15 1 28 10.5t21 21.5q13 19 23 39
t23 38q15 21 37 28.5t43.5 2.5t39 -21t24.5 -41q7 -26 7 -53t-9 -52q-8 -24 -24 -45.5t-36 -37.5q-32 -25 -72.5 -38.5t-82.5 -15.5zM424 669q5 -6 11 -6t10.5 3.5t6 9.5t-3.5 12q-4 5 -13 10.5t-19.5 11t-20.5 9.5t-16 5q-6 2 -22.5 3.5t-22.5 0.5q-6 -2 -9 -6.5t-2 -10
t4.5 -9.5t10.5 -4q8 0 17 -0.5t17 -2.5q14 -4 26.5 -11t25.5 -15zM457 642q4 -8 12.5 -9t13.5 6q6 8 2 16.5t-13 8.5q-9 -1 -14 -7.5t-1 -14.5z" />
    <glyph glyph-name="d" unicode="d" horiz-adv-x="587" 
d="M229 -7q-29 -5 -58.5 -6t-57.5 7q-11 3 -21 7t-19 11q-5 4 -9.5 7t-9.5 8q-12 12 -17 34q-3 11 -5 35t-4 54.5t-3.5 64t-2.5 64t-2 54.5t-1 36q-1 33 1 65.5t4 65.5q1 8 3 31.5t5 49.5t5.5 49.5t4.5 31.5q2 13 6 25.5t12 23.5q8 14 22 22q9 4 19 4.5t20 2.5
q30 3 60.5 0.5t59.5 -7.5q24 -3 47.5 -8t46.5 -11t45.5 -14.5t42.5 -21.5q37 -24 68.5 -56t51.5 -70q17 -32 26.5 -68.5t11.5 -73.5q5 -60 -6 -120t-40 -112q-16 -27 -36.5 -51.5t-45.5 -43.5q-19 -14 -39.5 -25.5t-41.5 -20.5q-70 -32 -143 -44zM392 641q6 -5 12 -4
t9.5 5.5t3.5 10.5t-6 11q-2 2 -11 7.5t-11 7.5q-7 3 -19.5 7.5t-26.5 8t-27 5t-20 -0.5t-10 -6.5t-2.5 -10t4 -9.5t10.5 -4q10 0 20 -0.5t20 -3.5q14 -5 28.5 -10t25.5 -14zM431 637q-9 -8 -5 -18t15 -10q6 0 10.5 4.5t4.5 10.5q0 10 -8.5 14.5t-16.5 -1.5zM204 150
q27 -3 55 0.5t52 15.5q31 15 56 43q30 34 44.5 80.5t13.5 93.5q0 35 -10.5 69t-31.5 62q-19 27 -51 45q-24 14 -53 17.5t-57 -1.5q-1 -4 -3 -15.5t-5 -24.5t-5 -24.5t-3 -15.5q-12 -86 -10.5 -172.5t8.5 -172.5z" />
    <glyph glyph-name="e" unicode="e" horiz-adv-x="519" 
d="M397 5q-63 -5 -126 -6.5t-126 2.5l-38 2t-36 10q-14 7 -23 21.5t-12 29.5q-2 11 -4 35t-4 54.5t-3.5 64.5t-2.5 65t-2 55.5t-1 35.5q0 15 0.5 41t2.5 58t5 66.5t7 66t9 56.5t11 38q8 20 24 30q11 6 23 7.5t24 2.5q89 5 177 -2t177 -15q6 -1 11.5 -2.5t10.5 -6.5
q6 -5 9.5 -12.5t5.5 -15.5q3 -11 2.5 -25t-3.5 -28.5t-9 -26.5t-14 -19q-9 -8 -21 -9q-14 -2 -49 -1t-74 3t-74 5t-49 5q-8 -39 -15 -78t-10 -78q12 -1 39 -2t57.5 -3t57.5 -5t38 -7q16 -6 21 -23q1 -6 0.5 -16.5t-1 -22.5t-2 -23t-3.5 -16q-7 -17 -19 -24q-12 -8 -38.5 -10
t-55.5 -1.5t-56 3t-42 3.5q1 -32 3 -63t4 -63q38 -3 75 -1.5t74 3.5q21 1 41.5 3.5t41.5 0.5q12 -1 24 -5.5t20 -14.5q9 -12 11 -28.5t1 -31.5q0 -14 -2.5 -29.5t-11.5 -26.5q-5 -8 -14 -13t-18 -7q-12 -3 -24 -4zM387 682q4 0 11 -1t14.5 -2t14.5 -0.5t10 3.5q7 5 5.5 13.5
t-9.5 11.5q-3 2 -6.5 2h-6.5q-6 0 -19.5 1t-29 2t-29.5 1.5t-19 -0.5q-12 -3 -11 -15t13 -14q3 0 12 -0.5t19 -1t19 -0.5h12zM459 675q6 -8 15.5 -6t11.5 12t-6.5 16t-17.5 0q-5 -4 -6.5 -10.5t3.5 -11.5zM327 107h20h29t29 1t20 3q11 5 9 17t-14 12q-3 0 -11.5 -0.5
t-17.5 -1t-17.5 -1.5t-11.5 -1q-8 0 -24.5 1t-22.5 -4q-8 -7 -3.5 -16.5t15.5 -9.5zM451 109q5 -2 11 0.5t8 7.5q4 10 -3 17t-17 4q-9 -4 -8.5 -15t9.5 -14z" />
    <glyph glyph-name="f" unicode="f" horiz-adv-x="546" 
d="M189 22q-17 -16 -43 -19.5t-49 1.5q-12 3 -23.5 8.5t-19.5 14.5q-12 12 -17 34q-3 11 -5 35t-4 54.5t-3.5 64t-2.5 64t-2 54.5t-1 36q-1 33 1 65.5t4 65.5q1 8 3 31.5t5 49.5t5.5 49.5t4.5 31.5q4 19 11 38t24 30q7 5 24.5 8t37.5 5.5t38 3.5t27 1q61 2 122 3t122 -6
q17 -2 34.5 -6t32.5 -12q21 -11 30 -31q5 -12 5 -25.5t-1 -26.5q-2 -13 -4.5 -25.5t-9.5 -23.5q-11 -19 -30 -23q-14 -5 -30 -3t-31 4q-112 20 -220 11q-7 -33 -13.5 -66.5t-9.5 -67.5q49 3 98 4.5t97 -4.5q13 -2 26 -6.5t21 -15.5t10.5 -26.5t0.5 -29.5q-1 -14 -5 -28
t-14 -24q-10 -9 -30.5 -12.5t-43.5 -3.5t-45.5 2t-35.5 3q-21 1 -42 1.5t-42 -0.5v-15.5t0.5 -24.5t1 -24.5t0.5 -15.5q2 -37 6 -73.5t3 -73.5q-1 -16 -3.5 -33t-14.5 -28zM445 696q7 -5 13 -2.5t9 7.5t1.5 11.5t-8.5 10.5q-3 1 -8.5 2.5t-12.5 2.5t-12.5 1.5t-8.5 0.5
q-4 0 -12.5 0.5t-17.5 0.5t-17.5 -0.5t-11.5 -1.5q-10 -5 -9 -15.5t12 -12.5q2 -1 8 -1t12.5 0.5t13 0.5h8.5q8 -1 15.5 -1.5t15.5 -2.5h5.5t4.5 -1zM486 706q-7 -3 -8 -9t1 -11t7.5 -7.5t12.5 0.5t8 9t-1 11t-7.5 7.5t-12.5 -0.5z" />
    <glyph glyph-name="g" unicode="g" horiz-adv-x="570" 
d="M402 4q-48 -17 -101.5 -18.5t-101.5 14.5q-29 10 -55.5 26t-47.5 38q-25 25 -41 56.5t-26 65.5q-16 54 -18.5 111t2.5 114q5 61 19.5 122.5t49.5 111.5q26 37 68 61t90 34.5t98 6.5t91 -23q41 -18 74 -53q20 -21 33.5 -47.5t18.5 -55.5q7 -39 -5 -78q-6 -17 -18 -29.5
t-27.5 -19t-33 -7t-34.5 6.5q-21 7 -32 29q-7 15 -9.5 31t-9.5 31q-7 16 -18.5 29.5t-26.5 21.5q-18 9 -36.5 7.5t-35 -10.5t-29.5 -24t-21 -33q-11 -26 -14.5 -53.5t-5.5 -55.5q-1 -42 1 -83t12 -81q4 -15 10 -29.5t15 -28.5t22.5 -26t30.5 -14q14 -2 28 5.5t23 18.5
q18 21 26 49.5t6 56.5l-15 -3t-20.5 -3.5t-20.5 -2t-14 1.5q-8 3 -14 9.5t-9 14.5q-6 14 -8 29.5t3 29.5q3 15 14 24q8 7 18.5 9.5t21.5 3.5q17 1 33 -1.5t32 -4.5q6 -1 24 -1t38.5 -0.5t38.5 -1.5t24 -2q12 -3 18.5 -13t10 -24t5 -29t1.5 -27q2 -41 -2.5 -82.5t-19.5 -79.5
q-9 -21 -21 -41t-29 -36q-17 -17 -37.5 -28.5t-42.5 -19.5zM424 670q5 -6 11.5 -6t11 3t6 9t-3.5 12q-4 5 -13.5 11t-20 11t-21 9t-16.5 6q-3 0 -8.5 1t-12.5 1.5t-12.5 0.5h-8.5q-7 -1 -10 -6t-2.5 -10t4.5 -9.5t11 -4.5q8 0 20 -2.5t25 -6t24 -8.5t16 -11zM469 633
q14 -2 19.5 8.5t-7.5 19.5q-6 4 -12 1t-8.5 -9t-1 -12.5t9.5 -7.5z" />
    <glyph glyph-name="h" unicode="h" horiz-adv-x="619" 
d="M159 6q-16 -5 -34 -4.5t-34.5 5.5t-29.5 15t-19 25q-5 12 -8.5 35.5t-5.5 53.5t-3.5 63.5t-2.5 63.5t-1.5 54.5t-0.5 37.5q-3 70 2 139t15 138q3 24 9.5 49.5t23.5 42.5q11 11 28.5 13.5t34.5 1.5t33.5 -3.5t32.5 -8.5q11 -5 20 -11t15 -15q8 -14 6 -30q-1 -20 -5.5 -40
t-9.5 -40q-9 -38 -15 -75.5t-10 -75.5q48 7 96 5t95 -13q2 52 6 104t11 104q4 23 10 46t22 40q12 12 30 14t34 1q18 -1 37.5 -4t35 -10.5t25.5 -20t9 -30.5q0 -9 -5 -34.5t-11 -54.5t-11.5 -54.5t-6.5 -34.5q-9 -63 -10 -126t1 -126q0 -14 3 -44t5 -62t1 -61t-7 -42
q-5 -11 -14.5 -17t-20.5 -11q-14 -5 -31 -6t-33 2t-30 11t-22 20q-9 14 -14 46t-7.5 67.5t-3 68.5t-0.5 50q-45 20 -97 18.5t-100 -13.5q0 -16 3 -50t5.5 -70.5t2 -69.5t-7.5 -47q-5 -12 -17 -19.5t-24 -10.5zM183 621q-2 -6 -0.5 -11t5 -8t8.5 -3.5t10 3.5t7.5 12t3.5 17.5
t1 19t-1 15.5q-2 11 -6.5 22.5t-12.5 19.5t-19.5 11.5t-19.5 -4.5q-7 -8 -1.5 -16.5t16.5 -8.5q12 -12 14 -32t-5 -37zM180 552q8 -3 15 2t6 14q-1 10 -10 13.5t-16 -4.5q-5 -6 -4 -13.5t9 -11.5z" />
    <glyph glyph-name="i" unicode="i" horiz-adv-x="248" 
d="M160 6q-20 -6 -42 -5t-41 10q-13 6 -23 16.5t-14 23.5q-5 15 -6.5 30.5t-3.5 30.5q-4 44 -5.5 87t-1.5 86q0 3 -0.5 13.5t-1 21.5t-1 21.5t-0.5 13.5q-2 40 0 80t5 80q3 32 5.5 62.5t7.5 61.5q2 15 5.5 30t9.5 29q5 10 11 19t16 14q13 7 28 7.5t29 -0.5q18 -1 36.5 -4.5
t33.5 -11t24.5 -19t8.5 -29.5q-1 -20 -5.5 -40t-9.5 -40q-20 -83 -26 -165q-3 -44 -3 -87t1 -87q1 -42 5.5 -82.5t5.5 -82.5q0 -14 -1 -28.5t-8 -26.5q-5 -11 -16.5 -18t-22.5 -11zM183 621q-3 -7 -0.5 -12.5t7.5 -8t11 -1.5t9 8q3 8 4 15.5t3 15.5q5 29 -8 56
q-5 11 -17.5 19.5t-24.5 5.5q-7 -2 -9.5 -6.5t-1.5 -10t5.5 -9t11.5 -3.5q1 0 2.5 -1.5l2.5 -2.5q7 -7 9 -17.5t1 -19.5q0 -4 -1.5 -14.5t-3.5 -13.5zM176 554q7 -5 14.5 -2t9.5 11q2 10 -5 16t-16 1q-8 -4 -9 -12.5t6 -13.5z" />
    <glyph glyph-name="j" unicode="j" horiz-adv-x="524" 
d="M239 -12q-38 0 -77 7t-71 27q-25 16 -44 40.5t-29 51.5q-7 19 -11.5 47.5t-4.5 59t5 57.5t17 43q6 9 16 14.5t21 7.5q16 3 32 2.5t32 -2.5t30 -9.5t23.5 -18.5t12.5 -25t-3 -29q-10 -23 -5.5 -52t24.5 -43q18 -13 40 -5.5t36 25.5q11 16 17 34.5t9 38.5q12 92 11.5 185
t-20.5 184q-3 14 -7.5 26.5t-3.5 26.5q0 22 17 37q10 10 22 15.5t26 8.5q15 3 34 5t38 0.5t34 -8.5t23 -20q10 -18 12.5 -38t3.5 -40l3 -51q5 -54 6.5 -108t-0.5 -108q-2 -47 -7 -93.5t-17 -92.5q-8 -28 -18.5 -54.5t-26.5 -50.5q-28 -45 -74 -68q-29 -14 -61.5 -20
t-64.5 -7zM409 702q7 -3 12.5 -0.5t7.5 7.5t1 11t-8 9q-10 5 -29.5 5.5t-29.5 -4.5q-6 -3 -8 -8.5t-0.5 -10.5t6 -8.5t11.5 -1.5q6 2 19 2.5t18 -1.5zM441 695q0 -8 7 -12.5t15 -1.5q8 5 8 14t-8 14q-8 3 -15 -1.5t-7 -12.5z" />
    <glyph glyph-name="k" unicode="k" horiz-adv-x="546" 
d="M491 2q-12 -6 -26.5 -8t-29.5 -0.5t-28.5 7t-21.5 15.5t-13 21.5t-9 23.5q-8 23 -16 46.5t-20 45.5q-9 16 -24 36t-32.5 37.5t-36.5 29.5t-37 11q1 -45 5.5 -88.5t5.5 -88.5q0 -14 -1 -28.5t-8 -26.5q-5 -11 -16.5 -18t-22.5 -11q-20 -6 -42 -5t-41 10q-13 6 -23 16.5
t-14 23.5q-5 15 -6.5 30.5t-3.5 30.5q-4 44 -5.5 87t-1.5 86q0 3 -0.5 13.5t-1 21.5t-1 21.5t-0.5 13.5q-2 40 0 80t5 80q3 32 5.5 62.5t7.5 61.5q2 15 5.5 30t9.5 29q5 10 11 19t16 14q13 7 28 7.5t29 -0.5q18 -1 36.5 -4.5t33.5 -11t24.5 -19t8.5 -29.5q-1 -20 -5.5 -40
t-9.5 -40q-16 -69 -24 -140q8 3 16 5.5t15 7.5q47 27 81 71.5t54 94.5q6 14 11 27t13 26q10 16 25.5 24.5t33 8.5t34.5 -7t30 -22q13 -14 20 -34t6 -40q-1 -23 -9 -44.5t-21 -39.5q-15 -23 -33.5 -43t-38.5 -38q-45 -42 -96 -71q30 -16 55.5 -38.5t46.5 -48.5q28 -35 49 -75
t32 -83q7 -32 4 -67q-2 -11 -5 -22.5t-9 -21.5q-8 -14 -24 -22zM183 621q-3 -7 -0.5 -12.5t7.5 -8t11 -1.5t9 8q3 8 4 15.5t3 15.5q5 29 -8 56q-5 11 -17.5 19.5t-24.5 5.5q-7 -2 -9.5 -6.5t-1.5 -10t5.5 -9t11.5 -3.5q1 0 2.5 -1.5l2.5 -2.5q7 -7 9 -17.5t1 -19.5
q0 -4 -1.5 -14.5t-3.5 -13.5zM176 554q7 -5 14.5 -2t9.5 11q2 10 -5 16t-16 1q-8 -4 -9 -12.5t6 -13.5z" />
    <glyph glyph-name="l" unicode="l" horiz-adv-x="443" 
d="M303 -11q-52 -1 -106 0q-20 1 -39.5 3t-38.5 7q-14 3 -28 7t-26 12q-17 12 -24 29q-5 11 -8 34.5t-5.5 53t-3.5 62.5t-2 63t-1.5 54t-0.5 37q-3 66 2 130.5t13 130.5q2 21 5.5 43t11.5 42q6 14 17 27q11 11 29 13.5t34 1.5q17 -1 34 -3.5t33 -8.5q10 -5 19.5 -11
t14.5 -15q5 -7 6 -14.5t1 -15.5q-2 -20 -6 -39.5t-9 -39.5q-8 -33 -13.5 -66.5t-9.5 -68.5q-10 -82 -6 -165t10 -166q26 0 52 1.5t52 3.5q17 2 35 3t35 1q9 0 18.5 -1t17.5 -4q22 -8 28 -33.5t1 -48.5q-2 -10 -8 -19.5t-15 -15.5q-8 -5 -16.5 -8t-16.5 -5q-21 -5 -42.5 -7
t-43.5 -4zM183 621q-5 -10 2.5 -18t17.5 -3q5 2 7 7t3 10q5 19 4.5 39t-8.5 37q-5 11 -16 19.5t-23 7.5q-8 -1 -11.5 -5.5t-3 -10t4.5 -10t12 -4.5q5 0 8 -6t5 -11q8 -28 -2 -52zM179 552q8 -3 15 2t7 14q-1 10 -10.5 13.5t-16.5 -4.5q-5 -6 -3.5 -13.5t8.5 -11.5z" />
    <glyph glyph-name="m" unicode="m" horiz-adv-x="801" 
d="M714 5q-18 -6 -37.5 -6.5t-36.5 5.5t-30 18t-19 31q-4 13 -7 46.5t-5 71t-3.5 70.5t-1.5 47q-14 -36 -28.5 -72t-26.5 -73q-8 -24 -19 -47t-29 -41q-11 -11 -28.5 -18t-36.5 -9.5t-37.5 0t-32.5 10.5q-13 7 -22 18q-6 8 -12 28t-11.5 42.5t-10 43t-6.5 29.5
q-17 75 -33.5 150t-33.5 150q-10 -62 -11 -124.5t1 -125.5q0 -15 3 -45t5 -63t1.5 -62.5t-7.5 -42.5q-5 -11 -17 -18t-24 -11q-15 -4 -32 -4t-33 4.5t-29.5 13t-20.5 22.5q-8 18 -9.5 37.5t-3.5 39.5q-5 63 -7 124.5t-4 124.5q0 14 0.5 40t2.5 57.5t5 66.5t6.5 66.5t8 57
t9.5 38.5q4 9 9 18t13 15q12 10 32.5 12t44 -0.5t45.5 -8t37 -9.5q15 -5 29.5 -13t25.5 -19q13 -14 21 -32t14 -37q13 -43 23.5 -86t20.5 -87q3 -11 9.5 -43t14 -69t14 -69.5t8.5 -43.5q12 28 21.5 55.5t18.5 56.5q16 48 31 96.5t29 96.5q4 13 12.5 40.5t19 56.5t21.5 54.5
t22 35.5q12 10 31 13q32 8 66.5 8.5t65.5 -10.5q10 -4 19 -10t15 -14q5 -6 7 -14t2 -16q0 -9 -4.5 -32t-10 -49t-10.5 -49t-6 -32q-13 -65 -13.5 -130.5t1.5 -131.5q0 -15 3 -45.5t5 -63.5t1.5 -63t-7.5 -43q-5 -11 -16 -18t-22 -10zM248 649q7 -8 17 -5t10 14q0 8 -11 17
t-19 14q-26 16 -57 21q-6 1 -11.5 3t-11.5 1q-12 -3 -12 -15t12 -15q15 -3 30.5 -6.5t29.5 -11.5l12 -8t11 -9zM279 626q-7 -3 -6.5 -9.5t4.5 -11.5t9.5 -6.5t10.5 4.5q10 11 3 20t-21 3z" />
    <glyph glyph-name="n" unicode="n" horiz-adv-x="685" 
d="M637 32q-5 -11 -16.5 -18.5t-25.5 -11t-29 -4t-27 1.5h-14q-28 4 -54 16.5t-47 31.5q-24 22 -42 50t-32 57q-32 64 -60 132q-3 6 -11.5 25.5t-17.5 42t-17.5 42t-11.5 25.5q-13 28 -29 48q-6 -56 -7 -111.5t1 -111.5q2 -42 6.5 -82t3.5 -82q-1 -16 -3.5 -33t-14.5 -28
q-17 -16 -43 -19.5t-49 1.5q-12 3 -23.5 8.5t-19.5 14.5q-12 12 -17 34q-3 11 -5 35t-4 54.5t-3.5 64t-2.5 64t-2 54.5t-1 36q-1 33 1 65.5t4 65.5q1 8 3 31.5t5 49.5t5.5 49.5t4.5 31.5q4 17 10.5 35.5t20.5 29.5q9 7 24 9.5t32.5 2.5t34 -3t27.5 -6l1 -1q8 0 15 -3.5
t14 -7.5q23 -12 40 -31.5t31 -42.5q27 -46 47 -95t38.5 -99t38 -100t44.5 -96q0 5 -0.5 21t-1 34t-1.5 34t-1 21q-1 49 2.5 97.5t8.5 97.5q0 5 1.5 19.5t3.5 30.5t4 30t3 19q3 17 9 33t18 29q8 9 23 12.5t32 3.5t33.5 -2.5t28.5 -5.5q12 -4 23.5 -9.5t19.5 -14.5
q13 -16 11 -38q-1 -8 -6 -33l-10.5 -52.5l-10.5 -52.5t-6 -33q-8 -55 -10 -110.5t-1 -110.5q1 -15 1 -30t2 -30q1 -13 3.5 -38.5t3.5 -53.5t0 -53t-6 -37zM258 605q3 -7 9.5 -8t11.5 2t7.5 8.5t-1.5 11.5q-9 15 -20 29.5t-25 25.5q-14 13 -31.5 20.5t-35.5 12.5
q-9 2 -14.5 -2.5t-7 -10.5t2.5 -11.5t13 -5.5q10 0 19.5 -4.5t18.5 -9.5q6 -3 14 -10t15.5 -16t14 -17.5t9.5 -14.5zM297 581q-7 3 -12 -1t-6.5 -10t1 -12t10.5 -6q16 0 18.5 11t-11.5 18z" />
    <glyph glyph-name="o" unicode="o" horiz-adv-x="580" 
d="M343 -6q-92 -26 -175 23q-31 18 -55.5 43.5t-43.5 55.5q-26 42 -41 91t-19 99q-7 78 12 157.5t64 143.5q22 31 50 57t62 43q29 14 61.5 20.5t64.5 3.5q49 -6 90 -31q32 -19 58.5 -47.5t45.5 -60.5q32 -56 46 -121.5t9 -129.5q-4 -55 -19 -109t-44 -101t-72 -84.5
t-94 -52.5zM413 630q4 -5 10 -5.5t10.5 2.5t6 8t-1.5 11q-2 4 -8 11t-13.5 13.5t-14.5 12t-11 7.5q-5 2 -13 5.5t-17 6t-17 4t-13 0.5q-11 -2 -12 -12.5t9 -15.5q2 -1 9.5 -2t9.5 -1q15 -4 31 -12q11 -6 19 -14.5t16 -18.5zM449 617q-8 -2 -9.5 -7.5t0.5 -11.5t7 -9t12 0
t9 8.5t0.5 10.5t-7 8t-12.5 1zM188 273q4 -18 12.5 -38t20.5 -37t28 -28t34 -11q22 0 40 15q18 12 31 34q14 23 22.5 47.5t13.5 50.5q8 47 3 96t-26 91q-9 19 -24 36t-35 24q-17 6 -33 1t-30 -16.5t-25 -28t-18 -33.5q-20 -48 -23 -100.5t9 -102.5z" />
    <glyph glyph-name="p" unicode="p" horiz-adv-x="544" 
d="M189 22q-17 -16 -43 -19.5t-49 1.5q-12 3 -23.5 8.5t-19.5 14.5q-12 12 -17 34q-3 11 -5 35t-4 54.5t-3.5 64t-2.5 64t-2 54.5t-1 36q-1 33 1 65.5t4 65.5q1 8 3 31.5t5 49.5t5.5 49.5t4.5 31.5q4 17 10 35t20 29q11 10 26 11.5t29 1.5q3 0 15.5 0.5t15.5 0.5
q54 2 107 0.5t106 -12.5q35 -7 68.5 -24.5t56.5 -45.5q23 -26 34.5 -60.5t13.5 -69.5q0 -19 -3 -38t-11 -36q-9 -23 -24.5 -42t-33.5 -36q-22 -20 -47.5 -34.5t-52.5 -25.5q-25 -11 -50 -20t-51 -14q-19 -4 -37.5 -7t-37.5 -6q2 -47 7 -93t4 -93q-1 -16 -3.5 -33t-14.5 -28z
M421 655q11 -8 20 1.5t1 20.5q-2 2 -6.5 6t-10 8t-10.5 7.5t-8 4.5q-38 20 -83 20h-9.5t-9.5 -2q-5 -3 -7 -7.5t-1 -9t5 -8t10 -3.5h18t18 -1q4 0 11.5 -2.5t15.5 -5.5t15.5 -6.5t10.5 -5.5q5 -4 10 -8.5t10 -8.5zM440 629q5 -7 13.5 -6t12.5 9t-2 15.5t-15 5.5
q-8 -2 -11 -10t2 -14zM207 501q-4 -22 -5.5 -43.5t-3.5 -42.5q35 5 70 10.5t67 21.5q15 7 26.5 19.5t16.5 27.5t4 30.5t-10 30.5q-8 13 -22 20.5t-28 11.5q-23 7 -47.5 8t-48.5 -1q-1 -4 -3.5 -17.5t-6 -29t-6 -29t-3.5 -17.5z" />
    <glyph glyph-name="q" unicode="q" horiz-adv-x="582" 
d="M569 -14q0 -24 -12.5 -43t-31 -29t-40.5 -10t-43 13q-24 15 -41 38.5t-30 49.5q-26 -12 -55.5 -17t-58.5 -1q-52 4 -99 36q-27 17 -49.5 41t-39.5 52q-26 42 -41 91t-19 99q-7 78 12 157.5t64 143.5q22 31 50 57t62 43q29 14 61.5 20.5t64.5 3.5q32 -4 62 -17t56 -33
q43 -34 72.5 -83t43.5 -103q16 -60 16.5 -124.5t-16.5 -124.5q-11 -43 -30.5 -84t-48.5 -75q21 -19 46 -37q8 -7 16.5 -13t15.5 -14q13 -16 13 -37zM413 630q4 -5 10 -5.5t10.5 2.5t6 8t-1.5 11q-2 4 -8 11t-13.5 13.5t-14.5 12t-11 7.5q-5 2 -13 5.5t-17 6t-17 4t-13 0.5
q-11 -2 -12 -12.5t9 -15.5q2 -1 9.5 -2t9.5 -1q15 -4 31 -12q11 -6 19 -14.5t16 -18.5zM449 617q-8 -2 -9.5 -7.5t0.5 -11.5t7 -9t12 0t9 8.5t0.5 10.5t-7 8t-12.5 1zM188 273q6 -23 16 -45.5t24 -39.5t32.5 -25t40.5 -1q-10 21 -12 45q0 17 8.5 29t21 16.5t26.5 0.5t24 -18
q24 54 26 117.5t-19 119.5q-9 25 -25.5 49t-42.5 32q-17 6 -33 1t-30 -16.5t-25 -28t-18 -33.5q-20 -48 -23 -100.5t9 -102.5z" />
    <glyph glyph-name="r" unicode="r" horiz-adv-x="552" 
d="M464 -10q-20 -2 -40 2.5t-36 15.5q-10 8 -16.5 19t-10.5 23q-5 20 -8.5 41t-9.5 41q-7 21 -20 39.5t-29 34.5q-20 19 -45 34.5t-52 20.5q1 -45 6 -89t4 -89q-1 -16 -3.5 -33t-14.5 -28q-17 -16 -43 -19.5t-49 1.5q-12 3 -23.5 8.5t-19.5 14.5q-12 12 -17 34q-3 11 -5 35
t-4 54.5t-3.5 64t-2.5 64t-2 54.5t-1 36q-1 33 1 65.5t4 65.5q1 8 3 31.5t5 49.5t5.5 49.5t4.5 31.5q4 17 10 35t20 29q11 10 26 11.5t29 1.5q3 0 15.5 0.5t15.5 0.5q54 2 107 0.5t106 -12.5q35 -7 68.5 -24.5t56.5 -45.5q23 -26 34.5 -60.5t13.5 -69.5q0 -19 -3 -38
t-11 -36q-9 -23 -24.5 -42t-33.5 -36q-23 -20 -49 -35t-54 -27q31 -17 59.5 -38t49.5 -49q17 -22 28 -47.5t16 -51.5q4 -24 4 -48.5t-8 -47.5q-14 -39 -54 -42zM421 655q11 -8 20 1.5t1 20.5q-2 2 -6.5 6t-10 8t-10.5 7.5t-8 4.5q-38 20 -83 20h-9.5t-9.5 -2q-5 -3 -7 -7.5
t-1 -9t5 -8t10 -3.5h18t18 -1q4 0 11.5 -2.5t15.5 -5.5t15.5 -6.5t10.5 -5.5q5 -4 10 -8.5t10 -8.5zM440 629q5 -7 13.5 -6t12.5 9t-2 15.5t-15 5.5q-8 -2 -11 -10t2 -14zM207 501q-4 -22 -5.5 -43.5t-3.5 -42.5q35 5 70 10.5t67 21.5q15 7 26.5 19.5t16.5 27.5t4 30.5
t-10 30.5q-8 13 -22 20.5t-28 11.5q-23 7 -47.5 8t-48.5 -1q-1 -4 -3.5 -17.5t-6 -29t-6 -29t-3.5 -17.5z" />
    <glyph glyph-name="s" unicode="s" horiz-adv-x="502" 
d="M334 4q-38 -11 -78 -12.5t-80 1.5q-30 2 -60 6t-58 15q-19 7 -30 19q-10 11 -14.5 28t-4.5 35t5 36t13 31q7 11 17 15q9 5 19 6.5t20 1.5q31 -1 60.5 -9t58.5 -16q20 -5 41 -7t41 4q25 8 39 29t4 46q-5 12 -15.5 22t-21.5 17q-17 10 -35.5 15.5t-35.5 12.5
q-30 11 -59.5 24.5t-57.5 30.5q-21 13 -40 30t-30 39q-13 24 -18 51t-3 54.5t11 53.5t25 48q12 17 28 30t34 24q23 14 50 22t54 12q42 5 83 3.5t82 -8.5q19 -3 37 -7t36 -11q5 -2 10.5 -5t10.5 -8q11 -11 16.5 -27t5.5 -34.5t-4.5 -36.5t-12.5 -31q-6 -13 -19 -19
q-10 -5 -21.5 -6t-22.5 -1q-31 2 -61 10.5t-61 16.5q-18 4 -37 4.5t-37 -4.5q-11 -4 -20.5 -10.5t-16.5 -15.5q-9 -14 -9 -32.5t12 -29.5q15 -14 35 -20.5t40 -12.5q52 -16 99.5 -43.5t85.5 -65.5q13 -12 21.5 -26.5t14.5 -30.5q18 -52 9 -108q-5 -24 -15.5 -46.5
t-26.5 -41.5q-22 -26 -51.5 -42.5t-61.5 -25.5zM403 664q10 -2 16 6t1 16q-2 5 -6.5 6.5t-9.5 3.5q-5 1 -14 3.5t-19 4.5t-19.5 2.5t-14.5 -0.5q-11 -5 -10 -16t12 -13q4 -1 8 -1h8q12 -2 24 -5.5t24 -6.5zM435 657q-3 -9 5 -14.5t16 -1.5t7.5 13t-7.5 14q-6 5 -12.5 0.5
t-8.5 -11.5z" />
    <glyph glyph-name="t" unicode="t" horiz-adv-x="478" 
d="M281 27q-6 -12 -17.5 -19.5t-26 -11.5t-30 -4t-28.5 3q-11 2 -22 7t-19 13q-12 11 -17 26q-4 11 -7 35t-5.5 53.5t-4 62.5t-2 63t-1.5 54.5t-1 36.5q-2 56 2 111t10 110q-15 -2 -30 -3.5t-29 0.5t-27 10t-20 21q-6 11 -8 25.5t-0.5 29.5t6.5 28t13 22q13 13 30.5 19
t35.5 10q26 6 53.5 7.5t54.5 2.5q11 1 42 1h66.5t66.5 -1t42 -2q10 -2 20 -3t18 -6q17 -9 27 -28q5 -10 7 -24.5t1 -30t-4.5 -29.5t-9.5 -23q-9 -12 -25.5 -16.5t-31.5 -5.5q-5 0 -20 1t-32 2.5t-32 3t-20 1.5q-5 -26 -11 -52t-9 -52q-8 -60 -9 -118.5t1 -118.5q0 -14 3 -44
t5 -63t1.5 -62t-6.5 -42zM405 685q7 -3 12 -0.5t7.5 7.5t1 11t-8.5 9q-5 3 -11.5 3.5t-12.5 2.5q-11 4 -24 4h-25q-8 0 -12 -4.5t-4 -10.5t4 -10.5t12 -4.5h21t21 -3q2 -1 9.5 -2t9.5 -2zM437 689q-7 -3 -6.5 -9.5t4.5 -11.5t9.5 -7t10.5 4q10 12 3 21t-21 3z" />
    <glyph glyph-name="u" unicode="u" horiz-adv-x="592" 
d="M431 21q-32 -13 -68 -18t-72 -3q-42 2 -84 9t-78 29q-19 11 -34.5 27t-27.5 35q-13 19 -20 41t-12 45l-1 3q-8 26 -11.5 53.5t-5.5 54.5q-5 75 -1 149t12 149l4 36t7 35q3 12 7.5 23.5t12.5 20.5q12 15 32 21q18 5 37.5 4.5t38.5 -2.5q19 -1 37 -9q18 -10 24 -29
q8 -20 7 -42.5t-3 -43.5q-10 -75 -19.5 -149.5t-9.5 -150.5q0 -23 1.5 -45.5t10.5 -43.5q5 -14 14.5 -25.5t22.5 -16.5q13 -6 27 -6t28 -2q16 -2 32.5 6.5t26.5 22.5q10 13 14.5 29t6.5 32q3 32 1.5 64t-3.5 64q-6 72 -15 144q-2 22 -5.5 43.5t-5.5 44.5q-2 18 -1.5 37
t5.5 36q7 20 25 30q10 5 27.5 8t36 3.5t35.5 -2t28 -7.5q11 -6 18.5 -17t12.5 -22q9 -22 12.5 -45.5t5.5 -46.5q6 -58 9.5 -115.5t3.5 -115.5q-1 -44 -4 -88t-15 -86q-1 -1 -1 -4q-5 -24 -13 -47t-22 -43q-17 -24 -40 -43.5t-51 -30.5zM179 609q-2 -7 2 -11.5t9.5 -6t11 1
t7.5 10.5q4 16 2.5 32t-4.5 33q-3 13 -11.5 31.5t-21.5 21.5q-12 2 -17.5 -8.5t3.5 -18.5q7 -6 12 -16.5t7 -22.5t2 -24.5t-2 -21.5zM181 542q14 -6 21 3t-2 20q-5 6 -11 4.5t-10.5 -6.5t-4.5 -11.5t7 -9.5z" />
    <glyph glyph-name="v" unicode="v" horiz-adv-x="645" 
d="M377 -5q-16 -6 -38.5 -8t-45.5 -0.5t-44 8t-33 17.5q-17 17 -28.5 38.5t-22.5 42.5q-21 44 -39 88t-35 89q-18 49 -31 99t-26 101q-5 18 -13 49t-14 64t-6.5 63t9.5 46q7 11 18.5 16.5t22.5 10.5q15 5 33.5 9t36.5 4t33.5 -5t24.5 -18q7 -11 14 -37.5t13 -56.5
t10.5 -57.5t7.5 -40.5q8 -46 18 -91.5t22 -91.5q11 -42 24 -82.5t36 -77.5q26 34 42 73.5t27 81.5q11 41 19 83t14.5 84l13 84t15.5 84q3 14 9 28t17 23q15 12 36.5 14.5t41.5 0.5q19 -2 38.5 -7t32.5 -19q10 -12 12.5 -34t0 -47.5t-7 -50t-7.5 -39.5q-20 -110 -54.5 -217
t-88.5 -206q-11 -20 -23.5 -40t-28.5 -37q-12 -12 -26 -22t-30 -16zM161 600q2 -8 7.5 -10.5t11 -1t9 6t2.5 12.5q-4 14 -7.5 28t-8.5 28q-3 10 -7 19t-10 17q-9 10 -20 3t-6 -19q2 -3 4 -5.5t4 -5.5q8 -17 12 -35.5t9 -36.5zM171 559q-2 -8 4 -14.5t14 -4.5q7 2 10 8.5
t0 13.5q-5 9 -15.5 8.5t-12.5 -11.5z" />
    <glyph glyph-name="w" unicode="w" horiz-adv-x="850" 
d="M300 3q-32 -15 -71 -14.5t-71 16.5q-15 8 -26.5 21t-20.5 28q-16 26 -25.5 55t-17.5 58q-14 52 -21.5 105t-12.5 107q-7 69 -12 137.5t-13 137.5q-2 10 -2.5 21t4.5 20q6 12 19 20t29 12.5t33 6t30 0.5q19 -2 38 -8.5t33 -20.5q10 -9 13.5 -22.5t5.5 -26.5q1 -11 3.5 -37
t5 -59.5t5 -71t4.5 -71t4 -59.5t3 -36q2 -24 4.5 -48.5t12.5 -46.5q2 -5 8.5 -13t11.5 -10q5 -1 10 2.5t7 7.5q8 11 12 23t7 24q5 19 8.5 38t6.5 38q1 8 4 27.5t6.5 44t8 51.5t8.5 51.5t7.5 44t5.5 27.5t5 15.5t8 14.5q5 6 12 9t15 4q2 1 8 1h8q11 3 23.5 1.5t22.5 -8.5
q8 -6 13.5 -20t9 -31t5.5 -33.5t4 -26.5q1 -7 3.5 -23t5.5 -37t7 -45t7 -45t6 -37.5t4 -22.5q3 -17 7.5 -34.5t11.5 -34.5q3 -7 9 -15.5t13 -8.5q8 -1 14 7.5t10 16.5q5 11 7 23t4 23q2 13 4.5 43.5t5 70t5.5 84t6 84t6 70t5 43.5q2 10 6 19.5t12 16.5q11 11 26.5 17.5
t31.5 9.5q13 2 31 1.5t35.5 -4.5t32.5 -11.5t22 -19.5q5 -8 6 -17.5t0 -18.5q-11 -85 -16.5 -168.5t-16.5 -167.5q-5 -50 -14 -98t-23 -96q-10 -29 -22.5 -58.5t-35.5 -51.5q-11 -11 -25 -17.5t-28 -10.5q-27 -7 -56 -5.5t-54 13.5q-23 10 -43 41t-36.5 68.5t-29 75
t-18.5 61.5q-8 -32 -18 -63.5t-23 -62.5q-10 -24 -22 -47.5t-28 -44.5l-16 -16t-18 -13zM168 563q3 -6 8.5 -7.5t10.5 0.5t8 6.5t2 10.5q0 2 -1 9t-1.5 14.5t-1.5 14.5t-1 10q-2 17 -5.5 35t-11.5 34q-2 5 -5 9t-8 6q-6 3 -11 1t-8 -6t-2.5 -9.5t5.5 -9.5q3 -2 5 -11t3 -13
q6 -20 8.5 -41t4.5 -41q0 -8 1 -12zM178 512q5 -4 11.5 -3.5t10.5 5.5q7 9 1.5 18t-16.5 7q-10 -2 -12.5 -11.5t5.5 -15.5z" />
    <glyph glyph-name="x" unicode="x" horiz-adv-x="590" 
d="M439 -26q-19 -2 -36 6q-18 9 -30 24q-8 9 -24 34.5t-34 54.5t-33.5 55t-21.5 36q-17 -28 -32.5 -56t-32.5 -56q-11 -16 -21.5 -32t-23.5 -31q-5 -6 -10.5 -11.5t-13.5 -8.5q-15 -6 -31.5 -5t-32 8t-29 18t-21.5 25q-10 16 -12 36q-1 12 2 23t8 22q4 9 15 28.5t26 44.5
t31.5 52t31.5 51t27 43t18 28q-21 42 -40 85t-37 87q-6 14 -14 34.5t-14 42.5t-7 41.5t8 31.5q8 11 19 18t22 12q12 6 24.5 11t26.5 7q12 2 24.5 2.5t23.5 -4.5q18 -8 28 -24q5 -9 13.5 -33t17.5 -51t16.5 -51t10.5 -33q6 7 23 28t36 44t36 43.5t24 27.5q11 11 24 21.5
t28 17.5q16 8 34 5q13 -2 24.5 -9.5t22.5 -15.5q14 -11 27 -23t21 -27q7 -11 10 -24.5t0 -25.5q-4 -15 -16 -28q-4 -4 -14.5 -15t-23.5 -25t-28.5 -29t-28.5 -29t-23.5 -25t-14.5 -15q-20 -21 -38 -43.5t-35 -45.5q3 -5 11 -20t17 -31.5t17.5 -31t11.5 -18.5
q7 -12 23.5 -37.5t34 -54t31 -55t15.5 -40.5q2 -12 -3.5 -24.5t-13.5 -21.5q-14 -16 -33.5 -26t-40.5 -12zM203 614q3 -6 8 -7.5t10 0t8 6t2 11.5l-2 4l-2 4q-8 17 -13 36t-18 33l-8.5 8.5t-8.5 7.5q-6 3 -11.5 1t-8.5 -6t-2.5 -10t5.5 -10q17 -14 24 -36t17 -42zM224 559
q7 -3 11.5 1t6 10.5t-1 12t-9.5 5.5q-15 0 -18 -11t11 -18z" />
    <glyph glyph-name="y" unicode="y" horiz-adv-x="593" 
d="M259 1q-11 -8 -25.5 -10t-28.5 0q-17 3 -34 12t-29 22q-17 18 -20 43q-2 15 2.5 30t9.5 29q18 51 38 100.5t41 98.5q-32 31 -59.5 65.5t-54.5 69.5q-23 31 -44.5 62t-38.5 65q-9 20 -15.5 41.5t-1.5 41.5q4 16 16 28.5t28 21t34 12t35 2.5q10 -1 19.5 -5.5t17.5 -10.5
q12 -11 22 -23.5t18 -26.5q25 -42 50 -83.5t56 -78.5q6 12 22.5 41t35.5 61.5t37 61t27 38.5q16 17 37 25q15 6 34 6.5t37.5 -4t34.5 -14t25 -23.5q11 -15 12 -34q1 -24 -12 -49q-5 -9 -21.5 -33t-36 -52t-36.5 -52t-22 -33q-31 -51 -57 -103.5t-49 -107.5
q-5 -13 -10.5 -25.5t-10.5 -26.5t-14.5 -40.5t-21 -55t-24 -53t-23.5 -33.5zM144 626q4 -8 10 -9t11.5 2.5t7 10t-3.5 13.5q-5 6 -8.5 12.5t-8.5 11.5q-1 1 -4 5t-6.5 8.5t-6.5 8.5t-4 5q-3 3 -12.5 9.5t-14.5 7.5q-7 2 -12 -1t-7 -8t0 -10.5t8 -8.5q2 -1 8 -4.5t8 -5.5
q9 -11 18.5 -22t16.5 -25zM174 600q-3 -7 -0.5 -12.5t7.5 -8t11.5 -1t9.5 8.5t0.5 12.5t-8 7.5t-11.5 1t-9 -8z" />
    <glyph glyph-name="z" unicode="z" horiz-adv-x="594" 
d="M263 -2q-33 -1 -66 -1t-66 2q-20 1 -41 3t-40 10q-11 5 -19.5 14t-11.5 20q-4 12 -3 25t3 26q5 20 12.5 39.5t15.5 39.5q45 103 99 200t119 188q-18 -2 -50.5 -4.5t-67.5 -3t-66 2.5t-46 13q-17 11 -25.5 34t-6.5 44q2 14 6 28t14 25q8 9 18.5 13.5t21.5 6.5q15 2 30 1.5
t30 -1.5q51 -2 101 1.5t101 7.5q36 3 72 5t71 -2q20 -2 39 -6t36 -14q10 -6 18.5 -14.5t11.5 -19.5q5 -17 1 -35.5t-12 -33.5q-2 -3 -6.5 -9t-10 -12.5t-10.5 -12.5t-7 -8q-76 -94 -145 -194t-120 -210q58 5 115 11.5t114 7.5q15 0 30.5 -2.5t29.5 -8.5q10 -5 18.5 -12
t13.5 -17q6 -11 7.5 -26.5t0 -31t-7 -29.5t-14.5 -23q-8 -9 -20.5 -14t-24.5 -7q-14 -3 -51 -5.5t-79.5 -5t-80 -4t-51.5 -1.5zM499 680q6 -3 11 -1t8 6.5t2.5 10t-5.5 9.5q-3 3 -12 7t-14 5q-14 2 -28.5 3.5t-28.5 -1.5q-8 -2 -10.5 -7.5t-1.5 -11t5.5 -9.5t12.5 -2
q22 4 46 -2q4 -1 7.5 -3t7.5 -4zM527 647q8 -4 15 0.5t7 12.5q0 9 -7 13.5t-15 0.5q-8 -5 -8 -14t8 -13z" />
    <glyph glyph-name="braceleft" unicode="{" horiz-adv-x="374" 
d="M331 -17q-17 -8 -36.5 -10t-38.5 0q-24 2 -48 6t-47 13q-17 7 -32 17.5t-26 24.5q-16 20 -24 45.5t-9 51.5q0 24 6.5 47.5t8.5 46.5q2 13 -0.5 26t-10.5 24t-19.5 17t-23.5 11q-8 3 -15 9.5t-12 15.5t-8 18.5t-3 17.5v2q-2 18 9 38t28 26q12 5 24 11t20 17t10 25t0 28
q-2 20 -7.5 40.5t-6.5 40.5q-2 27 6 54.5t24 49.5q21 25 48 39q18 9 44.5 15.5t54.5 9t53.5 -1t41.5 -15.5q18 -13 26 -38q4 -15 4 -31t-4.5 -31t-13.5 -27.5t-23 -18.5q-6 -3 -21.5 -3h-33t-32.5 -1t-19 -5q-7 -5 -10.5 -13.5t-4.5 -16.5q-4 -21 1.5 -42.5t10.5 -42.5
q3 -16 4 -32t-3 -31q-8 -26 -31 -43q33 -25 34 -65q2 -25 -5 -49.5t-11 -49.5q-2 -15 1 -30.5t13 -26.5q4 -5 19 -6t32 -0.5t33 0.5t22 -3q19 -10 29 -25q14 -20 14 -48t-11 -50q-10 -21 -31 -31zM292 705q6 -3 11 -1t7.5 6.5t2 10t-5.5 10.5q-6 4 -17 7t-23 4t-24 0.5
t-19 -1.5q-8 -2 -10.5 -7.5t-1 -11t6 -9.5t12.5 -2q32 8 61 -6zM321 685q6 -5 12 -2.5t9 7.5t2.5 11.5t-7.5 9.5t-12.5 1.5t-8.5 -6t-2 -10.5t7 -11z" />
    <glyph glyph-name="bar" unicode="|" horiz-adv-x="277" 
d="M189 -51q-14 -5 -33 -6t-38.5 1t-36.5 8.5t-27 17.5q-13 15 -19.5 48t-8.5 70.5t-1.5 72.5t0.5 55q2 86 9 170t15 169v2v50t5 49t12 48.5t24 41.5q11 10 27 14.5t34 4.5t35 -4.5t30 -11.5q19 -10 28 -27t10 -35.5t-1 -36.5q-9 -88 -14.5 -175t-5.5 -175q0 -64 4 -127
t4 -127q-1 -18 -3 -37t-13 -34q-6 -10 -15.5 -16.5t-20.5 -9.5zM204 591q4 -4 9 -3.5t9 3.5t5.5 8t-1.5 10q-2 4 -0.5 16t4 25.5t4 25.5t0.5 17q-2 10 -12.5 11.5t-15.5 -8.5q-2 -4 -1.5 -8t-0.5 -9q-1 -9 -3.5 -21.5t-4 -25.5t-0.5 -24.5t8 -16.5zM213 562q-7 3 -11.5 -1
t-6 -10t1 -12t10.5 -6q16 0 18.5 11t-12.5 18z" />
    <glyph glyph-name="braceright" unicode="}" horiz-adv-x="375" 
d="M119 -27q-17 -2 -35 -0.5t-35 8.5q-15 6 -25.5 18.5t-16 28t-5.5 32.5t5 33q5 14 14.5 25.5t22.5 17.5q6 3 21 3h32.5t32.5 0.5t20 5.5q7 5 10 13.5t5 16.5q4 21 -2 42.5t-10 42.5q-3 16 -4.5 32t3.5 31q8 26 31 44q-31 22 -34 64q-2 25 5.5 49.5t10.5 49.5q2 14 -0.5 30
t-12.5 27q-5 5 -19.5 6t-32 0.5t-33 -0.5t-22.5 3q-19 10 -28 25q-8 12 -11.5 27.5t-2 32t7 31t15.5 25.5q14 15 38 20t51 4t53.5 -7t45.5 -13q17 -7 32 -17.5t26 -24.5q17 -20 25 -45.5t8 -51.5q1 -24 -5.5 -47.5t-8.5 -46.5q-2 -13 0 -26t10 -24t20 -17t24 -11
q17 -6 28 -26.5t9 -38.5q-1 -7 -2 -13.5t-3 -13.5q-5 -11 -13 -21t-19 -14q-13 -5 -24.5 -11t-19.5 -17t-10.5 -25t-0.5 -28q3 -21 8.5 -41.5t6.5 -41.5q1 -24 -5 -48t-19 -44q-18 -30 -51 -47q-26 -14 -54 -19.5t-57 -7.5zM195 682q5 -3 9.5 -5.5t9.5 -1.5q11 3 12 13.5
t-8 15.5q-3 1 -13.5 7.5t-12.5 8.5q-6 3 -16.5 7t-22.5 7t-23 4.5t-17 0.5q-7 -2 -9.5 -7t-2 -10t5 -9t11.5 -4q3 1 12 0t12 -2l28 -10t25 -15zM238 651q9 -4 16 2t5 16q-2 9 -11 11.5t-15 -5.5q-5 -6 -3.5 -13.5t8.5 -10.5z" />
    <glyph glyph-name="asciitilde" unicode="~" horiz-adv-x="508" 
d="M382 176q-23 -4 -46 -0.5t-43 12.5q-21 8 -39 21t-38 24l-10 4t-10 3q-17 2 -32 -10q-13 -9 -25.5 -19.5t-26.5 -17.5q-16 -7 -32 -6t-30 8t-24 20t-13 30q-3 14 0 31.5t10.5 34t18.5 30.5t24 21q21 12 45.5 21t48.5 5q32 -6 61.5 -20.5t60.5 -25.5q10 -4 19.5 -7
t20.5 -1q5 1 16.5 7t24 14t23.5 15t16 9q11 5 24.5 5.5t25.5 -4.5q19 -7 31 -27t13 -40q0 -19 -6 -37t-17 -33q-9 -13 -18.5 -25.5t-22.5 -21.5q-21 -15 -50 -20zM205 322q7 -3 12.5 -0.5t7.5 7.5t1 11t-8 9q-2 2 -11 4.5t-11 3.5q-15 5 -31 7t-32 0q-5 -1 -10 -1t-10 -2
q-3 -2 -12 -5t-11 -5q-8 -7 -4.5 -17t14.5 -10q3 0 12.5 3.5t12.5 5.5q6 2 17 2t23 -2t23 -5t17 -6zM250 327q-7 -3 -9 -8.5t-0.5 -10.5t6.5 -8t13 -1q7 1 9 7t0 12t-7 9t-12 0z" />
    <glyph glyph-name="nonbreakingspace" unicode="&#xa0;" horiz-adv-x="250" 
 />
    <glyph glyph-name="cent" unicode="&#xa2;" horiz-adv-x="575" 
d="M348 0q-7 -11 -20.5 -14t-25.5 -3q-14 0 -29 2t-26 11q-9 8 -11 22q-1 9 0 18.5t2 19.5q-39 7 -76.5 23.5t-66.5 42.5q-17 15 -30.5 33.5t-21.5 38.5q-17 42 -23 87.5t-5 91.5q1 39 7 78t19 77q10 29 25.5 56.5t38.5 47.5q30 27 69 42t79 22q-1 14 0 29t12 24q5 5 12.5 7
t15.5 4q21 4 41.5 -2.5t23.5 -28.5q1 -8 0.5 -15.5t-1.5 -15.5q38 -5 75 -17.5t66 -36.5q27 -23 45.5 -57t17.5 -69q0 -17 -6.5 -34.5t-18.5 -29.5q-9 -9 -23 -14.5t-29.5 -7t-30.5 1t-26 9.5q-10 6 -16 16q-8 14 -11 29.5t-11 29.5q-19 36 -57 45q-14 4 -29.5 3t-28.5 -9
q-12 -8 -23 -16t-19 -19q-10 -13 -15 -28t-8 -30q-5 -22 -5.5 -43.5t-0.5 -43.5q1 -29 3.5 -58.5t13.5 -56.5q9 -22 26 -42t40 -26q15 -5 32 2t28 18q17 19 29 42t32 39q13 11 30.5 15t34.5 1.5t32.5 -11t26.5 -22.5q11 -15 14.5 -34t2.5 -37q-2 -23 -12 -44.5t-26 -38.5
q-30 -30 -71.5 -47t-83.5 -22q-1 -1 -1 -5q0 -12 0.5 -25.5t-6.5 -24.5zM429 633q4 -5 10 -5t10.5 3t6 8t-2.5 10q-4 4 -13.5 9t-20 9.5t-20.5 8t-16 4.5q-3 0 -9 1t-12.5 1.5t-13 0.5t-9.5 -1q-8 -2 -11 -9.5t5 -12.5q5 -4 11.5 -2.5t12.5 -0.5q5 -1 10 -1t10 -1
q4 -1 11.5 -3.5t15.5 -5.5t15 -6.5t10 -6.5zM462 609q4 -8 13.5 -8t14.5 8t-2 14t-16 4q-6 -2 -10 -7t0 -11z" />
    <glyph glyph-name="sterling" unicode="&#xa3;" horiz-adv-x="507" 
d="M467 -1q-17 -7 -36 -7.5t-37 -0.5q-24 2 -48.5 5.5t-47.5 10.5q-18 5 -36 12.5t-38 9.5q-17 2 -33.5 -2.5t-32.5 -10.5q-14 -6 -28 -12.5t-29 -6.5q-32 -2 -55 21q-14 14 -18 39.5t7 43.5q9 14 23.5 24.5t26.5 22.5q11 12 18 27t10 32q4 23 1.5 47t-5.5 47
q-5 0 -14.5 -0.5t-20.5 0t-21 1t-14 2.5q-9 3 -14.5 11t-7.5 17q-6 21 -2 46.5t24 35.5q11 5 24 5.5t25 -0.5q-16 55 -23 114.5t10 114.5q8 27 27 50.5t45 36.5q31 16 66 20t70 2q17 -1 34 -5t34 -9t33.5 -11.5t30.5 -17.5q17 -12 30 -28.5t21 -35.5q19 -52 -16 -90
q-17 -20 -45.5 -30t-53.5 -3q-23 5 -33 29q-5 11 -10 25t-12 26.5t-15.5 20.5t-20.5 7q-12 -2 -20.5 -9.5t-14 -18t-8.5 -23t-3 -23.5q1 -32 6.5 -63.5t14.5 -62.5q2 -5 3 -5q7 1 20.5 2t28.5 1t28.5 -0.5t19.5 -3.5q14 -5 20 -18q4 -7 5.5 -17.5t1 -22.5t-2.5 -22.5
t-5 -17.5q-8 -15 -24 -20q-15 -5 -31.5 -5.5t-32.5 0.5q4 -35 2 -70t-10 -69q15 0 30 -4t29 -11q13 -6 25 -13.5t26 -12.5q13 -4 26 -2t26.5 5.5t26.5 6.5t26 1q16 -2 27 -12.5t15.5 -24.5t3 -30.5t-8.5 -31.5q-7 -13 -18 -23.5t-25 -15.5zM406 637q6 -3 11 -1t8 6.5t2.5 10
t-5.5 9.5q-5 5 -8.5 10.5t-8.5 10.5q-15 16 -35 27q-6 3 -19.5 9t-20.5 4q-9 -2 -11.5 -11t5.5 -15q4 -3 9 -4t10 -3q28 -13 46 -34q4 -5 8 -11t9 -8zM428 592q10 -2 16.5 5.5t1.5 16.5q-4 8 -12.5 8.5t-14.5 -6.5q-5 -7 -2 -14.5t11 -9.5z" />
    <glyph glyph-name="currency" unicode="&#xa4;" horiz-adv-x="538" 
d="M397 28q-19 -2 -34 10q-8 6 -12.5 14.5t-9.5 16.5q-6 12 -12 24.5t-12 24.5q-34 -11 -71 -9.5t-70 14.5q-14 -16 -27 -33t-31 -28t-42.5 -7t-39.5 18t-19 33t5 38q8 18 23.5 31t32.5 23q-26 35 -36 76.5t-5 83.5q9 61 47 108q-4 4 -11.5 13t-15 18.5t-14 19t-7.5 15.5
q-2 11 3 22t13 19q9 10 20 18t24 13q6 2 13.5 2.5t13.5 -1.5q8 -3 14.5 -9t11.5 -13q8 -12 15.5 -24t14.5 -25q21 7 43 10.5t44 2.5q60 -3 111 -37q12 16 23.5 32.5t26.5 29.5q17 13 36 12q13 -2 24.5 -11t19.5 -20q9 -11 16.5 -24.5t7.5 -27.5q0 -12 -7 -23t-15 -20
q-12 -13 -25.5 -23t-27.5 -20q25 -59 15 -122t-53 -111q12 -14 25 -26.5t22 -28.5q6 -10 9 -22t-1 -23q-3 -9 -11.5 -18.5t-19.5 -17t-23 -12.5t-22 -6zM353 454q6 -3 11 -1t8 6.5t2.5 10t-5.5 9.5t-8.5 8t-8.5 8q-6 4 -17 9.5t-23 10t-24 6.5t-19 1q-11 -3 -11 -15t11 -15
q3 -1 14.5 -2t14.5 -2q2 -1 7.5 -3t11 -5t10.5 -5.5l7 -3.5q5 -4 9 -9.5t10 -7.5zM374 429q4 -9 13 -9.5t15 7.5t2 16.5t-13 8.5q-10 0 -16 -7.5t-1 -15.5zM223 251q17 -10 37 -3q17 5 29.5 17.5t19.5 29t9 35t-1 35.5q-3 14 -9.5 26.5t-17.5 20.5q-15 14 -36 12
q-11 -1 -22 -6t-19 -13q-22 -22 -28.5 -55t5.5 -62q10 -26 33 -37z" />
    <glyph glyph-name="yen" unicode="&#xa5;" horiz-adv-x="583" 
d="M255 2q-11 -10 -28 -11.5t-32 1.5q-23 5 -43.5 19.5t-29.5 35.5q-8 17 -5 36t8 36q-11 1 -23 3t-21 9q-15 12 -15 33.5t15 32.5q17 12 38.5 14t41.5 3q4 9 7.5 17.5t6.5 17.5l-40 -4t-40 4t-25.5 26t0.5 40q2 8 6.5 14t10.5 11q7 5 15 6.5t16 3.5q15 2 30.5 3t31.5 1
q-16 17 -30.5 35.5t-28.5 37.5q-15 19 -39 50.5t-45.5 66.5t-35 68.5t-7.5 57.5q3 16 14.5 28.5t27 21t33.5 13t34 3.5q20 -1 37 -15q14 -10 24.5 -24t18.5 -28q26 -42 50.5 -83.5t56.5 -78.5q6 12 22.5 41t35.5 61.5t36.5 61t26.5 38.5q18 18 37 25q16 6 35 6.5t37.5 -4
t34.5 -14t25 -23.5q11 -15 12 -34q1 -24 -12 -49q-4 -8 -18 -28.5t-30.5 -43.5t-31 -43.5t-19.5 -27.5q-19 -29 -35.5 -58.5t-32.5 -59.5q20 1 41 0.5t41 -2.5q11 -2 23 -6.5t18 -14.5q8 -14 5.5 -34t-14.5 -31q-5 -4 -10.5 -5.5t-11.5 -2.5q-4 -1 -14.5 -1t-23 0.5
t-23.5 1.5t-15 1q-15 0 -30 0.5t-30 -0.5q-4 -10 -8 -19.5t-9 -19.5q23 1 45 1t45 -3q10 -1 19.5 -2.5t17.5 -6.5q9 -5 14.5 -14.5t7 -20t-2 -20.5t-11.5 -17q-11 -9 -33.5 -12t-48 -3t-50 1.5t-38.5 1.5q-3 -9 -10.5 -27.5t-16.5 -38t-18.5 -36.5t-16.5 -23zM138 626
q4 -8 10.5 -9t11.5 2.5t7 10t-3 13.5q-5 6 -8.5 12.5t-8.5 11.5q-1 1 -4 5t-7 8.5t-7 8.5t-4 5q-3 3 -12.5 9.5t-14.5 7.5q-6 2 -11 -1t-7 -8t0 -10.5t8 -8.5q2 -1 7.5 -4.5t7.5 -5.5q9 -11 19 -22t16 -25zM169 600q-3 -7 -0.5 -12.5t7.5 -8t11.5 -1t9.5 8.5t0.5 12.5
t-8 7.5t-11.5 1t-9 -8z" />
    <glyph glyph-name="softhyphen" unicode="&#xad;" 
 />
    <glyph glyph-name="plusminus" unicode="&#xb1;" horiz-adv-x="411" 
d="M271 286q-7 -8 -19 -11t-26 -3.5t-27.5 1t-23.5 4.5q-19 5 -27 21q-2 4 -3 13.5t-1.5 20t-0.5 20v13.5q-32 0 -62 3q-11 1 -21.5 3.5t-18.5 8.5q-11 9 -15 18q-7 13 -9 30t0.5 33.5t9.5 31t19 23.5q10 8 22.5 11t25.5 3q24 2 50 0q-1 13 -1.5 25t1.5 25q1 8 3.5 16.5
t7.5 15.5q9 11 24.5 14.5t29.5 3.5q13 1 26 0t24 -8q14 -9 19 -27q4 -12 4.5 -25t0.5 -26q-1 -3 -0.5 -6.5t-1.5 -6.5q20 0 41.5 -1t39.5 -10q11 -6 17.5 -17.5t9.5 -25.5t2.5 -29t-3.5 -27q-2 -10 -6 -19.5t-12 -16.5q-17 -16 -40.5 -19t-46.5 -3q1 -13 0.5 -26t-2.5 -26
q-2 -15 -10 -25zM228 480q5 -2 17 -0.5t17 1.5q3 0 8.5 -0.5t11.5 -0.5t11.5 0.5t7.5 1.5q9 5 9 14t-9 13q-2 2 -10 2h-11h-10t-14.5 -0.5t-14.5 -1t-10 -0.5q-11 -3 -12 -13.5t9 -15.5zM327 491q0 -10 8 -14t16 2q7 5 6 13.5t-9 11.5q-8 4 -14.5 -0.5t-6.5 -12.5zM331 73
q-9 -2 -32 -2.5t-48.5 0t-48.5 1.5t-32 1h-42.5t-42.5 2q-11 1 -21.5 4t-18.5 9q-11 7 -15 18q-7 13 -9 29.5t0.5 33t9.5 31.5t19 24q15 11 33 13q28 3 55.5 1.5t56.5 -1.5q27 1 53.5 1.5t53.5 -0.5q17 0 35 -1.5t32 -10.5q9 -5 15 -14.5t8 -20.5q3 -15 3.5 -31t-3.5 -31
q-2 -10 -6.5 -19.5t-11.5 -16.5q-9 -8 -20.5 -12.5t-22.5 -7.5zM235 216q-6 -2 -9 -6.5t-2.5 -9.5t4.5 -9t10 -4q3 0 14.5 1t14.5 1t8 -0.5t11 -0.5t11.5 0.5t7.5 1.5q8 4 8 13.5t-8 13.5q-2 2 -10 1.5t-11 0.5h-10t-15 -0.5t-14.5 -1t-9.5 -1.5zM331 199q0 -10 8 -14t16 2
q7 5 6 13t-9 12t-14.5 -0.5t-6.5 -12.5z" />
    <glyph glyph-name="multiply" unicode="&#xd7;" horiz-adv-x="364" 
d="M314 168q-7 -6 -17.5 -13.5t-21.5 -13t-22 -8t-20 1.5q-7 3 -14 10q-10 9 -18.5 19.5t-16.5 21.5q-12 -10 -24.5 -19.5t-25.5 -17.5q-9 -6 -18.5 -10t-20.5 -5q-11 0 -23 5q-14 6 -26 18t-20 26.5t-11.5 30.5t0.5 31q3 12 11 22t17 18q18 16 40 31q-8 9 -15.5 18
t-14.5 19q-5 8 -8.5 16.5t-3.5 17.5q1 14 11 26.5t21 22.5q10 8 20.5 15t22.5 8q8 2 16.5 -1t15.5 -8q11 -7 19 -17l16 -20q2 -3 4 -5.5t3 -6.5q17 13 34 25.5t37 16.5q12 2 24 -3t23 -14.5t20 -21.5t14 -23q5 -9 7.5 -19t0.5 -20q-3 -23 -20 -40t-34 -31q15 -18 30 -41
q10 -16 7 -32q-2 -9 -7 -16.5t-12 -13.5zM248 404q1 -7 7.5 -8t12 1.5t8.5 8t-1 11.5q-10 12 -20 7t-7 -20zM165 353q-4 -5 -3.5 -10.5t4 -9.5t9 -4.5t11.5 3.5q2 2 10.5 9.5t10.5 9.5t12.5 9.5t12.5 9.5q9 8 4 18.5t-17 8.5q-2 -1 -8.5 -5.5t-8.5 -6.5t-7.5 -6t-11.5 -9
t-11.5 -10t-6.5 -7z" />
    <glyph glyph-name="divide" unicode="&#xf7;" horiz-adv-x="399" 
d="M323 207q-9 -2 -32 -2.5t-48.5 -0.5t-48.5 1t-32 1q-21 1 -42.5 1t-42.5 2q-11 1 -21.5 3.5t-18.5 9.5q-11 7 -15 17q-7 13 -9 30t0.5 33.5t9.5 31.5t19 24q13 10 33 12q28 4 56 2t56 -1q27 1 54 1h53q17 0 35 -2t32 -11q9 -5 15 -14.5t8 -19.5q3 -16 3.5 -31.5
t-3.5 -31.5q-2 -10 -6 -19.5t-12 -16.5q-9 -8 -20.5 -12.5t-22.5 -6.5zM227 350q-6 -2 -9 -6.5t-2 -9.5t4.5 -9.5t10.5 -4.5q2 0 14 1t14 1q3 0 8 -0.5t11 -0.5t11.5 0.5t7.5 1.5q9 5 9 14t-9 14q-2 1 -10 1h-11h-10t-14.5 -0.5t-14.5 -1t-10 -0.5zM323 332q0 -10 8 -14
t16 2q7 5 6 13.5t-9 12.5q-8 3 -14.5 -1.5t-6.5 -12.5zM247 55q-6 -6 -17.5 -10t-24 -5t-24.5 0.5t-20 5.5q-19 7 -25 24q-6 16 -3.5 42t13.5 39q6 6 15 9t17 5q5 1 14.5 1t19.5 -0.5t18.5 -1.5t13.5 -4q6 -4 12 -15q4 -9 5.5 -22t1 -25.5t-4.5 -24t-11 -18.5zM213 134
q5 -2 8.5 -0.5t5 5.5t0.5 8t-5 7q-5 2 -16 3t-16 -1q-11 -1 -11 -10.5t11 -9.5q6 0 12 0.5t11 -2.5zM231 123q1 -5 5.5 -6t8.5 1t6 6t-1 8q-7 8 -14 4.5t-5 -13.5zM253 425q-6 -6 -17.5 -10t-24 -5t-24.5 0.5t-20 5.5q-19 7 -25 24q-6 16 -3.5 42t13.5 39q6 6 15 9t17 5
q5 1 14.5 1t19.5 -0.5t18.5 -1.5t13.5 -4q6 -4 12 -15q4 -9 5.5 -22t1 -25.5t-4.5 -24t-11 -18.5zM219 504q5 -2 8.5 -0.5t5 5.5t0.5 8t-5 7q-5 2 -16 3t-16 -1q-11 -1 -11 -10.5t11 -9.5q6 0 12 0.5t11 -2.5zM237 493q1 -5 5.5 -6t8.5 1t6 6t-1 8q-7 8 -14 4.5t-5 -13.5z
" />
    <glyph glyph-name="quoteleft" unicode="&#x2018;" horiz-adv-x="199" 
d="M152 512q-9 -8 -21 -9.5t-23 -2.5q-9 0 -22 -0.5t-26 1t-24 5t-15 11.5q-2 3 -3 11t-1 17t0.5 17.5t0.5 12.5v20v32.5v32.5t-1 20q0 3 -0.5 9t-0.5 13t0.5 12.5t1.5 8.5q5 11 15 15q6 2 19.5 3t28.5 2t29 1t20 -1q9 -1 18 -3.5t16 -8.5q8 -6 12 -15t6 -19q2 -13 2 -26
v-27q0 -12 -1.5 -31.5t-5 -39.5t-9.5 -37t-16 -24zM105 695q2 0 7.5 -0.5t7.5 -0.5q7 0 11 4.5t4 10.5t-4 10.5t-12 4.5q-3 0 -9 0.5t-12.5 0.5h-12.5t-9 -1q-5 -3 -7 -7.5t-1 -9.5t4.5 -8.5t9.5 -3.5q3 0 12 0.5t11 -0.5zM143 695q-4 -8 1 -15t13 -7q10 0 14 8t-2 16
q-5 7 -13.5 6.5t-12.5 -8.5z" />
    <glyph glyph-name="quoteright" unicode="&#x2019;" horiz-adv-x="199" 
d="M152 512q-9 -8 -21 -9.5t-23 -2.5q-9 0 -22 -0.5t-26 1t-24 5t-15 11.5q-2 3 -3 11t-1 17t0.5 17.5t0.5 12.5v20v32.5v32.5t-1 20q0 3 -0.5 9t-0.5 13t0.5 12.5t1.5 8.5q5 11 15 15q6 2 19.5 3t28.5 2t29 1t20 -1q9 -1 18 -3.5t16 -8.5q8 -6 12 -15t6 -19q2 -13 2 -26
v-27q0 -12 -1.5 -31.5t-5 -39.5t-9.5 -37t-16 -24zM105 695q2 0 7.5 -0.5t7.5 -0.5q7 0 11 4.5t4 10.5t-4 10.5t-12 4.5q-3 0 -9 0.5t-12.5 0.5h-12.5t-9 -1q-5 -3 -7 -7.5t-1 -9.5t4.5 -8.5t9.5 -3.5q3 0 12 0.5t11 -0.5zM143 695q-4 -8 1 -15t13 -7q10 0 14 8t-2 16
q-5 7 -13.5 6.5t-12.5 -8.5z" />
    <glyph glyph-name="quotedblleft" unicode="&#x201c;" horiz-adv-x="414" 
d="M152 499q-9 -7 -21 -9t-23 -2q-9 0 -22 -0.5t-26 1t-24 4.5t-15 11q-2 4 -3 12t-1 17t0.5 17.5t0.5 12.5v20v32.5v32.5t-1 20q0 3 -0.5 9t-0.5 13t0.5 12.5t1.5 8.5q5 11 15 14q6 2 19.5 3.5t28.5 2.5t29 1t20 -1q9 -1 18 -3.5t16 -8.5q8 -6 12 -15.5t6 -18.5
q2 -14 2 -27v-27q0 -12 -1.5 -31t-5 -39t-9.5 -37t-16 -25zM367 495q-9 -7 -21 -9t-23 -2q-9 0 -22 -0.5t-26 0.5t-24 4.5t-15 11.5q-2 4 -3 12t-1 17t0.5 17t0.5 12v21v32v32t-1 20q-1 6 -1 22t2 22q4 10 15 14q6 2 19.5 3.5t28.5 2t29 0.5h20q9 -1 18 -4t16 -8
q8 -6 12 -15.5t6 -18.5q2 -14 2 -27v-27q0 -12 -1.5 -31.5t-5 -39.5t-9.5 -37t-16 -24zM105 683q2 0 7.5 -1t7.5 -1q7 0 11 5t4 10.5t-4 10.5t-12 5q-3 0 -9 0.5t-12.5 0.5t-12.5 -0.5t-9 -1.5q-11 -5 -8.5 -16.5t14.5 -11.5h23zM320 679q2 -1 7.5 -1.5t7.5 -0.5q7 0 11 5
t4 10.5t-4 10.5t-12 5q-3 0 -9 0.5t-12.5 0.5t-12.5 -0.5t-9 -1.5q-5 -3 -7 -7.5t-1 -9.5t4.5 -8.5t9.5 -3.5q3 0 12 0.5t11 0.5zM143 682q-4 -8 1 -15t13 -7q10 0 14 8.5t-2 16.5q-5 6 -13.5 5.5t-12.5 -8.5zM358 678q-4 -8 1 -15t13 -7q10 0 14 8.5t-2 15.5
q-5 7 -13.5 6.5t-12.5 -8.5z" />
    <glyph glyph-name="quotedblright" unicode="&#x201d;" horiz-adv-x="414" 
d="M152 499q-9 -7 -21 -9t-23 -2q-9 0 -22 -0.5t-26 1t-24 4.5t-15 11q-2 4 -3 12t-1 17t0.5 17.5t0.5 12.5v20v32.5v32.5t-1 20q0 3 -0.5 9t-0.5 13t0.5 12.5t1.5 8.5q5 11 15 14q6 2 19.5 3.5t28.5 2.5t29 1t20 -1q9 -1 18 -3.5t16 -8.5q8 -6 12 -15.5t6 -18.5
q2 -14 2 -27v-27q0 -12 -1.5 -31t-5 -39t-9.5 -37t-16 -25zM367 495q-9 -7 -21 -9t-23 -2q-9 0 -22 -0.5t-26 0.5t-24 4.5t-15 11.5q-2 4 -3 12t-1 17t0.5 17t0.5 12v21v32v32t-1 20q-1 6 -1 22t2 22q4 10 15 14q6 2 19.5 3.5t28.5 2t29 0.5h20q9 -1 18 -4t16 -8
q8 -6 12 -15.5t6 -18.5q2 -14 2 -27v-27q0 -12 -1.5 -31.5t-5 -39.5t-9.5 -37t-16 -24zM105 683q2 0 7.5 -1t7.5 -1q7 0 11 5t4 10.5t-4 10.5t-12 5q-3 0 -9 0.5t-12.5 0.5t-12.5 -0.5t-9 -1.5q-11 -5 -8.5 -16.5t14.5 -11.5h23zM320 679q2 -1 7.5 -1.5t7.5 -0.5q7 0 11 5
t4 10.5t-4 10.5t-12 5q-3 0 -9 0.5t-12.5 0.5t-12.5 -0.5t-9 -1.5q-5 -3 -7 -7.5t-1 -9.5t4.5 -8.5t9.5 -3.5q3 0 12 0.5t11 0.5zM143 682q-4 -8 1 -15t13 -7q10 0 14 8.5t-2 16.5q-5 6 -13.5 5.5t-12.5 -8.5zM358 678q-4 -8 1 -15t13 -7q10 0 14 8.5t-2 15.5
q-5 7 -13.5 6.5t-12.5 -8.5z" />
    <glyph glyph-name="Euro" unicode="&#x20ac;" horiz-adv-x="634" 
d="M381 -12q-45 -3 -90 6t-83 32q-23 13 -43 30.5t-35 39.5q-18 26 -29 56.5t-17 61.5q-12 -1 -24 -1t-23 5q-25 10 -30 37.5t3 53.5q3 7 9.5 13.5t15.5 10.5t19 6.5t18 2.5v26q-11 -1 -23 0t-20 8q-6 6 -11 16.5t-7 22t-2.5 23t2.5 19.5q3 10 10 15q13 11 29.5 14t33.5 5
q9 45 24.5 90.5t46.5 80.5q17 20 39 34.5t46 25.5q59 26 128.5 26t128.5 -27q54 -25 86.5 -74t34.5 -108q0 -18 -4 -36.5t-15 -33.5q-9 -15 -27 -25q-12 -6 -26 -8t-28 -0.5t-26 7t-20 16.5q-10 14 -13.5 31.5t-8.5 34.5q-6 18 -18 32.5t-27.5 23t-32.5 10t-34 -6.5
q-25 -12 -42 -36t-25 -50q22 -2 44.5 -4.5t42.5 -11.5t29 -26.5t8 -35.5t-12.5 -33t-32.5 -19q-23 -5 -45 -2.5t-45 4.5v-29q26 0 52 -3t50 -12q9 -3 16.5 -9.5t9.5 -14.5q5 -14 1 -34t-15 -29q-13 -10 -31 -12q-16 -2 -31.5 -1.5t-31.5 0.5q7 -18 18 -35t28 -28
q7 -5 15.5 -8.5t17.5 -2.5q14 1 27 10.5t22 21.5q13 19 22.5 39t22.5 38q15 21 37 28.5t43.5 2.5t39.5 -21t25 -41q7 -26 6.5 -53t-8.5 -52q-8 -24 -24.5 -45.5t-36.5 -37.5q-32 -25 -72.5 -38.5t-81.5 -15.5zM485 669q5 -6 11 -6t10.5 3.5t6 9.5t-3.5 12q-4 5 -13 10.5
t-19.5 11t-20.5 9.5t-16 5q-3 1 -9.5 1.5t-13 1.5t-12.5 1h-9q-7 -2 -10 -6.5t-2 -10t4.5 -9.5t10.5 -4q9 0 17.5 -0.5t16.5 -2.5q14 -4 27 -11t25 -15zM518 642q4 -8 13 -9t14 6q6 8 1.5 16.5t-13.5 8.5q-8 -1 -13 -7.5t-2 -14.5z" />
    <glyph glyph-name="trademark" unicode="&#x2122;" horiz-adv-x="590" 
d="M168 448q-7 -6 -25 -7.5t-27 0.5q-16 2 -27 14q-7 9 -11 25q-2 10 -2.5 34t0.5 50.5t2 50.5t2 34q-10 -1 -19 -2t-19 -1q-11 -1 -18 4t-11 13t-5 18.5t2 20.5q6 26 33 32q9 2 29 3t42 1t42 -0.5t29 -2.5q11 -2 23.5 -6t17.5 -14q6 -12 4.5 -31t-10.5 -29
q-8 -10 -21.5 -11.5t-26.5 -1.5q2 -27 3.5 -54.5t3.5 -54.5q0 -8 1 -20.5t0.5 -25t-3.5 -23.5t-9 -16zM303 445q-11 -6 -24.5 -5.5t-25.5 3.5q-13 4 -18 14.5t-6 24.5t1.5 29.5t4.5 28.5q11 82 34 156q3 9 6 19t11 16t25.5 6.5t27.5 -1.5q11 -3 22 -15q14 -17 22 -36.5
t15 -39.5q2 7 5.5 19t8 24.5t10 23t11.5 14.5q5 3 13.5 5t18.5 2.5t19 -0.5t15 -3q10 -3 19 -12q7 -11 12 -26q2 -7 8 -27t12 -43t11.5 -43t7.5 -27q5 -17 8 -34.5t-1 -34.5q-2 -10 -8.5 -18.5t-16.5 -13.5q-15 -8 -36 -7.5t-32 14.5q-4 5 -5.5 10t-3.5 11q-3 18 -6 37
t-9 36q-2 -5 -6 -18t-8.5 -27.5t-8.5 -27.5t-6 -17q-5 -10 -14 -13q-11 -4 -28 -2t-25 10q-6 5 -9.5 11.5t-6.5 13.5q-6 17 -10 33.5t-9 33.5q-3 -19 -5.5 -37.5t-4.5 -36.5q-2 -8 -5 -16.5t-10 -13.5z" />
    <glyph glyph-name="minus" unicode="&#x2212;" horiz-adv-x="399" 
d="M323 207q-9 -2 -32 -2.5t-48.5 -0.5t-48.5 1t-32 1q-21 1 -42.5 1t-42.5 2q-11 1 -21.5 3.5t-18.5 9.5q-11 7 -15 17q-7 13 -9 30t0.5 33.5t9.5 31.5t19 24q13 10 33 12q28 4 56 2t56 -1q27 1 54 1h53q17 0 35 -2t32 -11q9 -5 15 -14.5t8 -19.5q3 -16 3.5 -31.5
t-3.5 -31.5q-2 -10 -6 -19.5t-12 -16.5q-9 -8 -20.5 -12.5t-22.5 -6.5zM227 350q-6 -2 -9 -6.5t-2 -9.5t4.5 -9.5t10.5 -4.5q2 0 14 1t14 1q3 0 8 -0.5t11 -0.5t11.5 0.5t7.5 1.5q9 5 9 14t-9 14q-2 1 -10 1h-11h-10t-14.5 -0.5t-14.5 -1t-10 -0.5zM323 332q0 -10 8 -14
t16 2q7 5 6 13.5t-9 12.5q-8 3 -14.5 -1.5t-6.5 -12.5z" />
    <glyph glyph-name="NULL" 
 />
    <glyph glyph-name="controlCR" 
 />
    </font>
</defs>
</svg>
